<?xml version="1.0" encoding="UTF-8"?>
<svg width="24px" height="24px" viewBox="0 0 24 24" version="1.1" xmlns="http://www.w3.org/2000/svg" xmlns:xlink="http://www.w3.org/1999/xlink">
    <!-- Generator: Sketch 59.1 (86144) - https://sketch.com -->
    <title>atoms/icons/24/a-ic-24-cross</title>
    <desc>Created with Sketch.</desc>
    <g id="atoms/icons/24/a-ic-24-cross" stroke="none" stroke-width="1" fill="none" fill-rule="evenodd">
        <path d="M6.29536704,6.29536704 C6.68918977,5.90154432 7.32770256,5.90154432 7.72152528,6.29536704 L11.9992462,10.5733033 L16.2784747,6.29536704 C16.6420034,5.93183837 17.2140254,5.90387463 17.6096299,6.21147581 L17.704633,6.29536704 C18.0984557,6.68918977 18.0984557,7.32770256 17.704633,7.72152528 L13.4261975,11.9992462 L17.704633,16.2784747 C18.0681616,16.6420034 18.0961254,17.2140254 17.7885242,17.6096299 L17.704633,17.704633 C17.3108102,18.0984557 16.6722974,18.0984557 16.2784747,17.704633 L11.9992462,13.4261975 L7.72152528,17.704633 C7.35799661,18.0681616 6.78597463,18.0961254 6.39037007,17.7885242 L6.29536704,17.704633 C5.90154432,17.3108102 5.90154432,16.6722974 6.29536704,16.2784747 L10.5733033,11.9992462 L6.29536704,7.72152528 C5.93183837,7.35799661 5.90387463,6.78597463 6.21147581,6.39037007 L6.29536704,6.29536704 Z" id="Path" fill="#6CC727"></path>
    </g>
</svg>