<?xml version="1.0" encoding="UTF-8"?>
<svg width="20px" height="20px" viewBox="0 0 20 20" version="1.1" xmlns="http://www.w3.org/2000/svg" xmlns:xlink="http://www.w3.org/1999/xlink">
    <!-- Generator: Sketch 59.1 (86144) - https://sketch.com -->
    <title>atoms/icons/24/a-ic-24-cookies</title>
    <desc>Created with Sketch.</desc>
    <g id="Cookies" stroke="none" stroke-width="1" fill="none" fill-rule="evenodd">
        <g transform="translate(-50.000000, -762.000000)" fill="#000000" id="cookies-modal">
            <g transform="translate(24.000000, 736.000000)">
                <g id="atoms/icons/24/a-ic-24-cookies" transform="translate(24.000000, 24.000000)">
                    <g id="cookie" transform="translate(2.000000, 2.000000)">
                        <path d="M19.6011719,9.22984121 C18.3147266,8.76785059 17.5234766,7.45867535 17.6228906,6.42488979 C17.6228906,6.25492943 17.5210547,6.09700028 17.3923047,5.98543815 C17.2635547,5.87442291 17.0638672,5.82637619 16.8967578,5.8532511 C14.9363672,6.14086731 13.1412891,4.70669249 12.9634375,2.6906837 C12.9474219,2.50873119 12.8478516,2.34505987 12.6933594,2.24720864 C12.5394531,2.14994335 12.3477344,2.12877155 12.1778125,2.19228696 C10.5887891,2.77419904 9.08734375,1.72201511 8.48824219,0.351004137 C8.37609375,0.0946378193 8.09800781,-0.0466898264 7.82390625,0.0139740304 C3.31324219,1.02049405 0,5.37719803 0,10.0000339 C0,15.4925934 4.50742188,20 10,20 C15.4925781,20 20,15.4925934 20,10.0000339 C19.9837109,9.65105072 19.9812891,9.36601263 19.6011719,9.22984121 Z M4.11132812,10.6300708 C3.78773437,10.6300708 3.52539062,10.367728 3.52539062,10.0441353 C3.52539062,9.72046455 3.78773437,9.45819981 4.11132812,9.45819981 C4.43492188,9.45819981 4.69726562,9.72046455 4.69726562,10.0441353 C4.69726562,10.367728 4.43488281,10.6300708 4.11132812,10.6300708 Z M6.484375,15.2734535 C5.51507812,15.2734535 4.7265625,14.4849406 4.7265625,13.515647 C4.7265625,12.5463534 5.51507812,11.7578405 6.484375,11.7578405 C7.45367187,11.7578405 8.2421875,12.5463534 8.2421875,13.515647 C8.2421875,14.4849406 7.45371094,15.2734535 6.484375,15.2734535 Z M7.0703125,8.24222738 C6.42429687,8.24222738 5.8984375,7.71636978 5.8984375,7.07035635 C5.8984375,6.42434292 6.42429687,5.89848532 7.0703125,5.89848532 C7.71632812,5.89848532 8.2421875,6.42434292 8.2421875,7.07035635 C8.2421875,7.71636978 7.71632812,8.24222738 7.0703125,8.24222738 Z M11.7578125,16.4453246 C11.1117969,16.4453246 10.5859375,15.919467 10.5859375,15.2734535 C10.5859375,14.6274401 11.1117969,14.1015825 11.7578125,14.1015825 C12.4038281,14.1015825 12.9296875,14.6274401 12.9296875,15.2734535 C12.9296875,15.919467 12.4038281,16.4453246 11.7578125,16.4453246 Z M12.34375,11.7578405 C11.3744531,11.7578405 10.5859375,10.9693275 10.5859375,10.0000339 C10.5859375,9.03074033 11.3744531,8.24222738 12.34375,8.24222738 C13.3130469,8.24222738 14.1015625,9.03074033 14.1015625,10.0000339 C14.1015625,10.9693275 13.3130859,11.7578405 12.34375,11.7578405 Z M15.8300781,12.9738129 C15.5064844,12.9738129 15.2441406,12.71147 15.2441406,12.3878774 C15.2441406,12.0642066 15.5064844,11.8019419 15.8300781,11.8019419 C16.1536719,11.8019419 16.4160156,12.0642066 16.4160156,12.3878774 C16.4160156,12.71147 16.1536328,12.9738129 15.8300781,12.9738129 Z" id="Shape" fill-rule="nonzero"></path>
                    </g>
                </g>
            </g>
        </g>
    </g>
</svg>