<?xml version="1.0" encoding="UTF-8"?>
<svg width="88px" height="88px" viewBox="0 0 88 88" version="1.1" xmlns="http://www.w3.org/2000/svg" xmlns:xlink="http://www.w3.org/1999/xlink">
    <!-- Generator: Sketch 58 (84663) - https://sketch.com -->
    <title>atoms/icons/88/a-ic-88-UI</title>
    <desc>Created with Sketch.</desc>
    <g id="atoms/icons/88/a-ic-88-UI" stroke="none" stroke-width="1" fill="none" fill-rule="evenodd">
        <path d="M77,15 C80.2383969,15 82.8775718,17.5655749 82.9958615,20.7750617 L83,21 L83,64 C83,67.2383969 80.4344251,69.8775718 77.2249383,69.9958615 L77,70 L51.353,70 L54.738,81 L58,81 L58,83 L30,83 L30,81 L33.261,81 L36.646,70 L11,70 C7.76160306,70 5.12242824,67.4344251 5.00413847,64.2249383 L5,64 L5,21 C5,17.7616031 7.56557489,15.1224282 10.7750617,15.0041385 L11,15 L11,17 C8.85780461,17 7.10892112,18.6839685 7.00489531,20.8003597 L7,21 L7,60 L81,60 L81,21 C81,18.8578046 79.3160315,17.1089211 77.1996403,17.0048953 L77,17 L77,15 Z M19,9 L21,9 C21.5522847,9 22,9.44771525 22,10 C22,10.5522847 21.5522847,11 21,11 L19,11 C18.4477153,11 18,10.5522847 18,10 C18,9.44771525 18.4477153,9 19,9 Z M25,9 L27,9 C27.5522847,9 28,9.44771525 28,10 C28,10.5522847 27.5522847,11 27,11 L25,11 C24.4477153,11 24,10.5522847 24,10 C24,9.44771525 24.4477153,9 25,9 Z M15,13 L73,13 L73,15 L15,15 L15,13 Z M49.261,70 L38.738,70 L35.353,81 L52.646,81 L49.261,70 Z M81,62 L7,62 L7,64 C7,66.1421954 8.68396847,67.8910789 10.8003597,67.9951047 L11,68 L77,68 C79.1421954,68 80.8910789,66.3160315 80.9951047,64.1996403 L81,64 L81,62 Z M69,5 C72.2383969,5 74.8775718,7.56557489 74.9958615,10.7750617 L75,11 L75,57 L73,57 L73,11 C73,8.85780461 71.3160315,7.10892112 69.1996403,7.00489531 L69,7 L19,7 C16.8578046,7 15.1089211,8.68396847 15.0048953,10.8003597 L15,11 L15,57 L13,57 L13,11 C13,7.76160306 15.5655749,5.12242824 18.7750617,5.00413847 L19,5 L69,5 Z M49,43 L67,43 C68.0543618,43 68.9181651,43.8158778 68.9945143,44.8507377 L69,45 L69,57 L67,57 L67,45 L56,45 L56,57 L54,57 L54,45 L49,45 L49,57 L47,57 L47,45 C47,43.9456382 47.8158778,43.0818349 48.8507377,43.0054857 L49,43 Z M39,43 C40.0543618,43 40.9181651,43.8158778 40.9945143,44.8507377 L41,45 L41,57 L39,57 L39,51 L21,51 L21,57 L19,57 L19,45 C19,43.9456382 19.8158778,43.0818349 20.8507377,43.0054857 L21,43 L39,43 Z M39,45 L21,45 L21,49 L39,49 L39,45 Z M67,19 C68.1045695,19 69,19.8954305 69,21 L69,37 C69,38.1045695 68.1045695,39 67,39 L21,39 C19.8954305,39 19,38.1045695 19,37 L19,21 C19,19.8954305 19.8954305,19 21,19 L67,19 Z M34,27 L21,27 L21,37 L34,37 L34,27 Z M67,27 L36,27 L36,37 L67,37 L67,27 Z M67,21 L21,21 L21,25 L67,25 L67,21 Z" id="Shape" fill="#6CC727"></path>
    </g>
</svg>