<?xml version="1.0" encoding="UTF-8"?>
<svg width="88px" height="88px" viewBox="0 0 88 88" version="1.1" xmlns="http://www.w3.org/2000/svg" xmlns:xlink="http://www.w3.org/1999/xlink">
    <!-- Generator: Sketch 58 (84663) - https://sketch.com -->
    <title>atoms/icons/88/a-ic-88-UX</title>
    <desc>Created with Sketch.</desc>
    <g id="atoms/icons/88/a-ic-88-UX" stroke="none" stroke-width="1" fill="none" fill-rule="evenodd">
        <path d="M37,4 C38.6568542,4 40,5.34314575 40,7 L40,21 L45.585,21 L44.2928932,19.7071068 C43.9023689,19.3165825 43.9023689,18.6834175 44.2928932,18.2928932 C44.6834175,17.9023689 45.3165825,17.9023689 45.7071068,18.2928932 L48,20.585 L48,7 C48,5.34314575 49.3431458,4 51,4 L81,4 C82.6568542,4 84,5.34314575 84,7 L84,37 C84,38.6568542 82.6568542,40 81,40 L67,40 L67,45.585 L68.2928932,44.2928932 C68.6834175,43.9023689 69.3165825,43.9023689 69.7071068,44.2928932 C70.0675907,44.6533772 70.0953203,45.2206082 69.7902954,45.6128994 L69.7071068,45.7071068 L67.414,48 L81,48 C82.6568542,48 84,49.3431458 84,51 L84,81 C84,82.6568542 82.6568542,84 81,84 L51,84 C49.3431458,84 48,82.6568542 48,81 L48,68 L42.415,68 L43.7071068,69.2928932 C44.0976311,69.6834175 44.0976311,70.3165825 43.7071068,70.7071068 C43.3466228,71.0675907 42.7793918,71.0953203 42.3871006,70.7902954 L42.2928932,70.7071068 L40,68.415 L40,81 C40,82.6568542 38.6568542,84 37,84 L7,84 C5.34314575,84 4,82.6568542 4,81 L4,51 C4,49.3431458 5.34314575,48 7,48 L37,48 C38.6568542,48 40,49.3431458 40,51 L40,65.584 L42.2928932,63.2928932 C42.6533772,62.9324093 43.2206082,62.9046797 43.6128994,63.2097046 L43.7071068,63.2928932 C44.0675907,63.6533772 44.0953203,64.2206082 43.7902954,64.6128994 L43.7071068,64.7071068 L42.413,66 L48,66 L48,51 C48,49.3431458 49.3431458,48 51,48 L64.585,48 L62.2928932,45.7071068 C61.9324093,45.3466228 61.9046797,44.7793918 62.2097046,44.3871006 L62.2928932,44.2928932 C62.6533772,43.9324093 63.2206082,43.9046797 63.6128994,44.2097046 L63.7071068,44.2928932 L65,45.585 L65,40 L51,40 C49.3431458,40 48,38.6568542 48,37 L48,23.414 L45.7071068,25.7071068 C45.3165825,26.0976311 44.6834175,26.0976311 44.2928932,25.7071068 C43.9023689,25.3165825 43.9023689,24.6834175 44.2928932,24.2928932 L45.585,23 L40,23 L40,37 C40,38.5976809 38.75108,39.9036609 37.1762728,39.9949073 L37,40 L7,40 C5.34314575,40 4,38.6568542 4,37 L4,7 C4,5.40231912 5.24891996,4.09633912 6.82372721,4.00509269 L7,4 L37,4 Z M14,27 L29,27 C29.5522847,27 30,27.4477153 30,28 C30,28.5522847 29.5522847,29 29,29 L14,29 C13.4477153,29 13,28.5522847 13,28 C13,27.4477153 13.4477153,27 14,27 Z M18,22 L25,22 C25.5522847,22 26,22.4477153 26,23 C26,23.5522847 25.5522847,24 25,24 L18,24 C17.4477153,24 17,23.5522847 17,23 C17,22.4477153 17.4477153,22 18,22 Z M82,60 L50,60 L50,81 C50,81.5522847 50.4477153,82 51,82 L81,82 C81.5522847,82 82,81.5522847 82,81 L82,60 Z M38,60 L6,60 L6,81 C6,81.5522847 6.44771525,82 7,82 L37,82 C37.5522847,82 38,81.5522847 38,81 L38,60 Z M28.624695,65.2191312 C29.022783,65.5376015 29.1129831,66.098301 28.8531452,66.5218773 L28.7808688,66.624695 L20.1753905,77.3815429 L15.4,73.8 C14.9581722,73.4686292 14.8686292,72.8418278 15.2,72.4 C15.5058808,71.992159 16.0634893,71.8844895 16.4949748,72.1309704 L16.6,72.2 L19.8246095,74.6184571 L27.2191312,65.375305 C27.5641407,64.944043 28.1934331,64.8741216 28.624695,65.2191312 Z M64,70 C66.209139,70 68,71.790861 68,74 C68,76.209139 66.209139,78 64,78 L58,78 C55.790861,78 54,76.209139 54,74 C54,71.790861 55.790861,70 58,70 L64,70 Z M64,72 L58,72 C56.8954305,72 56,72.8954305 56,74 C56,75.1045695 56.8954305,76 58,76 L64,76 C65.1045695,76 66,75.1045695 66,74 C66,72.8954305 65.1045695,72 64,72 Z M76,65 C76.5522847,65 77,65.4477153 77,66 C77,66.5522847 76.5522847,67 76,67 L55,67 C54.4477153,67 54,66.5522847 54,66 C54,65.4477153 54.4477153,65 55,65 L76,65 Z M81,50 L51,50 C50.4477153,50 50,50.4477153 50,51 L50,58 L82,58 L82,51 C82,50.4477153 81.5522847,50 81,50 Z M37,50 L7,50 C6.44771525,50 6,50.4477153 6,51 L6,58 L38,58 L38,51 C38,50.4477153 37.5522847,50 37,50 Z M62,53 C62.5522847,53 63,53.4477153 63,54 C63,54.5522847 62.5522847,55 62,55 L60,55 C59.4477153,55 59,54.5522847 59,54 C59,53.4477153 59.4477153,53 60,53 L62,53 Z M56,53 C56.5522847,53 57,53.4477153 57,54 C57,54.5522847 56.5522847,55 56,55 L54,55 C53.4477153,55 53,54.5522847 53,54 C53,53.4477153 53.4477153,53 54,53 L56,53 Z M18,53 C18.5522847,53 19,53.4477153 19,54 C19,54.5522847 18.5522847,55 18,55 L16,55 C15.4477153,55 15,54.5522847 15,54 C15,53.4477153 15.4477153,53 16,53 L18,53 Z M12,53 C12.5522847,53 13,53.4477153 13,54 C13,54.5522847 12.5522847,55 12,55 L10,55 C9.44771525,55 9,54.5522847 9,54 C9,53.4477153 9.44771525,53 10,53 L12,53 Z M38,16 L6,16 L6,37 C6,37.5522847 6.44771525,38 7,38 L37,38 C37.5522847,38 38,37.5522847 38,37 L38,16 Z M82,16 L50,16 L50,37 C50,37.5522847 50.4477153,38 51,38 L81,38 C81.5522847,38 82,37.5522847 82,37 L82,16 Z M69,20 C69.5522847,20 70,20.4477153 70,21 C70,21.5522847 69.5522847,22 69,22 L55,22 C54.4477153,22 54,21.5522847 54,21 C54,20.4477153 54.4477153,20 55,20 L69,20 Z M77,20 C77.5522847,20 78,20.4477153 78,21 C78,21.5522847 77.5522847,22 77,22 L73,22 C72.4477153,22 72,21.5522847 72,21 C72,20.4477153 72.4477153,20 73,20 L77,20 Z M37,6 L7,6 C6.44771525,6 6,6.44771525 6,7 L6,14 L38,14 L38,7 C38,6.44771525 37.5522847,6 37,6 Z M81,6 L51,6 C50.4477153,6 50,6.44771525 50,7 L50,14 L82,14 L82,7 C82,6.44771525 81.5522847,6 81,6 Z M12,9 C12.5522847,9 13,9.44771525 13,10 C13,10.5522847 12.5522847,11 12,11 L10,11 C9.44771525,11 9,10.5522847 9,10 C9,9.44771525 9.44771525,9 10,9 L12,9 Z M56,9 C56.5522847,9 57,9.44771525 57,10 C57,10.5522847 56.5522847,11 56,11 L54,11 C53.4477153,11 53,10.5522847 53,10 C53,9.44771525 53.4477153,9 54,9 L56,9 Z M18,9 C18.5522847,9 19,9.44771525 19,10 C19,10.5522847 18.5522847,11 18,11 L16,11 C15.4477153,11 15,10.5522847 15,10 C15,9.44771525 15.4477153,9 16,9 L18,9 Z M62,9 C62.5522847,9 63,9.44771525 63,10 C63,10.5522847 62.5522847,11 62,11 L60,11 C59.4477153,11 59,10.5522847 59,10 C59,9.44771525 59.4477153,9 60,9 L62,9 Z" id="Shape" fill="#6CC727" fill-rule="nonzero"></path>
    </g>
</svg>