<?xml version="1.0" encoding="UTF-8"?>
<svg width="32px" height="32px" viewBox="0 0 32 32" version="1.1" xmlns="http://www.w3.org/2000/svg" xmlns:xlink="http://www.w3.org/1999/xlink">
    <!-- Generator: Sketch 58 (84663) - https://sketch.com -->
    <title>atoms/icons/32/social/a-ic-32-social-facebook</title>
    <desc>Created with Sketch.</desc>
    <g id="atoms/icons/32/social/a-ic-32-social-facebook" stroke="none" stroke-width="1" fill="none" fill-rule="evenodd">
        <path d="M23.2958924,6 L8.69374083,6 C7.20611247,6 6.0000978,7.20596577 6.0000978,8.69364303 L6.0000978,23.2958924 C6.0000978,24.7835697 7.20606357,25.9896333 8.69374083,25.9896333 L15.8954523,25.9896333 L15.9077262,18.846357 L14.0519315,18.846357 C13.8107579,18.846357 13.6150122,18.6513447 13.6140831,18.4101711 L13.6051834,16.1076284 C13.6042543,15.8651345 13.8005868,15.6680685 14.0430807,15.6680685 L15.8955012,15.6680685 L15.8955012,13.4432274 C15.8955012,10.8613203 17.4723716,9.45545232 19.775599,9.45545232 L21.6655746,9.45545232 C21.9073839,9.45545232 22.1034719,9.65149144 22.1034719,9.89334963 L22.1034719,11.8348655 C22.1034719,12.0766259 21.9075306,12.2726161 21.6658191,12.2727628 L20.5059658,12.2733007 C19.2533985,12.2733007 19.0108557,12.8685086 19.0108557,13.7420049 L19.0108557,15.6681174 L21.7631785,15.6681174 C22.0254279,15.6681174 22.2288998,15.8971149 22.1979951,16.157555 L21.9250856,18.4600978 C21.8989731,18.6804401 21.7121271,18.8464548 21.4902689,18.8464548 L19.0231296,18.8464548 L19.0108557,25.9896333 L23.2959902,25.9896333 C24.7836186,25.9896333 25.9895844,24.7836675 25.9895844,23.2960391 L25.9895844,8.69364303 C25.9895844,7.20596577 24.7835697,6 23.2958924,6 Z" id="Path" fill="#475993" fill-rule="nonzero"></path>
    </g>
</svg>