<?xml version="1.0" encoding="UTF-8"?>
<svg width="32px" height="32px" viewBox="0 0 32 32" version="1.1" xmlns="http://www.w3.org/2000/svg" xmlns:xlink="http://www.w3.org/1999/xlink">
    <!-- Generator: Sketch 58 (84663) - https://sketch.com -->
    <title>atoms/icons/32/social/a-ic-32-social-instagram</title>
    <desc>Created with Sketch.</desc>
    <defs>
        <linearGradient x1="9.1540625%" y1="90.8465625%" x2="90.8459375%" y2="9.1534375%" id="linearGradient-1">
            <stop stop-color="#FFC107" offset="0%"></stop>
            <stop stop-color="#F44336" offset="50.7%"></stop>
            <stop stop-color="#9C27B0" offset="99%"></stop>
        </linearGradient>
    </defs>
    <g id="atoms/icons/32/social/a-ic-32-social-instagram" stroke="none" stroke-width="1" fill="none" fill-rule="evenodd">
        <path d="M21,6 C23.7614237,6 26,8.23857625 26,11 L26,21 C26,23.7614237 23.7614237,26 21,26 L11,26 C8.23857625,26 6,23.7614237 6,21 L6,11 C6,8.23857625 8.23857625,6 11,6 L21,6 Z M20,8 L12,8 C9.790861,8 8,9.790861 8,12 L8,12 L8,20 C8,22.209139 9.790861,24 12,24 L12,24 L20,24 C22.209139,24 24,22.209139 24,20 L24,20 L24,12 C24,9.790861 22.209139,8 20,8 L20,8 Z M20,9.5 C21.3807119,9.5 22.5,10.6192881 22.5,12 L22.5,12 L22.5,20 C22.5,21.3807119 21.3807119,22.5 20,22.5 L20,22.5 L12,22.5 C10.6192881,22.5 9.5,21.3807119 9.5,20 L9.5,20 L9.5,12 C9.5,10.6192881 10.6192881,9.5 12,9.5 L12,9.5 Z M16,12 C13.790861,12 12,13.790861 12,16 C12,18.209139 13.790861,20 16,20 C18.209139,20 20,18.209139 20,16 C20,13.790861 18.209139,12 16,12 Z M16,13.5 C17.3807119,13.5 18.5,14.6192881 18.5,16 C18.5,17.3807119 17.3807119,18.5 16,18.5 C14.6192881,18.5 13.5,17.3807119 13.5,16 C13.5,14.6192881 14.6192881,13.5 16,13.5 Z M20,11 C19.4477153,11 19,11.4477153 19,12 C19,12.5522847 19.4477153,13 20,13 C20.5522847,13 21,12.5522847 21,12 C21,11.4477153 20.5522847,11 20,11 Z" id="Combined-Shape" fill="url(#linearGradient-1)" fill-rule="nonzero"></path>
    </g>
</svg>