<?xml version="1.0" encoding="UTF-8"?>
<svg width="32px" height="32px" viewBox="0 0 32 32" version="1.1" xmlns="http://www.w3.org/2000/svg" xmlns:xlink="http://www.w3.org/1999/xlink">
    <!-- Generator: Sketch 58 (84663) - https://sketch.com -->
    <title>atoms/icons/32/social/a-ic-32-social-share</title>
    <desc>Created with Sketch.</desc>
    <g id="atoms/icons/32/social/a-ic-32-social-share" stroke="none" stroke-width="1" fill="none" fill-rule="evenodd">
        <path d="M16,4 C22.627417,4 28,9.372583 28,16 C28,22.627417 22.627417,28 16,28 C9.372583,28 4,22.627417 4,16 C4,9.372583 9.372583,4 16,4 Z M19.5,9 C18.1192881,9 17,10.1192881 17,11.5 C17,11.7242057 17.0295141,11.9415179 17.0848689,12.1482636 L12.4677045,14.4577036 C12.0100255,13.8745995 11.2987589,13.5 10.5,13.5 C9.11928813,13.5 8,14.6192881 8,16 C8,17.3807119 9.11928813,18.5 10.5,18.5 C11.2983025,18.5 12.0092126,18.1258285 12.4669197,17.5432958 L17.0848689,19.8517364 C17.0295141,20.0584821 17,20.2757943 17,20.5 C17,21.8807119 18.1192881,23 19.5,23 C20.8807119,23 22,21.8807119 22,20.5 C22,19.1192881 20.8807119,18 19.5,18 C18.7016975,18 17.9907874,18.3741715 17.5330803,18.9567042 L12.9151311,16.6482636 C12.9704859,16.4415179 13,16.2242057 13,16 C13,15.7761601 12.9705822,15.5591911 12.9154018,15.3527483 L17.5330803,13.0432958 C17.9907874,13.6258285 18.7016975,14 19.5,14 C20.8807119,14 22,12.8807119 22,11.5 C22,10.1192881 20.8807119,9 19.5,9 Z" id="Shape" fill="#6CC727"></path>
    </g>
</svg>