<?xml version="1.0" encoding="UTF-8"?>
<svg width="32px" height="32px" viewBox="0 0 32 32" version="1.1" xmlns="http://www.w3.org/2000/svg" xmlns:xlink="http://www.w3.org/1999/xlink">
    <!-- Generator: Sketch 58 (84663) - https://sketch.com -->
    <title>atoms/icons/32/social/a-ic-32-social-twitter</title>
    <desc>Created with Sketch.</desc>
    <g id="atoms/icons/32/social/a-ic-32-social-twitter" stroke="none" stroke-width="1" fill="none" fill-rule="evenodd">
        <path d="M28,8.557 C27.117,8.949 26.168,9.213 25.172,9.332 C26.189,8.723 26.969,7.758 27.337,6.608 C26.386,7.172 25.332,7.582 24.21,7.803 C23.312,6.846 22.032,6.248 20.616,6.248 C17.897,6.248 15.692,8.453 15.692,11.172 C15.692,11.558 15.736,11.934 15.819,12.294 C11.727,12.089 8.099,10.128 5.67,7.149 C5.247,7.876 5.004,8.722 5.004,9.625 C5.004,11.333 5.873,12.84 7.194,13.723 C6.387,13.697 5.628,13.476 4.964,13.107 C4.964,13.128 4.964,13.148 4.964,13.169 C4.964,15.555 6.661,17.545 8.914,17.997 C8.501,18.11 8.066,18.17 7.616,18.17 C7.299,18.17 6.99,18.139 6.69,18.082 C7.317,20.038 9.135,21.462 11.29,21.502 C9.605,22.823 7.482,23.61 5.175,23.61 C4.778,23.61 4.386,23.587 4,23.541 C6.179,24.938 8.767,25.753 11.548,25.753 C20.605,25.753 25.557,18.25 25.557,11.743 C25.557,11.53 25.552,11.317 25.543,11.106 C26.505,10.411 27.34,9.544 28,8.557 Z" id="Path" fill="#1DA1F2" fill-rule="nonzero"></path>
    </g>
</svg>