<?xml version="1.0" encoding="UTF-8"?>
<svg width="24px" height="24px" viewBox="0 0 24 24" version="1.1" xmlns="http://www.w3.org/2000/svg" xmlns:xlink="http://www.w3.org/1999/xlink">
    <!-- Generator: Sketch 58 (84663) - https://sketch.com -->
    <title>atoms/icons/24/a-ic-24-user</title>
    <desc>Created with Sketch.</desc>
    <g id="atoms/icons/24/a-ic-24-user" stroke="none" stroke-width="1" fill="none" fill-rule="evenodd">
        <path d="M12.4986364,14.9090909 C15.23,14.9090909 18.7359091,16.3872727 19.7443182,17.6977273 C20.3425727,18.4759818 19.8191982,19.5885258 18.8721306,19.6762841 L18.7515909,19.6818182 L6.24704545,19.6818182 C5.225,19.6818182 4.63113636,18.5084091 5.25431818,17.6977273 C6.26272727,16.3865909 9.76727273,14.9090909 12.4986364,14.9090909 Z M12.5,4 C14.6910744,4 16.4795242,5.72205359 16.5859031,7.88671448 L16.5909091,8.09090909 L16.5909091,8.77272727 C16.5909091,11.0322727 14.7595455,12.8636364 12.5,12.8636364 C10.3089256,12.8636364 8.52047583,11.1415828 8.41409694,8.97692189 L8.40909091,8.77272727 L8.40909091,8.09090909 C8.40909091,5.83136364 10.2404545,4 12.5,4 Z" id="Shape" fill="#000000" fill-rule="nonzero"></path>
    </g>
</svg>