<?xml version="1.0" encoding="UTF-8"?>
<svg width="460px" height="575px" viewBox="0 0 460 575" version="1.1" xmlns="http://www.w3.org/2000/svg" xmlns:xlink="http://www.w3.org/1999/xlink">
    <!-- Generator: Sketch 58 (84663) - https://sketch.com -->
    <title>atoms/illustrations/letters/a-il-letter-d</title>
    <desc>Created with Sketch.</desc>
    <g id="atoms/illustrations/letters/a-il-letter-d" stroke="none" stroke-width="1" fill="none" fill-rule="evenodd" opacity="0.100000001">
        <g id="D" transform="translate(0.000000, -0.000000)" stroke="#666666">
            <path d="M2.38341969,290.777202 L400.173576,521.82897" id="Path-6" stroke-width="1.19170984" stroke-dasharray="4.766839378238342"></path>
            <path d="M61.9689119,266.943005 L460,500.518135" id="Path-6" stroke-width="1.19170984" stroke-dasharray="4.766839378238342"></path>
            <path d="M288.393783,400.414508 L244.658049,430.373485" id="Path-8" stroke-width="1.19170984" stroke-dasharray="4.766839378238342"></path>
            <path d="M5.68434189e-13,47.6683938 L395.647668,277.668394" id="Path-6" stroke-width="1.19170984" stroke-dasharray="4.766839378238342"></path>
            <path d="M115.595855,33.3678756 L115.595855,493.366544" id="Path-6" stroke-width="1.19170984" stroke-dasharray="4.766839378238342"></path>
            <path d="M160.880829,-2.84217094e-14 L160.880829,459.998668" id="Path-6" stroke-width="1.19170984" stroke-dasharray="4.766839378238342"></path>
            <path d="M57.2020725,23.8341969 L452.847542,253.832918" id="Path-6" stroke-width="1.19170984" stroke-dasharray="4.766839378238342"></path>
            <path d="M160.880829,120.362694 L115.595855,151.34715" id="Path-8" stroke-width="1.19170984" stroke-dasharray="4.766839378238342"></path>
            <path d="M206.165803,168.031088 L160.880829,199.015544" id="Path-8" stroke-width="1.19170984" stroke-dasharray="4.766839378238342"></path>
            <path d="M291.968912,225.233161 L246.683938,256.217617" id="Path-8" stroke-width="1.19170984" stroke-dasharray="4.766839378238342"></path>
            <path d="M299.119171,249.067358 L253.834197,280.051813" id="Path-8" stroke-width="1.19170984" stroke-dasharray="4.766839378238342"></path>
            <path d="M275.284974,208.549223 L230,239.533679" id="Path-8" stroke-width="1.19170984" stroke-dasharray="4.766839378238342"></path>
            <path d="M160.880829,301.502591 L115.595855,332.487047" id="Path-8" stroke-width="1.19170984" stroke-dasharray="4.766839378238342"></path>
            <path d="M179.948187,337.253886 L134.663212,368.238342" id="Path-8" stroke-width="1.19170984" stroke-dasharray="4.766839378238342"></path>
            <path d="M299.119171,114.404145 L299.119171,574.402813" id="Path-6" stroke-width="1.19170984" stroke-dasharray="4.766839378238342"></path>
            <path d="M344.404145,76.2694301 L344.404145,536.268098" id="Path-6" stroke-width="1.19170984" stroke-dasharray="4.766839378238342"></path>
            <path d="M160.880829,296.735751 C160.880829,313.367325 170.621169,329.649131 182.331606,337.253886 M296.623593,402.726735 C306.426103,405.176465 315.481817,403.987469 323.013905,399.63415 M169.040466,95.5230184 C163.859348,98.1375081 160.880829,104.359132 160.880829,113.212435 L160.880829,296.735751 M206.165803,294.352332 L206.165803,168.031088 M283.646699,213.425755 C291.881277,220.260965 299.119171,233.945433 299.119171,244.300518 L299.119171,325.336788 C299.119171,334.355379 292.801068,339.637306 287.202073,339.637306 C285.293242,339.637306 283.189736,339.0214 280.051813,337.253886 L206.165803,294.352332 L206.165803,294.352332" id="Shape" stroke-width="1.19170984" stroke-dasharray="4.766839378238342"></path>
            <path d="M160.880829,325.336788 L121.921953,352.456492" id="Path-8" stroke-width="1.19170984" stroke-dasharray="4.766839378238342"></path>
            <path d="M204.974093,295.544041 L160.731672,325.8501" id="Path-8" stroke-width="1.19170984" stroke-dasharray="4.766839378238342"></path>
            <path d="M288.393783,340.829016 L250.557038,366.747185" id="Path-8" stroke-width="1.19170984" stroke-dasharray="4.766839378238342"></path>
            <path d="M323.408103,399.402597 C336.130567,391.808464 344.404145,375.080502 344.404145,351.554404 L344.404145,268.134715 C344.404145,222.322889 320.131169,176.002313 284.818653,156.11399 L182.331606,96.5284974 C179.56764,94.9865624 176.646489,94.1450777 175.181347,94.1450777 C172.722488,94.1450777 170.530988,94.6904248 168.64673,95.7309802" id="Shape" stroke-width="2.38341969" stroke-linecap="round" stroke-linejoin="round"></path>
            <path d="M115.595855,327.720207 C115.595855,344.351781 125.336195,360.633587 137.046632,368.238342 L237.150259,427.823834 C270.079355,446.829355 299.119171,426.614653 299.119171,382.53886 L299.119171,299.119171 C299.119171,253.307345 274.846195,206.986769 239.533679,187.098446 L137.046632,127.512953 C134.282666,125.971018 131.361515,125.129534 129.896373,125.129534 C120.993686,125.129534 115.595855,132.278578 115.595855,144.196891 L115.595855,327.720207 Z M160.880829,325.336788 L160.880829,199.015544 L234.766839,241.917098 C244.36553,247.241801 253.834197,263.44115 253.834197,275.284974 L253.834197,356.321244 C253.834197,365.339835 247.516094,370.621762 241.917098,370.621762 C240.008268,370.621762 237.904762,370.005856 234.766839,368.238342 L160.880829,325.336788 Z" id="Clip-2" stroke-width="2.38341969" stroke-linecap="round" stroke-linejoin="round"></path>
            <path d="M169.222798,95.3367876 L121.554404,127.989637" id="Path-8" stroke-width="2.38341969" stroke-linecap="round" stroke-linejoin="round"></path>
            <path d="M189.481865,101.295337 L144.978914,131.420411" id="Path-8" stroke-width="2.38341969" stroke-linecap="round" stroke-linejoin="round"></path>
            <path d="M326.528498,202.590674 L282.792764,232.549651" id="Path-8" stroke-width="2.38341969" stroke-linecap="round" stroke-linejoin="round"></path>
            <path d="M343.212436,252.642487 L299.476702,282.601464" id="Path-8" stroke-width="2.38341969" stroke-linecap="round" stroke-linejoin="round"></path>
            <path d="M343.212436,364.663212 L299.476702,394.62219" id="Path-8" stroke-width="2.38341969" stroke-linecap="round" stroke-linejoin="round"></path>
            <path d="M297.927462,166.839378 L254.191728,196.798356" id="Path-8" stroke-width="2.38341969" stroke-linecap="round" stroke-linejoin="round"></path>
            <path d="M324.145078,399.222798 L278.860104,430.207254" id="Path-8" stroke-width="2.38341969" stroke-linecap="round" stroke-linejoin="round"></path>
        </g>
    </g>
</svg>