<?xml version="1.0" encoding="UTF-8"?>
<svg width="462px" height="575px" viewBox="0 0 462 575" version="1.1" xmlns="http://www.w3.org/2000/svg" xmlns:xlink="http://www.w3.org/1999/xlink">
    <!-- Generator: Sketch 58 (84663) - https://sketch.com -->
    <title>U</title>
    <desc>Created with Sketch.</desc>
    <g id="Symbols" stroke="none" stroke-width="1" fill="none" fill-rule="evenodd" opacity="0.100000001">
        <g id="atoms/illustrations/letters/a-il-letter-u" transform="translate(1.000000, 0.000000)" stroke="#666666">
            <g id="U">
                <g id="dashed" stroke-dasharray="4.766839378238342" stroke-width="1.19170984">
                    <path d="M2.38341969,290.777202 L400.173576,521.82897" id="Path-6"></path>
                    <path d="M61.9689119,266.943005 L460,498.134715" id="Path-6"></path>
                    <path d="M0,47.6683938 L395.647668,277.668394" id="Path-6"></path>
                    <path d="M115.595855,33.3678756 L115.595855,493.366544" id="Path-6"></path>
                    <path d="M160.880829,-4.26325641e-14 L160.880829,459.998668" id="Path-6"></path>
                    <path d="M59.5854922,23.8341969 L455.230961,253.832918" id="Path-6"></path>
                    <path d="M175.21908,94.1450777 C167.482325,94.1450777 160.880829,101.309227 160.880829,113.293978 C160.880829,136.032636 160.880829,153.08663 160.880829,164.455959 C160.880829,182.76414 160.880829,210.226413 160.880829,246.842777 C160.880829,290.7217 188.840404,342.084611 221.658031,361.088083 C228.609662,365.098639 233.823386,368.106557 237.299201,370.111835 M296.752649,402.473199 C304.291805,404.553985 311.358639,404.448915 317.622713,402.380604 C333.636679,397.093013 344.404145,378.974502 344.404145,351.744515 M321.404531,176.407628 C309.351356,169.427053 299.119171,176.882416 299.119171,192.977315 C299.119171,216.846925 299.119171,234.749133 299.119171,246.683938 M299.119171,326.528497 C299.119171,338.224775 292.359612,344.696315 283.626943,339.637306 C270.38451,331.488116 260.452685,325.376224 253.831468,321.301629" id="Shape"></path>
                    <path d="M160.880829,137.046632 L115.595855,168.031088" id="Path-8"></path>
                    <path d="M160.880829,254.310881 L115.595855,285.295337" id="Path-8"></path>
                    <path d="M299.119171,114.404145 L299.119171,574.402813" id="Path-6"></path>
                    <path d="M344.404145,76.2694301 L344.404145,536.268098" id="Path-6"></path>
                    <path d="M291.968912,342.497409 L246.683938,373.481865" id="Path-8"></path>
                    <path d="M299.119171,216.176166 L253.834197,247.160622" id="Path-8"></path>
                </g>
                <g id="stroke" transform="translate(115.595855, 94.145078)" stroke-linecap="round" stroke-linejoin="round" stroke-width="2.38341969">
                    <path d="M205.088706,307.039598 C219.398233,300.548215 228.80829,283.055242 228.80829,257.599438 L228.80829,124.048255 C228.80829,107.953356 217.857098,89.2407418 205.808676,82.2625506 C200.141823,78.9806026 194.877491,78.8896486 190.889816,81.3872955 M138.23376,227.155411 C131.084519,222.755878 120.360658,216.156579 106.062176,207.357513 C97.3295071,202.300887 90.5699482,189.265813 90.5699482,177.564767 L90.5699482,44.0159681 C90.5699482,27.9186854 80.3377629,9.60305909 68.2869647,2.62725202 C65.206524,0.843962989 62.2782039,2.84217094e-14 59.6232252,2.84217094e-14 C56.6959275,2.84217094e-14 53.9311514,1.02560638 51.6249792,2.94987935" id="Shape"></path>
                    <path d="M0,183.682155 C0,227.561078 27.9595749,278.923989 60.7772021,297.927461 L122.746114,333.678756 C155.563741,352.682228 183.523316,332.462817 183.523316,288.583894 L183.523316,155.032711 C183.523316,138.937812 172.572124,120.225198 160.523702,113.247007 C148.470527,106.266431 138.238342,113.721794 138.238342,129.816693 L138.238342,263.367876 C138.238342,275.064154 131.478783,281.535694 122.746114,276.476684 L60.7772021,238.341969 C52.044533,233.285343 45.2849741,220.250269 45.2849741,208.549223 L45.2849741,75.0004241 C45.2849741,58.9031413 35.0527888,40.5875151 23.0019906,33.611708 C19.9215499,31.8284189 16.9932298,30.984456 14.3382512,30.984456 C6.60149614,30.984456 0,38.1486051 0,50.1333563 L0,183.682155 Z" id="Clip-2"></path>
                    <path d="M52.4352332,2.38341969 L7.15025907,33.3678756" id="Path-8"></path>
                    <path d="M90.5699482,42.9015544 L45.2849741,73.8860104" id="Path-8"></path>
                    <path d="M190.673575,81.5129534 L145.388601,112.497409" id="Path-8"></path>
                    <path d="M228.80829,122.031088 L183.523316,153.015544" id="Path-8"></path>
                    <path d="M228.80829,260.26943 L183.523316,291.253886" id="Path-8"></path>
                    <path d="M95.3367876,195.917098 L50.0518135,226.901554" id="Path-8"></path>
                    <path d="M205.5271,306.806792 L168.744851,331.973594" id="Path-8"></path>
                </g>
            </g>
        </g>
    </g>
</svg>