<?xml version="1.0" encoding="UTF-8"?>
<svg width="462px" height="575px" viewBox="0 0 462 575" version="1.1" xmlns="http://www.w3.org/2000/svg" xmlns:xlink="http://www.w3.org/1999/xlink">
    <!-- Generator: Sketch 58 (84663) - https://sketch.com -->
    <title>X</title>
    <desc>Created with Sketch.</desc>
    <g id="Symbols" stroke="none" stroke-width="1" fill="none" fill-rule="evenodd" opacity="0.100000001">
        <g id="atoms/illustrations/letters/a-il-letter-x" stroke="#666666">
            <g id="X" transform="translate(1.000000, -0.000000)">
                <path d="M2.38341969,290.777202 L400.173576,521.82897" id="Path-6" stroke-width="1.19170984" stroke-dasharray="4.766839378238342"></path>
                <path d="M61.9689119,264.559585 L460,495.751295" id="Path-6" stroke-width="1.19170984" stroke-dasharray="4.766839378238342"></path>
                <path d="M166.839378,316.994819 L121.554404,350.362694" id="Path-8" stroke-width="1.19170984" stroke-dasharray="4.766839378238342"></path>
                <path d="M157.305699,145.388601 L119.69587,173.101107" id="Path-8" stroke-width="1.19170984" stroke-dasharray="4.766839378238342"></path>
                <path d="M295.544041,405.181347 L257.934212,432.893853" id="Path-8" stroke-width="1.19170984" stroke-dasharray="4.766839378238342"></path>
                <path d="M5.68434189e-13,47.6683938 L395.647668,277.668394" id="Path-6" stroke-width="1.19170984" stroke-dasharray="4.766839378238342"></path>
                <path d="M115.595855,33.3678756 L115.595855,493.366544" id="Path-6" stroke-width="1.19170984" stroke-dasharray="4.766839378238342"></path>
                <path d="M160.880829,0 L160.880829,459.998668" id="Path-6" stroke-width="1.19170984" stroke-dasharray="4.766839378238342"></path>
                <path d="M57.2020725,21.4507772 L452.847542,251.449499" id="Path-6" stroke-width="1.19170984" stroke-dasharray="4.766839378238342"></path>
                <path d="M299.119171,114.404145 L299.119171,574.402813" id="Path-6" stroke-width="1.19170984" stroke-dasharray="4.766839378238342"></path>
                <path d="M344.404145,76.2694301 L344.404145,536.268098" id="Path-6" stroke-width="1.19170984" stroke-dasharray="4.766839378238342"></path>
                <path d="M207.838314,246.301398 C198.72744,253.007017 185.061128,263.065446 166.839378,276.476684 C158.245948,282.905682 159.359537,301.876076 167.952967,318.111497 C172.129394,325.998496 177.639472,332.675151 183.430174,335.981221 C189.223281,339.28967 196.033233,337.991016 200.207254,334.870466 C217.836778,321.986805 231.058921,312.324058 239.873683,305.882227 M306.057269,397.929598 C310.236101,405.826111 315.743773,412.495631 321.534475,415.799322 C327.327583,419.105392 333.53441,419.081632 337.710837,415.958703 C346.301862,409.529705 346.790855,390.336342 338.202236,374.103299" id="Shape" stroke-width="1.36020339" stroke-dasharray="5.440813543883013"></path>
                <path d="M252.482324,296.667828 L306.057269,397.929598 C310.236101,405.826111 315.743773,412.495631 321.534475,415.799322 C327.327583,419.105392 333.53441,419.081632 337.710837,415.958703 C346.301862,409.529705 346.790855,390.336342 338.202236,374.103299 L284.627291,272.841529 M167.952967,94.1442879 C159.359537,100.561394 158.166577,119.602512 166.762413,135.840311 L220.337358,237.102081" id="Shape" stroke-width="1.19170984" stroke-dasharray="4.766839378238342"></path>
                <path d="M252.482324,296.667828 L306.057269,397.929598 C310.236101,405.826111 315.743773,412.495631 321.534475,415.799322 C327.327583,419.105392 333.53441,419.081632 337.710837,415.958703 M291.811783,267.52786 C302.38534,259.707629 318.245676,247.977283 339.39279,232.336821 M251.450777,213.316062 L198.90738,112.014012" id="Shape" stroke-width="1.19170984" stroke-dasharray="4.766839378238342"></path>
                <path d="M337.710837,415.958703 C346.301862,409.529705 346.790855,390.336342 338.202236,374.103299 L284.627291,272.841529 M291.811783,267.52786 C302.38534,259.707629 318.245676,247.977283 339.39279,232.336821 C346.536116,226.380246 345.609924,208.069912 337.011682,191.832113 C328.411034,175.5848 313.467363,167.531012 304.866715,173.962389 C284.950852,188.635208 270.013954,199.639822 260.056023,206.976231 M251.450777,213.316062 L198.90738,112.014012 C192.327583,99.5841396 183.146019,91.761658 175.096293,91.761658 C172.62075,91.761658 169.976225,92.6315824 167.952967,94.1442879" id="Shape" stroke-width="2.38341969" stroke-linecap="round" stroke-linejoin="round"></path>
                <path d="M121.477439,169.208187 L175.052384,270.469957 L121.477439,310.974665 C112.884008,317.403663 114.074563,335.243952 122.667993,351.479373 C126.84442,359.366372 132.354498,366.043027 138.1452,369.349097 C143.938307,372.657545 150.638939,372.469646 154.81296,369.349097 L207.19735,330.035704 L260.772295,431.297474 C264.951127,439.193987 270.458799,445.863506 276.249501,449.167198 C282.042609,452.473268 288.249436,452.449507 292.425863,449.326579 C301.016887,442.897581 301.505881,423.704217 292.917262,407.471175 L239.342317,306.209405 L294.107816,265.704697 C301.251142,259.748122 300.32495,241.437788 291.726707,225.199989 C283.126059,208.952676 268.182389,200.898888 259.581741,207.330265 L207.19735,246.643658 L153.622406,145.381888 C147.042609,132.952015 137.861045,125.129534 129.811319,125.129534 C127.335776,125.129534 124.691251,125.999458 122.667993,127.512164 C114.074563,133.92927 112.881603,152.970387 121.477439,169.208187 Z" id="Clip-2" stroke-width="2.38341969" stroke-linecap="round" stroke-linejoin="round"></path>
                <path d="M168.031088,94.1450777 L123.937824,126.321244" id="Path-8" stroke-width="2.38341969" stroke-linecap="round" stroke-linejoin="round"></path>
                <path d="M336.062176,417.098446 L290.777202,450.466321" id="Path-8" stroke-width="2.38341969" stroke-linecap="round" stroke-linejoin="round"></path>
                <path d="M338.445596,374.196891 L293.160622,407.564767" id="Path-8" stroke-width="2.38341969" stroke-linecap="round" stroke-linejoin="round"></path>
                <path d="M200.207254,114.404145 L154.92228,147.772021" id="Path-8" stroke-width="2.38341969" stroke-linecap="round" stroke-linejoin="round"></path>
                <path d="M337.253886,194.248705 L293.160622,226.42487" id="Path-8" stroke-width="2.38341969" stroke-linecap="round" stroke-linejoin="round"></path>
            </g>
        </g>
    </g>
</svg>