<?xml version="1.0" encoding="UTF-8"?>
<svg width="34px" height="24px" viewBox="0 0 34 24" version="1.1" xmlns="http://www.w3.org/2000/svg" xmlns:xlink="http://www.w3.org/1999/xlink">
    <!-- Generator: Sketch 58 (84663) - https://sketch.com -->
    <title>atoms/flags/a-flags-au</title>
    <desc>Created with Sketch.</desc>
    <defs>
        <rect id="path-1" x="0" y="0" width="34" height="24" rx="2"></rect>
        <linearGradient x1="50%" y1="0%" x2="50%" y2="100%" id="linearGradient-3">
            <stop stop-color="#FFFFFF" offset="0%"></stop>
            <stop stop-color="#F0F0F0" offset="100%"></stop>
        </linearGradient>
        <linearGradient x1="50%" y1="0%" x2="50%" y2="100%" id="linearGradient-4">
            <stop stop-color="#FF2E3B" offset="0%"></stop>
            <stop stop-color="#FC0D1B" offset="100%"></stop>
        </linearGradient>
    </defs>
    <g id="atoms/flags/a-flags-au" stroke="none" stroke-width="1" fill="none" fill-rule="evenodd">
        <g id="AU">
            <mask id="mask-2" fill="white">
                <use xlink:href="#path-1"></use>
            </mask>
            <use id="Mask" fill="#FFFFFF" xlink:href="#path-1"></use>
            <rect id="Mask-Copy" fill="#0A17A7" mask="url(#mask-2)" x="0" y="0" width="34" height="24"></rect>
            <path d="M5.33333333,4.95449291 L-0.909239311,-0.333333333 L0.80952381,-0.333333333 L1.00175154,-0.272322621 L6.58198637,3.66666667 L8.00059552,3.66666667 L14.9047619,-0.597671396 L14.9047619,0.474609375 C14.9047619,0.764862185 14.7319406,1.0947102 14.4903412,1.26525094 L9.23809524,4.97271867 L9.23809524,6.24550709 L14.5286669,10.7269325 C14.9037298,11.0446328 14.7315897,11.5333333 14.2421642,11.5333333 L14.0911691,11.5333333 C13.8386907,11.5333333 13.506088,11.4274362 13.2963619,11.2793943 L7.98944221,7.53333333 L6.57083305,7.53333333 L-0.333333333,11.7976714 L-0.333333333,10.2272813 L5.33333333,6.22728133 L5.33333333,4.95449291 Z" id="Rectangle-36" stroke="#FFFFFF" stroke-width="0.666666667" fill="#FF2E3B" mask="url(#mask-2)"></path>
            <path d="M0,4 L0,7.2 L5.66666667,7.2 L5.66666667,11.3325806 C5.66666667,11.7011861 5.96549479,12 6.33760209,12 L8.23382648,12 C8.60437388,12 8.9047619,11.6997385 8.9047619,11.3325806 L8.9047619,7.2 L14.7122786,7.2 C15.0815769,7.2 15.3809524,6.9046875 15.3809524,6.53695793 L15.3809524,4.66304207 C15.3809524,4.29685405 15.0858554,4 14.7122786,4 L8.9047619,4 L8.9047619,0 L5.66666667,0 L5.66666667,4 L0,4 Z" id="Rectangle-2" fill="url(#linearGradient-3)" mask="url(#mask-2)"></path>
            <polygon id="Rectangle-36" fill="url(#linearGradient-4)" mask="url(#mask-2)" points="0 4.8 6.47619048 4.8 6.47619048 4 6.47619048 0 8.0952381 0 8.0952381 4 8.0952381 4.8 14.5714286 4.8 14.5714286 6.4 8.0952381 6.4 8.0952381 7.2 8.0952381 11.2 6.47619048 11.2 6.47619048 7.2 6.47619048 6.4 0 6.4"></polygon>
            <polygon id="Star-2" fill="#FFFFFF" mask="url(#mask-2)" points="7.28571429 19.6 5.85823582 20.3416408 6.13085994 18.7708204 4.9760056 17.6583592 6.57197505 17.4291796 7.28571429 16 7.99945352 17.4291796 9.59542297 17.6583592 8.44056863 18.7708204 8.71319276 20.3416408"></polygon>
            <polygon id="Star-2" fill="#FFFFFF" mask="url(#mask-2)" points="24.2857143 20.8 23.1408747 21.1313708 23.4761905 20 23.1408747 18.8686292 24.2857143 19.2 25.4305538 18.8686292 25.0952381 20 25.4305538 21.1313708"></polygon>
            <polygon id="Star-2" fill="#FFFFFF" mask="url(#mask-2)" points="24.2857143 5.6 23.1408747 5.93137085 23.4761905 4.8 23.1408747 3.66862915 24.2857143 4 25.4305538 3.66862915 25.0952381 4.8 25.4305538 5.93137085"></polygon>
            <polygon id="Star-2" fill="#FFFFFF" mask="url(#mask-2)" points="29.1428571 10.4 27.9980176 10.7313708 28.3333333 9.6 27.9980176 8.46862915 29.1428571 8.8 30.2876967 8.46862915 29.952381 9.6 30.2876967 10.7313708"></polygon>
            <polygon id="Star-2" fill="#FFFFFF" mask="url(#mask-2)" points="19.4285714 12 18.2837319 12.3313708 18.6190476 11.2 18.2837319 10.0686292 19.4285714 10.4 20.573411 10.0686292 20.2380952 11.2 20.573411 12.3313708"></polygon>
            <polygon id="Star-2" fill="#FFFFFF" mask="url(#mask-2)" points="26.7142857 14 26.1418659 14.1656854 26.3095238 13.6 26.1418659 13.0343146 26.7142857 13.2 27.2867055 13.0343146 27.1190476 13.6 27.2867055 14.1656854"></polygon>
        </g>
        <rect id="Rectangle" stroke="#979797" x="0.5" y="0.5" width="33" height="23"></rect>
    </g>
</svg>