<?xml version="1.0" encoding="UTF-8"?>
<svg width="34px" height="24px" viewBox="0 0 34 24" version="1.1" xmlns="http://www.w3.org/2000/svg" xmlns:xlink="http://www.w3.org/1999/xlink">
    <!-- Generator: Sketch 58 (84663) - https://sketch.com -->
    <title>atoms/flags/a-flags-no</title>
    <desc>Created with Sketch.</desc>
    <defs>
        <rect id="path-1" x="0" y="0" width="34" height="24" rx="2"></rect>
    </defs>
    <g id="atoms/flags/a-flags-no" stroke="none" stroke-width="1" fill="none" fill-rule="evenodd">
        <g id="NO">
            <mask id="mask-2" fill="white">
                <use xlink:href="#path-1"></use>
            </mask>
            <rect stroke="#F5F5F5" stroke-width="0.5" x="0.25" y="0.25" width="33.5" height="23.5" rx="2"></rect>
            <path d="M0,14.4 L9.71428571,14.4 L9.71428571,24 L0,24 L0,14.4 Z M34,14.4 L34,24 L14.5714286,24 L14.5714286,14.4 L34,14.4 Z M34,0 L34,9.6 L14.5714286,9.6 L14.5714286,0 L34,0 Z M9.71428571,9.6 L0,9.6 L0,0 L9.71428571,0 L9.71428571,9.6 Z" id="Combined-Shape" fill="#F14247" mask="url(#mask-2)"></path>
            <polygon id="Rectangle-2" fill="#0A3A85" mask="url(#mask-2)" points="0 12.8 11.3333333 12.8 11.3333333 24 12.952381 24 12.952381 12.8 34 12.8 34 11.2 12.952381 11.2 12.952381 0 11.3333333 0 11.3333333 11.2 0 11.2"></polygon>
        </g>
        <rect id="Rectangle" stroke="#979797" x="0.5" y="0.5" width="33" height="23"></rect>
    </g>
</svg>