<?xml version="1.0" encoding="UTF-8"?>
<svg width="34px" height="24px" viewBox="0 0 34 24" version="1.1" xmlns="http://www.w3.org/2000/svg" xmlns:xlink="http://www.w3.org/1999/xlink">
    <!-- Generator: Sketch 58 (84663) - https://sketch.com -->
    <title>atoms/flags/a-flags-gi</title>
    <desc>Created with Sketch.</desc>
    <defs>
        <rect id="path-1" x="0" y="0" width="34" height="24" rx="2"></rect>
    </defs>
    <g id="atoms/flags/a-flags-gi" stroke="none" stroke-width="1" fill="none" fill-rule="evenodd">
        <g id="GI">
            <mask id="mask-2" fill="white">
                <use xlink:href="#path-1"></use>
            </mask>
            <rect stroke="#F5F5F5" stroke-width="0.5" x="0.25" y="0.25" width="33.5" height="23.5" rx="2"></rect>
            <rect id="Rectangle-2" fill="#E34F4F" mask="url(#mask-2)" x="0" y="16" width="34" height="8"></rect>
            <rect id="Rectangle-2" fill="#E34F4F" mask="url(#mask-2)" x="11.3333333" y="9.6" width="9.71428571" height="6.4"></rect>
            <rect id="Rectangle-2" fill="#181A1A" mask="url(#mask-2)" x="12.952381" y="14.4" width="1.61904762" height="1.6"></rect>
            <rect id="Rectangle-2" fill="#181A1A" mask="url(#mask-2)" x="17.8095238" y="14.4" width="1.61904762" height="1.6"></rect>
            <rect id="Rectangle-2" fill="#181A1A" mask="url(#mask-2)" x="11.3333333" y="8" width="1.61904762" height="1.6"></rect>
            <rect id="Rectangle-2" fill="#181A1A" mask="url(#mask-2)" x="16.1904762" y="8" width="1.61904762" height="1.6"></rect>
            <rect id="Rectangle-2" fill="#181A1A" mask="url(#mask-2)" x="14.5714286" y="8" width="1.61904762" height="1.6"></rect>
            <rect id="Rectangle-2" fill="#181A1A" mask="url(#mask-2)" x="19.4285714" y="8" width="1.61904762" height="1.6"></rect>
            <rect id="Rectangle-2" fill="#E34F4F" mask="url(#mask-2)" x="11.3333333" y="6.4" width="1.61904762" height="1.6"></rect>
            <rect id="Rectangle-2" fill="#E34F4F" mask="url(#mask-2)" x="16.1904762" y="6.4" width="1.61904762" height="1.6"></rect>
            <rect id="Rectangle-2" fill="#E34F4F" mask="url(#mask-2)" x="14.5714286" y="6.4" width="1.61904762" height="1.6"></rect>
            <rect id="Rectangle-2" fill="#E34F4F" mask="url(#mask-2)" x="19.4285714" y="6.4" width="1.61904762" height="1.6"></rect>
        </g>
        <rect id="Rectangle" stroke="#979797" x="0.5" y="0.5" width="33" height="23"></rect>
    </g>
</svg>