<?xml version="1.0" encoding="UTF-8"?>
<svg width="34px" height="24px" viewBox="0 0 34 24" version="1.1" xmlns="http://www.w3.org/2000/svg" xmlns:xlink="http://www.w3.org/1999/xlink">
    <!-- Generator: Sketch 58 (84663) - https://sketch.com -->
    <title>atoms/flags/a-flags-us</title>
    <desc>Created with Sketch.</desc>
    <defs>
        <rect id="path-1" x="0" y="0" width="34" height="24" rx="2"></rect>
        <linearGradient x1="50%" y1="0%" x2="50%" y2="100%" id="linearGradient-3">
            <stop stop-color="#FFFFFF" offset="0%"></stop>
            <stop stop-color="#F0F0F0" offset="100%"></stop>
        </linearGradient>
        <path d="M12.1428571,8 C12.5899448,8 12.952381,8.3581722 12.952381,8.8 C12.952381,9.2418278 12.5899448,9.6 12.1428571,9.6 C11.6957695,9.6 11.3333333,9.2418278 11.3333333,8.8 C11.3333333,8.3581722 11.6957695,8 12.1428571,8 Z M8.9047619,8 C9.35184956,8 9.71428571,8.3581722 9.71428571,8.8 C9.71428571,9.2418278 9.35184956,9.6 8.9047619,9.6 C8.45767425,9.6 8.0952381,9.2418278 8.0952381,8.8 C8.0952381,8.3581722 8.45767425,8 8.9047619,8 Z M5.66666667,8 C6.11375432,8 6.47619048,8.3581722 6.47619048,8.8 C6.47619048,9.2418278 6.11375432,9.6 5.66666667,9.6 C5.21957901,9.6 4.85714286,9.2418278 4.85714286,8.8 C4.85714286,8.3581722 5.21957901,8 5.66666667,8 Z M2.42857143,8 C2.87565908,8 3.23809524,8.3581722 3.23809524,8.8 C3.23809524,9.2418278 2.87565908,9.6 2.42857143,9.6 C1.98148377,9.6 1.61904762,9.2418278 1.61904762,8.8 C1.61904762,8.3581722 1.98148377,8 2.42857143,8 Z M4.04761905,6.4 C4.4947067,6.4 4.85714286,6.7581722 4.85714286,7.2 C4.85714286,7.6418278 4.4947067,8 4.04761905,8 C3.60053139,8 3.23809524,7.6418278 3.23809524,7.2 C3.23809524,6.7581722 3.60053139,6.4 4.04761905,6.4 Z M7.28571429,6.4 C7.73280194,6.4 8.0952381,6.7581722 8.0952381,7.2 C8.0952381,7.6418278 7.73280194,8 7.28571429,8 C6.83862663,8 6.47619048,7.6418278 6.47619048,7.2 C6.47619048,6.7581722 6.83862663,6.4 7.28571429,6.4 Z M10.5238095,6.4 C10.9708972,6.4 11.3333333,6.7581722 11.3333333,7.2 C11.3333333,7.6418278 10.9708972,8 10.5238095,8 C10.0767219,8 9.71428571,7.6418278 9.71428571,7.2 C9.71428571,6.7581722 10.0767219,6.4 10.5238095,6.4 Z M12.1428571,4.8 C12.5899448,4.8 12.952381,5.1581722 12.952381,5.6 C12.952381,6.0418278 12.5899448,6.4 12.1428571,6.4 C11.6957695,6.4 11.3333333,6.0418278 11.3333333,5.6 C11.3333333,5.1581722 11.6957695,4.8 12.1428571,4.8 Z M8.9047619,4.8 C9.35184956,4.8 9.71428571,5.1581722 9.71428571,5.6 C9.71428571,6.0418278 9.35184956,6.4 8.9047619,6.4 C8.45767425,6.4 8.0952381,6.0418278 8.0952381,5.6 C8.0952381,5.1581722 8.45767425,4.8 8.9047619,4.8 Z M5.66666667,4.8 C6.11375432,4.8 6.47619048,5.1581722 6.47619048,5.6 C6.47619048,6.0418278 6.11375432,6.4 5.66666667,6.4 C5.21957901,6.4 4.85714286,6.0418278 4.85714286,5.6 C4.85714286,5.1581722 5.21957901,4.8 5.66666667,4.8 Z M2.42857143,4.8 C2.87565908,4.8 3.23809524,5.1581722 3.23809524,5.6 C3.23809524,6.0418278 2.87565908,6.4 2.42857143,6.4 C1.98148377,6.4 1.61904762,6.0418278 1.61904762,5.6 C1.61904762,5.1581722 1.98148377,4.8 2.42857143,4.8 Z M4.04761905,3.2 C4.4947067,3.2 4.85714286,3.5581722 4.85714286,4 C4.85714286,4.4418278 4.4947067,4.8 4.04761905,4.8 C3.60053139,4.8 3.23809524,4.4418278 3.23809524,4 C3.23809524,3.5581722 3.60053139,3.2 4.04761905,3.2 Z M7.28571429,3.2 C7.73280194,3.2 8.0952381,3.5581722 8.0952381,4 C8.0952381,4.4418278 7.73280194,4.8 7.28571429,4.8 C6.83862663,4.8 6.47619048,4.4418278 6.47619048,4 C6.47619048,3.5581722 6.83862663,3.2 7.28571429,3.2 Z M10.5238095,3.2 C10.9708972,3.2 11.3333333,3.5581722 11.3333333,4 C11.3333333,4.4418278 10.9708972,4.8 10.5238095,4.8 C10.0767219,4.8 9.71428571,4.4418278 9.71428571,4 C9.71428571,3.5581722 10.0767219,3.2 10.5238095,3.2 Z M2.42857143,1.6 C2.87565908,1.6 3.23809524,1.9581722 3.23809524,2.4 C3.23809524,2.8418278 2.87565908,3.2 2.42857143,3.2 C1.98148377,3.2 1.61904762,2.8418278 1.61904762,2.4 C1.61904762,1.9581722 1.98148377,1.6 2.42857143,1.6 Z M5.66666667,1.6 C6.11375432,1.6 6.47619048,1.9581722 6.47619048,2.4 C6.47619048,2.8418278 6.11375432,3.2 5.66666667,3.2 C5.21957901,3.2 4.85714286,2.8418278 4.85714286,2.4 C4.85714286,1.9581722 5.21957901,1.6 5.66666667,1.6 Z M8.9047619,1.6 C9.35184956,1.6 9.71428571,1.9581722 9.71428571,2.4 C9.71428571,2.8418278 9.35184956,3.2 8.9047619,3.2 C8.45767425,3.2 8.0952381,2.8418278 8.0952381,2.4 C8.0952381,1.9581722 8.45767425,1.6 8.9047619,1.6 Z M12.1428571,1.6 C12.5899448,1.6 12.952381,1.9581722 12.952381,2.4 C12.952381,2.8418278 12.5899448,3.2 12.1428571,3.2 C11.6957695,3.2 11.3333333,2.8418278 11.3333333,2.4 C11.3333333,1.9581722 11.6957695,1.6 12.1428571,1.6 Z" id="path-4"></path>
        <filter x="-4.4%" y="-6.3%" width="108.8%" height="125.0%" filterUnits="objectBoundingBox" id="filter-5">
            <feOffset dx="0" dy="1" in="SourceAlpha" result="shadowOffsetOuter1"></feOffset>
            <feColorMatrix values="0 0 0 0 0   0 0 0 0 0   0 0 0 0 0  0 0 0 0.06 0" type="matrix" in="shadowOffsetOuter1"></feColorMatrix>
        </filter>
    </defs>
    <g id="atoms/flags/a-flags-us" stroke="none" stroke-width="1" fill="none" fill-rule="evenodd">
        <g id="US">
            <mask id="mask-2" fill="white">
                <use xlink:href="#path-1"></use>
            </mask>
            <use id="Mask" fill="#FFFFFF" xlink:href="#path-1"></use>
            <path d="M34,22.4 L34,24 L0,24 L0,22.4 L34,22.4 Z M34,19.2 L34,20.8 L0,20.8 L0,19.2 L34,19.2 Z M34,16 L34,17.6 L0,17.6 L0,16 L34,16 Z M34,12.8 L34,14.4 L0,14.4 L0,12.8 L34,12.8 Z M34,9.6 L34,11.2 L0,11.2 L0,9.6 L34,9.6 Z M34,6.4 L34,8 L0,8 L0,6.4 L34,6.4 Z M34,3.2 L34,4.8 L0,4.8 L0,3.2 L34,3.2 Z M34,0 L34,1.6 L0,1.6 L0,0 L34,0 Z" id="Rectangle-511" fill="#D02F44" mask="url(#mask-2)"></path>
            <rect id="Rectangle-511" fill="#46467F" mask="url(#mask-2)" x="0" y="0" width="14.5714286" height="11.2"></rect>
            <g id="Oval-43" mask="url(#mask-2)">
                <use fill="black" fill-opacity="1" filter="url(#filter-5)" xlink:href="#path-4"></use>
                <use fill="url(#linearGradient-3)" fill-rule="evenodd" xlink:href="#path-4"></use>
            </g>
        </g>
        <rect id="Rectangle" stroke="#979797" x="0.5" y="0.5" width="33" height="23"></rect>
    </g>
</svg>