<?xml version="1.0" encoding="UTF-8"?>
<svg width="34px" height="24px" viewBox="0 0 34 24" version="1.1" xmlns="http://www.w3.org/2000/svg" xmlns:xlink="http://www.w3.org/1999/xlink">
    <!-- Generator: Sketch 58 (84663) - https://sketch.com -->
    <title>atoms/flags/a-flags-sg</title>
    <desc>Created with Sketch.</desc>
    <defs>
        <linearGradient x1="50%" y1="0%" x2="50%" y2="100%" id="linearGradient-1">
            <stop stop-color="#FFFFFF" offset="0%"></stop>
            <stop stop-color="#F0F0F0" offset="100%"></stop>
        </linearGradient>
        <rect id="path-2" x="0" y="0" width="33.6" height="24" rx="2.4"></rect>
    </defs>
    <g id="atoms/flags/a-flags-sg" stroke="none" stroke-width="1" fill="none" fill-rule="evenodd">
        <g id="SG">
            <mask id="mask-3" fill="white">
                <use xlink:href="#path-2"></use>
            </mask>
            <rect stroke="#F5F5F5" stroke-width="0.6" x="0.3" y="0.3" width="33" height="23.4" rx="2.4"></rect>
            <rect id="Rectangle-2" fill="#E12237" mask="url(#mask-3)" x="0" y="0" width="33.6" height="12.8"></rect>
            <path d="M8,1.6 C9.13457388,1.6 10.177208,1.99364081 10.9987789,2.65179891 C10.5633575,2.48884686 10.0920544,2.4 9.6,2.4 C7.390861,2.4 5.6,4.190861 5.6,6.4 C5.6,8.609139 7.390861,10.4 9.6,10.4 C10.0920544,10.4 10.5633575,10.3111531 10.998742,10.1486268 C10.177208,10.8063592 9.13457388,11.2 8,11.2 C5.3490332,11.2 3.2,9.0509668 3.2,6.4 C3.2,3.7490332 5.3490332,1.6 8,1.6 Z M10.4,8 C10.8418278,8 11.2,8.3581722 11.2,8.8 C11.2,9.2418278 10.8418278,9.6 10.4,9.6 C9.9581722,9.6 9.6,9.2418278 9.6,8.8 C9.6,8.3581722 9.9581722,8 10.4,8 Z M13.6,8 C14.0418278,8 14.4,8.3581722 14.4,8.8 C14.4,9.2418278 14.0418278,9.6 13.6,9.6 C13.1581722,9.6 12.8,9.2418278 12.8,8.8 C12.8,8.3581722 13.1581722,8 13.6,8 Z M8.8,4.8 C9.2418278,4.8 9.6,5.1581722 9.6,5.6 C9.6,6.0418278 9.2418278,6.4 8.8,6.4 C8.3581722,6.4 8,6.0418278 8,5.6 C8,5.1581722 8.3581722,4.8 8.8,4.8 Z M15.2,4.8 C15.6418278,4.8 16,5.1581722 16,5.6 C16,6.0418278 15.6418278,6.4 15.2,6.4 C14.7581722,6.4 14.4,6.0418278 14.4,5.6 C14.4,5.1581722 14.7581722,4.8 15.2,4.8 Z M12,2.4 C12.4418278,2.4 12.8,2.7581722 12.8,3.2 C12.8,3.6418278 12.4418278,4 12,4 C11.5581722,4 11.2,3.6418278 11.2,3.2 C11.2,2.7581722 11.5581722,2.4 12,2.4 Z" id="Oval-12" fill="#FFFFFF" mask="url(#mask-3)"></path>
        </g>
        <rect id="Rectangle" stroke="#979797" x="0.5" y="0.5" width="33" height="23"></rect>
    </g>
</svg>