<?xml version="1.0" encoding="UTF-8"?>
<svg width="34px" height="24px" viewBox="0 0 34 24" version="1.1" xmlns="http://www.w3.org/2000/svg" xmlns:xlink="http://www.w3.org/1999/xlink">
    <!-- Generator: Sketch 58 (84663) - https://sketch.com -->
    <title>atoms/flags/a-flags-ge</title>
    <desc>Created with Sketch.</desc>
    <defs>
        <rect id="path-1" x="0" y="0" width="34" height="24" rx="2"></rect>
    </defs>
    <g id="atoms/flags/a-flags-ge" stroke="none" stroke-width="1" fill="none" fill-rule="evenodd">
        <g id="GE">
            <mask id="mask-2" fill="white">
                <use xlink:href="#path-1"></use>
            </mask>
            <rect stroke="#F5F5F5" stroke-width="0.5" x="0.25" y="0.25" width="33.5" height="23.5" rx="2"></rect>
            <path d="M19.4285714,-1.6 L19.4279524,9.599 L35.6190476,9.6 L35.6190476,14.4 L19.4279524,14.399 L19.4285714,25.6 L14.5714286,25.6 L14.5709524,14.399 L-1.61904762,14.4 L-1.61904762,9.6 L14.5709524,9.599 L14.5714286,-1.6 L19.4285714,-1.6 Z" id="Rectangle-2" fill="#FF2B37" mask="url(#mask-2)"></path>
            <path d="M27.5238095,2.4 L27.1997143,4.319 L29.1428571,4 L29.1428571,5.6 L27.1997143,5.279 L27.5238095,7.2 L25.9047619,7.2 L26.2277143,5.279 L24.2857143,5.6 L24.2857143,4 L26.2277143,4.319 L25.9047619,2.4 L27.5238095,2.4 Z" id="Rectangle-742" fill="#FD0D1B" mask="url(#mask-2)"></path>
            <path d="M8.0952381,2.4 L7.77114286,4.319 L9.71428571,4 L9.71428571,5.6 L7.77114286,5.279 L8.0952381,7.2 L6.47619048,7.2 L6.79914286,5.279 L4.85714286,5.6 L4.85714286,4 L6.79914286,4.319 L6.47619048,2.4 L8.0952381,2.4 Z" id="Rectangle-742" fill="#FD0D1B" mask="url(#mask-2)"></path>
            <path d="M8.0952381,16.8 L7.77114286,18.719 L9.71428571,18.4 L9.71428571,20 L7.77114286,19.679 L8.0952381,21.6 L6.47619048,21.6 L6.79914286,19.679 L4.85714286,20 L4.85714286,18.4 L6.79914286,18.719 L6.47619048,16.8 L8.0952381,16.8 Z" id="Rectangle-742" fill="#FD0D1B" mask="url(#mask-2)"></path>
            <path d="M27.5238095,16.8 L27.1997143,18.719 L29.1428571,18.4 L29.1428571,20 L27.1997143,19.679 L27.5238095,21.6 L25.9047619,21.6 L26.2277143,19.679 L24.2857143,20 L24.2857143,18.4 L26.2277143,18.719 L25.9047619,16.8 L27.5238095,16.8 Z" id="Rectangle-742" fill="#FD0D1B" mask="url(#mask-2)"></path>
        </g>
        <rect id="Rectangle" stroke="#979797" x="0.5" y="0.5" width="33" height="23"></rect>
    </g>
</svg>