<?xml version="1.0" encoding="UTF-8"?>
<svg width="34px" height="24px" viewBox="0 0 34 24" version="1.1" xmlns="http://www.w3.org/2000/svg" xmlns:xlink="http://www.w3.org/1999/xlink">
    <!-- Generator: Sketch 58 (84663) - https://sketch.com -->
    <title>atoms/flags/a-flags-cy</title>
    <desc>Created with Sketch.</desc>
    <defs>
        <rect id="path-1" x="0" y="0" width="34" height="24" rx="2"></rect>
    </defs>
    <g id="atoms/flags/a-flags-cy" stroke="none" stroke-width="1" fill="none" fill-rule="evenodd">
        <g id="CY">
            <mask id="mask-2" fill="white">
                <use xlink:href="#path-1"></use>
            </mask>
            <rect stroke="#F5F5F5" stroke-width="0.5" x="0.25" y="0.25" width="33.5" height="23.5" rx="2"></rect>
            <path d="M25.3018883,3.49789047 C25.6348462,3.33337011 25.7375935,3.44780264 25.5292504,3.75664063 L24.6612258,5.04335938 C24.4538365,5.3507835 24.0439749,5.75926361 23.722447,5.97109375 L22.4204102,6.82890625 C22.1093262,7.03385567 21.64445,7.41019058 21.3768834,7.67460938 L21.5278785,7.52539063 C21.2626385,7.78751014 21.2592812,8.20917206 21.5246299,8.47139893 L22.1896558,9.12860107 C22.4531016,9.38894751 22.4550045,9.80917206 22.1896558,10.0713989 L21.5246299,10.7286011 C21.2611841,10.9889475 20.7802663,11.0678963 20.4447455,10.9021095 L20.031445,10.6978905 C19.6984871,10.5333701 19.294895,10.6642075 19.1271346,10.9957809 L18.9204844,11.4042191 C18.7540055,11.7332598 18.3404596,12.0917702 17.9809691,12.2101906 L16.8285547,12.5898094 C16.4761537,12.7058945 15.8935179,12.8 15.5319475,12.8 L15.2299572,12.8 C14.8662619,12.8 14.4377522,13.0642075 14.2699918,13.3957809 L14.0633415,13.8042191 C13.8968626,14.1332598 13.4858266,14.2635849 13.1679882,14.1065353 L11.1177261,13.0934647 C10.789715,12.9313886 10.3121473,12.5908279 10.0467987,12.3286011 L9.38177272,11.6713989 C9.11832692,11.4110525 8.9047619,10.9065353 8.9047619,10.5307266 L8.9047619,10.2692734 C8.9047619,9.8996439 9.19701858,9.6 9.57327743,9.6 L9.04577019,9.6 C9.41498112,9.6 9.92594792,9.39082794 10.1912965,9.12860107 L10.8563225,8.47139893 C11.1197683,8.21105249 11.6302916,8 11.991862,8 L12.2938523,8 C12.6575476,8 13.0452436,7.72468948 13.1650738,7.36942825 L13.5492119,6.23057175 C13.6666789,5.88231659 14.0529995,5.65753403 14.4122248,5.72853384 L17.1592038,6.27146616 C17.5183656,6.34245344 18.1083519,6.32617188 18.4648007,6.23810806 L20.3923422,5.76189194 C20.7542416,5.67248149 21.3149718,5.46789627 21.6504926,5.30210953 L22.0637931,5.09789047 C22.396751,4.93337011 22.9340195,4.66789627 23.2695402,4.50210953 L23.6828407,4.29789047 C24.0157986,4.13337011 24.5530671,3.86789627 24.8885879,3.70210953 L25.3018883,3.49789047 Z" id="Line" fill="#E7832C" mask="url(#mask-2)"></path>
            <ellipse id="Oval-81" fill="#445128" mask="url(#mask-2)" cx="17" cy="18.4" rx="1" ry="1"></ellipse>
            <path d="M19.4285714,17.6 C19.4285714,17.6 21.8571429,16.8 22.6666667,15.2" id="Line" stroke="#445128" stroke-width="1.33333333" opacity="0.75" stroke-linecap="round" mask="url(#mask-2)"></path>
            <path d="M11.3333333,17.6 C11.3333333,17.6 13.7619048,16.8 14.5714286,15.2" id="Line" stroke="#445128" stroke-width="1.33333333" opacity="0.75" stroke-linecap="round" mask="url(#mask-2)" transform="translate(12.952381, 16.400000) scale(-1, 1) translate(-12.952381, -16.400000) "></path>
        </g>
        <rect id="Rectangle" stroke="#979797" x="0.5" y="0.5" width="33" height="23"></rect>
    </g>
</svg>