<?xml version="1.0" encoding="UTF-8"?>
<svg width="34px" height="24px" viewBox="0 0 34 24" version="1.1" xmlns="http://www.w3.org/2000/svg" xmlns:xlink="http://www.w3.org/1999/xlink">
    <!-- Generator: Sketch 58 (84663) - https://sketch.com -->
    <title>atoms/flags/a-flags-sa</title>
    <desc>Created with Sketch.</desc>
    <defs>
        <linearGradient x1="50%" y1="0%" x2="50%" y2="100%" id="linearGradient-1">
            <stop stop-color="#FFFFFF" offset="0%"></stop>
            <stop stop-color="#F0F0F0" offset="100%"></stop>
        </linearGradient>
        <rect id="path-2" x="0" y="0" width="33.6" height="24" rx="2.4"></rect>
    </defs>
    <g id="atoms/flags/a-flags-sa" stroke="none" stroke-width="1" fill="none" fill-rule="evenodd">
        <g id="SA">
            <mask id="mask-3" fill="white">
                <use xlink:href="#path-2"></use>
            </mask>
            <use id="Mask" fill="#FFFFFF" xlink:href="#path-2"></use>
            <rect id="Mask-Copy" fill="#128C4B" mask="url(#mask-3)" x="0" y="0" width="33.6" height="24"></rect>
            <path d="M8,14.4 L20.8,14.4 L20.8,12.7991652 C20.8,12.3577985 21.1237839,12.1618919 21.515764,12.357882 L22.4,12.8 L22.4,14.4 L24.7925049,14.4 C25.2384721,14.4 25.6,14.7670807 25.6,15.2074951 L25.6,16 C25.6,16.8836556 24.8917435,17.6 24.0016695,17.6 L21.5926224,17.6 C21.1548691,17.6 20.8,17.2449081 20.8,16.8 L20.8,16 L10.4054764,16 C9.96062406,16 9.35,15.75 9.04039764,15.4403976 L8,14.4 Z" id="Rectangle-455" fill="#FFFFFF" mask="url(#mask-3)"></path>
            <path d="M8,10.0037476 C8,9.78076394 8.125,9.475 8.28881836,9.31118164 L8.51118164,9.08881836 C8.67069162,8.92930838 8.675,8.675 8.51118164,8.51118164 L8.28881836,8.28881836 C8.12930838,8.12930838 8,7.82877197 8,7.59625244 L8,6.80374756 C8,6.58076394 8.17122803,6.4 8.40374756,6.4 L9.19625244,6.4 C9.41923606,6.4 9.6,6.57122803 9.6,6.80374756 L9.6,7.59625244 C9.6,7.81923606 9.67963181,7.84073639 9.77754593,7.64490814 L10.2224541,6.75509186 C10.32051,6.55898004 10.588324,6.4 10.7963112,6.4 L12.4036888,6.4 C12.6225654,6.4 12.8,6.58554687 12.8,6.8 L12.8,6.8 C12.8,7.0209139 12.628772,7.2 12.3962524,7.2 L11.6037476,7.2 C11.3807639,7.2 11.2,7.38554687 11.2,7.6 L11.2,7.6 C11.2,7.8209139 11.371228,8 11.6037476,8 L12.3962524,8 C12.6192361,8 12.8,8.1720459 12.8,8.39238281 L12.8,10.8076172 C12.8,11.0243242 12.628772,11.2 12.3962524,11.2 L11.6037476,11.2 C11.3807639,11.2 11.2,11.028772 11.2,10.7962524 L11.2,10.0037476 C11.2,9.78076394 11.3855469,9.6 11.6,9.6 L11.6,9.6 C11.8209139,9.6 12,9.41445312 12,9.2 L12,9.2 C12,8.9790861 11.828772,8.8 11.5962524,8.8 L10.8037476,8.8 C10.5807639,8.8 10.4,8.98832397 10.4,9.19631119 L10.4,10.8036888 C10.4,11.0225654 10.2144531,11.2 10,11.2 L10,11.2 C9.7790861,11.2 9.6,11.028772 9.6,10.7962524 L9.6,10.0037476 C9.6,9.78076394 9.41445312,9.6 9.2,9.6 L9.2,9.6 C8.9790861,9.6 8.8,9.77122803 8.8,10.0037476 L8.8,10.7962524 C8.8,11.0192361 8.61445312,11.2 8.4,11.2 L8.4,11.2 C8.1790861,11.2 8,11.028772 8,10.7962524 L8,10.0037476 Z" id="Rectangle-456" fill="#FFFFFF" mask="url(#mask-3)"></path>
            <path d="M20.8,10.0037476 C20.8,9.78076394 20.925,9.475 21.0888184,9.31118164 L21.3111816,9.08881836 C21.4706916,8.92930838 21.475,8.675 21.3111816,8.51118164 L21.0888184,8.28881836 C20.9293084,8.12930838 20.8,7.82877197 20.8,7.59625244 L20.8,6.80374756 C20.8,6.58076394 20.971228,6.4 21.2037476,6.4 L21.9962524,6.4 C22.2192361,6.4 22.4,6.57122803 22.4,6.80374756 L22.4,7.59625244 C22.4,7.81923606 22.4796318,7.84073639 22.5775459,7.64490814 L23.0224541,6.75509186 C23.12051,6.55898004 23.388324,6.4 23.5963112,6.4 L25.2036888,6.4 C25.4225654,6.4 25.6,6.58554687 25.6,6.8 L25.6,6.8 C25.6,7.0209139 25.428772,7.2 25.1962524,7.2 L24.4037476,7.2 C24.1807639,7.2 24,7.38554687 24,7.6 L24,7.6 C24,7.8209139 24.171228,8 24.4037476,8 L25.1962524,8 C25.4192361,8 25.6,8.1720459 25.6,8.39238281 L25.6,10.8076172 C25.6,11.0243242 25.428772,11.2 25.1962524,11.2 L24.4037476,11.2 C24.1807639,11.2 24,11.028772 24,10.7962524 L24,10.0037476 C24,9.78076394 24.1855469,9.6 24.4,9.6 L24.4,9.6 C24.6209139,9.6 24.8,9.41445312 24.8,9.2 L24.8,9.2 C24.8,8.9790861 24.628772,8.8 24.3962524,8.8 L23.6037476,8.8 C23.3807639,8.8 23.2,8.98832397 23.2,9.19631119 L23.2,10.8036888 C23.2,11.0225654 23.0144531,11.2 22.8,11.2 L22.8,11.2 C22.5790861,11.2 22.4,11.028772 22.4,10.7962524 L22.4,10.0037476 C22.4,9.78076394 22.2144531,9.6 22,9.6 L22,9.6 C21.7790861,9.6 21.6,9.77122803 21.6,10.0037476 L21.6,10.7962524 C21.6,11.0192361 21.4144531,11.2 21.2,11.2 L21.2,11.2 C20.9790861,11.2 20.8,11.028772 20.8,10.7962524 L20.8,10.0037476 Z" id="Rectangle-456" fill="#FFFFFF" mask="url(#mask-3)"></path>
            <path d="M19.2,7.59625244 C19.2,7.81923606 19.075,8.125 18.9111816,8.28881836 L18.6888184,8.51118164 C18.5293084,8.67069162 18.525,8.925 18.6888184,9.08881836 L18.9111816,9.31118164 C19.0706916,9.47069162 19.2,9.77122803 19.2,10.0037476 L19.2,10.7962524 C19.2,11.0192361 19.028772,11.2 18.7962524,11.2 L18.0037476,11.2 C17.7807639,11.2 17.6,11.028772 17.6,10.7962524 L17.6,10.0037476 C17.6,9.78076394 17.5261719,9.74765625 17.4144531,9.97109375 L16.9855469,10.8289062 C16.8830722,11.0338557 16.611676,11.2 16.4036888,11.2 L14.7963112,11.2 C14.5774346,11.2 14.4,11.0144531 14.4,10.8 L14.4,10.8 C14.4,10.5790861 14.571228,10.4 14.8037476,10.4 L15.5962524,10.4 C15.8192361,10.4 16,10.2144531 16,10 L16,10 C16,9.7790861 15.828772,9.6 15.5962524,9.6 L14.8037476,9.6 C14.5807639,9.6 14.4,9.4279541 14.4,9.20761719 L14.4,6.79238281 C14.4,6.57567577 14.571228,6.4 14.8037476,6.4 L15.5962524,6.4 C15.8192361,6.4 16,6.57122803 16,6.80374756 L16,7.59625244 C16,7.81923606 15.8144531,8 15.6,8 L15.6,8 C15.3790861,8 15.2,8.18554687 15.2,8.4 L15.2,8.4 C15.2,8.6209139 15.371228,8.8 15.6037476,8.8 L16.3962524,8.8 C16.6192361,8.8 16.8,8.61167603 16.8,8.40368881 L16.8,6.79631119 C16.8,6.57743456 16.9855469,6.4 17.2,6.4 L17.2,6.4 C17.4209139,6.4 17.6,6.57122803 17.6,6.80374756 L17.6,7.59625244 C17.6,7.81923606 17.7855469,8 18,8 L18,8 C18.2209139,8 18.4,7.82877197 18.4,7.59625244 L18.4,6.80374756 C18.4,6.58076394 18.5855469,6.4 18.8,6.4 L18.8,6.4 C19.0209139,6.4 19.2,6.57122803 19.2,6.80374756 L19.2,7.59625244 L19.2,7.59625244 Z" id="Rectangle-456" fill="#FFFFFF" mask="url(#mask-3)"></path>
        </g>
        <rect id="Rectangle" stroke="#979797" x="0.5" y="0.5" width="33" height="23"></rect>
    </g>
</svg>