<?xml version="1.0" encoding="UTF-8"?>
<svg width="24px" height="24px" viewBox="0 0 24 24" version="1.1" xmlns="http://www.w3.org/2000/svg" xmlns:xlink="http://www.w3.org/1999/xlink">
    <!-- Generator: Sketch 58 (84663) - https://sketch.com -->
    <title>atoms/icons/24/social/a-ic-24-social-facebook-gray</title>
    <desc>Created with Sketch.</desc>
    <g id="atoms/icons/24/social/a-ic-24-social-facebook-gray" stroke="none" stroke-width="1" fill="none" fill-rule="evenodd">
        <path d="M17.8439131,4 L6.1560478,4 C4.96531918,4 4,4.96527295 4,6.15603198 L4,17.8438897 C4,19.0346488 4.96528004,20 6.1560478,20 L11.9204472,20 L11.9302714,14.2824153 L10.4448549,14.2824153 C10.2518145,14.2824153 10.0951356,14.1263246 10.0943919,13.9332857 L10.0872684,12.0902962 C10.0865247,11.8962005 10.2436733,11.7384659 10.4377705,11.7384659 L11.9204863,11.7384659 L11.9204863,9.95766999 C11.9204863,7.89107312 13.1826461,6.76579547 15.0261971,6.76579547 L16.5389728,6.76579547 C16.732522,6.76579547 16.8894749,6.9227081 16.8894749,7.116295 L16.8894749,8.67031322 C16.8894749,8.86382183 16.7326394,9.02069532 16.5391685,9.02081274 L15.6107979,9.02124329 C14.608217,9.02124329 14.4140808,9.49765649 14.4140808,10.196816 L14.4140808,11.738505 L16.617097,11.738505 C16.8270069,11.738505 16.98987,11.9217981 16.9651333,12.1302582 L16.7466908,13.9732477 C16.7257898,14.149613 16.5762345,14.2824936 16.3986545,14.2824936 L14.423905,14.2824936 L14.4140808,20 L17.8439913,20 C19.03472,20 20,19.034727 20,17.8440072 L20,6.15603198 C20,4.96527295 19.0346808,4 17.8439131,4 Z" id="Path" fill="#CCCCCC" fill-rule="nonzero"></path>
    </g>
</svg>