<?xml version="1.0" encoding="UTF-8"?>
<svg width="24px" height="24px" viewBox="0 0 24 24" version="1.1" xmlns="http://www.w3.org/2000/svg" xmlns:xlink="http://www.w3.org/1999/xlink">
    <!-- Generator: Sketch 58 (84663) - https://sketch.com -->
    <title>atoms/icons/24/social/a-ic-24-social-pinterest-gray</title>
    <desc>Created with Sketch.</desc>
    <g id="atoms/icons/24/social/a-ic-24-social-pinterest-gray" stroke="none" stroke-width="1" fill="none" fill-rule="evenodd">
        <path d="M12,3 C7.02975,3 3,7.02975 3,12 C3,15.813 5.37225,19.0695 8.72025,20.3805 C8.6415,19.66875 8.57025,18.576 8.75175,17.799 C8.91525,17.097 9.807,13.32525 9.807,13.32525 C9.807,13.32525 9.53775,12.786 9.53775,11.9895 C9.53775,10.73775 10.263,9.804 11.166,9.804 C11.934,9.804 12.3045,10.38075 12.3045,11.0715 C12.3045,11.844 11.81325,12.99825 11.559,14.06775 C11.34675,14.964 12.00825,15.6945 12.89175,15.6945 C14.4915,15.6945 15.72075,14.00775 15.72075,11.57325 C15.72075,9.4185 14.17275,7.91175 11.96175,7.91175 C9.40125,7.91175 7.89825,9.8325 7.89825,11.81775 C7.89825,12.591 8.196,13.4205 8.568,13.872 C8.6415,13.96125 8.652,14.03925 8.63025,14.13 C8.562,14.41425 8.4105,15.0255 8.3805,15.15075 C8.3415,15.31575 8.25,15.35025 8.07975,15.27075 C6.9555,14.74725 6.25275,13.104 6.25275,11.784 C6.25275,8.94525 8.31525,6.3375 12.1995,6.3375 C15.32175,6.3375 17.748,8.562 17.748,11.53575 C17.748,14.63775 15.792,17.13375 13.07775,17.13375 C12.16575,17.13375 11.3085,16.65975 11.01525,16.10025 C11.01525,16.10025 10.56375,17.8185 10.45425,18.24 C10.251,19.0215 9.70275,20.00175 9.33525,20.5995 C10.1775,20.859 11.07225,21 12,21 C16.97025,21 21,16.97025 21,12 C21,7.02975 16.97025,3 12,3 Z" id="Path" fill="#CCCCCC" fill-rule="nonzero"></path>
    </g>
</svg>