<?xml version="1.0" encoding="UTF-8"?>
<svg width="56px" height="56px" viewBox="0 0 56 56" version="1.1" xmlns="http://www.w3.org/2000/svg" xmlns:xlink="http://www.w3.org/1999/xlink">
    <!-- Generator: Sketch 58 (84663) - https://sketch.com -->
    <title>atoms/buttons/a-buttons-close-menu-grey</title>
    <desc>Created with Sketch.</desc>
    <g id="atoms/buttons/a-buttons-close-menu-grey" stroke="none" stroke-width="1" fill="none" fill-rule="evenodd">
        <g id="atoms/icons/32/a-ic-32-hamburger-expanded" transform="translate(12.000000, 12.000000)" fill="#999999">
            <path d="M25.5600126,6.43998743 C26.1466625,7.02663733 26.1466625,7.97778476 25.5600126,8.56443467 L18.1244472,16 L25.5600126,23.4355653 C26.1466625,24.0222152 26.1466625,24.9733627 25.5600126,25.5600126 C24.9733627,26.1466625 24.0222152,26.1466625 23.4355653,25.5600126 L15.9992919,18.1237391 L8.56443467,25.5600126 C7.97778476,26.1466625 7.02663733,26.1466625 6.43998743,25.5600126 C5.85333752,24.9733627 5.85333752,24.0222152 6.43998743,23.4355653 L13.8748446,15.9992919 L6.43998743,8.56443467 C5.85333752,7.97778476 5.85333752,7.02663733 6.43998743,6.43998743 C7.02663733,5.85333752 7.97778476,5.85333752 8.56443467,6.43998743 L16,13.8755528 L23.4355653,6.43998743 C24.0222152,5.85333752 24.9733627,5.85333752 25.5600126,6.43998743 Z" id="Path"></path>
        </g>
    </g>
</svg>