<?xml version="1.0" encoding="UTF-8"?>
<svg width="16px" height="16px" viewBox="0 0 16 16" version="1.1" xmlns="http://www.w3.org/2000/svg" xmlns:xlink="http://www.w3.org/1999/xlink">
    <!-- Generator: Sketch 58 (84663) - https://sketch.com -->
    <title>atoms/icons/24/social/a-ic-24-social-instagram-gray</title>
    <desc>Created with Sketch.</desc>
    <g id="Symbols" stroke="none" stroke-width="1" fill="none" fill-rule="evenodd">
        <g id="organisms/header/o-header" transform="translate(-1268.000000, -68.000000)" fill="#CCCCCC" fill-rule="nonzero">
            <g id="atoms/icons/24/social/a-ic-24-social-instagram-gray" transform="translate(1264.000000, 64.000000)">
                <path d="M15.9208687,4 C15.9211567,4.00283468 15.9222148,4.00553673 15.9239285,4.00781394 C16.4410446,4.00713447 16.9568007,4.03567233 17.4609974,4.17156694 C18.0087833,4.3185566 18.5094538,4.60404438 18.9147702,5.00052404 C19.1830949,5.2586025 19.4079943,5.55824983 19.5807994,5.88791583 C19.7467117,6.20081316 19.8395274,6.53817152 19.9054844,6.88436303 C19.957018,7.16788476 19.9834125,7.45539785 19.9843607,7.74355668 C19.9857207,7.848875 19.99966,15.799389 20,15.8360805 L20,15.8360805 L20,15.9298478 C19.9952402,16.3997034 19.9687214,16.8682001 19.8616264,17.329902 C19.698094,18.0362142 19.3360107,18.6212405 18.7995155,19.0995895 C18.3472925,19.5053513 17.7902864,19.7762951 17.1917299,19.881663 C16.8752239,19.9424245 16.5541706,19.9765179 16.2319543,19.9835839 C13.7929071,20.0161986 11.3535199,19.9883402 8.91447271,19.9985323 C8.57856824,20 8.24334375,19.9913979 7.90743928,19.9893595 C7.36924417,19.9863018 6.8388687,19.9227711 6.32481248,19.7569797 C5.97576734,19.6411063 5.64993498,19.464565 5.36231699,19.2354841 C4.95939055,18.9233972 4.6307759,18.525866 4.40016149,18.0715468 C4.22676951,17.7324898 4.13599371,17.368632 4.07241665,16.9949218 C4.01257942,16.6429548 4.00951956,16.2845327 4,15.9295081 L4,15.9295081 L4.00543975,8.05883217 C4.00611972,7.54515056 4.03535836,7.03520605 4.16931217,6.53511389 C4.31727378,5.98531647 4.60504174,5.48311359 5.00465353,5.0773045 C5.35326545,4.71265812 5.78061076,4.43238445 6.25409575,4.25786002 C6.55853805,4.15177648 6.87419838,4.08109821 7.19483224,4.04722338 C7.48721872,4.01087157 7.78198508,4.01324972 8.07607148,4.00781394 L8.07607148,4.00781394 L8.07607148,4 Z M14.2688851,6.07137355 L9.73077495,6.07137355 C7.70877073,6.07380713 6.07021973,7.71116407 6.06778436,9.73169478 L6.06778436,9.73169478 L6.06778436,14.2664978 C6.07021973,16.2870285 7.70877073,17.9243855 9.73077495,17.9268191 L9.73077495,17.9268191 L14.2688851,17.9268191 C16.2907565,17.9241983 17.9291007,16.2868961 17.9315357,14.2664978 L17.9315357,14.2664978 L17.9318757,9.73169478 C17.9294403,7.71116407 16.2908893,6.07380713 14.2688851,6.07137355 L14.2688851,6.07137355 Z M9.69081724,7 L14.3091828,7 C15.7374385,7.00165 16.9052738,8.11461591 16.99452,9.52072894 L17,9.69081724 L17,14.3091828 C16.99835,15.7374385 15.8853841,16.9052738 14.4792711,16.99452 L14.3091828,17 L9.69081724,17 C8.26256152,16.99835 7.09472615,15.8853841 7.00547995,14.4792711 L7,14.3091828 L7,9.69081724 C7.00165,8.26256152 8.11461591,7.09472615 9.52072894,7.00547995 L9.69081724,7 L14.3091828,7 Z M12,9.0002076 C10.3432604,9.0002076 9.0002076,10.3432604 9.0002076,12 C9.0002076,13.6567396 10.3432604,14.9997924 12,14.9997924 C13.6559492,14.9978857 14.9978857,13.6559492 14.9997924,12 C14.9997924,10.3432604 13.6567396,9.0002076 12,9.0002076 Z M12,10 C13.1040058,10.0013597 13.9986403,10.8959942 14,12 C14,13.1045695 13.1045695,14 12,14 C10.8954305,14 10,13.1045695 10,12 C10,10.8954305 10.8954305,10 12,10 Z M15.2956206,7.97328904 C14.886635,7.97367129 14.5553425,8.30542795 14.5555332,8.71441374 C14.5557082,9.08931739 14.8343603,9.39906731 15.1958244,9.44808911 L15.2963117,9.45484742 C15.4930186,9.45519341 15.6816487,9.37695765 15.8206116,9.23773513 C15.9595745,9.09851261 16.0374584,8.90973678 16.0370922,8.71303024 C16.0365178,8.3040448 15.7046063,7.97290745 15.2956206,7.97328904 Z" id="Combined-Shape"></path>
            </g>
        </g>
    </g>
</svg>