<?xml version="1.0" encoding="UTF-8"?>
<svg width="16px" height="16px" viewBox="0 0 16 16" version="1.1" xmlns="http://www.w3.org/2000/svg" xmlns:xlink="http://www.w3.org/1999/xlink">
    <!-- Generator: Sketch 58 (84663) - https://sketch.com -->
    <title>atoms/icons/24/social/a-ic-24-social-linkedin-gray</title>
    <desc>Created with Sketch.</desc>
    <g id="Symbols" stroke="none" stroke-width="1" fill="none" fill-rule="evenodd">
        <g id="organisms/header/o-header" transform="translate(-1316.000000, -68.000000)" fill="#CCCCCC" fill-rule="nonzero">
            <g id="atoms/icons/24/social/a-ic-24-social-linkedin-gray" transform="translate(1312.000000, 64.000000)">
                <path d="M18.5526702,4 L5.44732984,4 C4.648,4 4,4.648 4,5.44732984 L4,18.5526283 C4,19.352 4.648,20 5.44732984,20 L18.5526283,20 C19.352,20 20,19.352 20,18.5526283 L20,5.44732984 C20,4.648 19.352,4 18.5526702,4 Z M8.95107853,17.8154555 C8.95107853,18.0480838 8.76251309,18.2366492 8.52988482,18.2366492 L6.73696335,18.2366492 C6.50433508,18.2366492 6.31576963,18.0480838 6.31576963,17.8154555 L6.31576963,10.2996021 C6.31576963,10.0669738 6.50433508,9.87840838 6.73696335,9.87840838 L8.52988482,9.87840838 C8.76251309,9.87840838 8.95107853,10.0669738 8.95107853,10.2996021 L8.95107853,17.8154555 Z M7.63342408,9.1699267 C6.69273298,9.1699267 5.93013613,8.40732984 5.93013613,7.46663874 C5.93013613,6.52594764 6.69273298,5.76335079 7.63342408,5.76335079 C8.57411518,5.76335079 9.33671204,6.52594764 9.33671204,7.46663874 C9.33671204,8.40732984 8.57415707,9.1699267 7.63342408,9.1699267 Z M18.3208388,17.8493822 C18.3208388,18.0632461 18.1474346,18.2366492 17.9335707,18.2366492 L16.0096335,18.2366492 C15.7957696,18.2366492 15.6223665,18.0632461 15.6223665,17.8493822 L15.6223665,14.3240209 C15.6223665,13.7981152 15.7766283,12.0194764 14.248,12.0194764 C13.0622827,12.0194764 12.8217801,13.2369005 12.7734869,13.7832461 L12.7734869,17.8493822 C12.7734869,18.0632461 12.6001257,18.2366492 12.3862199,18.2366492 L10.525445,18.2366492 C10.3115812,18.2366492 10.138178,18.0632461 10.138178,17.8493822 L10.138178,10.2656754 C10.138178,10.0518115 10.3115812,9.87840838 10.525445,9.87840838 L12.3862199,9.87840838 C12.6000838,9.87840838 12.7734869,10.0518115 12.7734869,10.2656754 L12.7734869,10.9213822 C13.2131518,10.2615707 13.866555,9.75229319 15.2577592,9.75229319 C18.3384712,9.75229319 18.3208388,12.6304503 18.3208388,14.2118534 L18.3208388,17.8493822 L18.3208388,17.8493822 Z" id="Shape"></path>
            </g>
        </g>
    </g>
</svg>