<?xml version="1.0" encoding="UTF-8"?>
<svg width="108px" height="35px" viewBox="0 0 108 35" version="1.1" xmlns="http://www.w3.org/2000/svg" xmlns:xlink="http://www.w3.org/1999/xlink">
    <!-- Generator: Sketch 58 (84663) - https://sketch.com -->
    <title>atoms/other/logos/a-logo-uxda</title>
    <desc>Created with Sketch.</desc>
    <g id="Symbols" stroke="none" stroke-width="1" fill="none" fill-rule="evenodd">
        <g id="organisms/header/o-header" transform="translate(-56.000000, -59.000000)" fill="#000000">
            <g id="atoms/other/logos/a-logo-uxda" transform="translate(56.000000, 56.000000)">
                <g id="small" transform="translate(0.000000, 3.000000)">
                    <path d="M72.9947332,18.9895442 C75.0884219,18.9895442 76.7926206,17.2831559 76.7926206,15.1866776 L76.7926206,6.82057979 C76.7926206,4.72419329 75.0883444,3.01771319 72.9947332,3.01771319 L60.8207896,3.01771319 L60.8207896,18.9895442 L72.9947332,18.9895442 Z M73.0365738,22.0563497 L59.3106054,22.0563497 C58.4779549,22.0563497 57.8029183,21.3830528 57.8029183,20.5526417 L57.8029183,1.50355047 C57.8029183,0.673168055 58.4779262,1.16788749e-05 59.3106054,1.16788749e-05 L73.0365738,1.16788749e-05 C76.7992657,1.16788749e-05 79.8592563,3.05225216 79.8592563,6.80545368 L79.8592563,15.2507385 C79.8592563,19.0040734 76.7993016,22.0563497 73.0365738,22.0563497 Z M15.2675583,22.056338 L6.7889485,22.056338 C3.04500514,22.056338 0,18.998426 0,15.2385041 L0,1.50835234 C0,0.675311422 0.672579044,5.68434189e-14 1.50226198,5.68434189e-14 C2.33169318,5.68434189e-14 3.00418649,0.675397502 3.00418649,1.50835234 L3.00418649,15.2385041 C3.00418649,17.3339144 4.70239107,19.0392944 6.7889485,19.0392944 L15.2675583,19.0392944 C17.3541611,19.0392944 19.052489,17.3338688 19.052489,15.2385041 L19.052489,1.50835234 C19.052489,0.675325808 19.7248849,5.68434189e-14 20.5544135,5.68434189e-14 C21.3839421,5.68434189e-14 22.056338,0.675325808 22.056338,1.50835234 L22.056338,15.2385041 C22.056338,18.998466 19.0114618,22.056338 15.2675583,22.056338 Z M31.4333579,21.6218589 C31.1538083,21.9014068 30.7778205,22.056338 30.384696,22.056338 C29.9915715,22.056338 29.6155837,21.9014068 29.3360341,21.6218589 C28.756683,21.0425113 28.756683,20.1038204 29.3360341,19.5242044 L37.8322026,11.0280867 L29.3361593,2.53201994 C28.7566061,1.95247028 28.7565845,1.0135669 29.3360674,0.434624171 C29.9152597,-0.144833067 30.8540921,-0.144855143 31.4334813,0.434530578 L39.9296888,8.93061299 L48.4258203,0.434532312 C49.005174,-0.144817966 49.9439356,-0.144839626 50.5232191,0.434440473 C51.1026666,1.01361608 51.1026883,1.95237781 50.523311,2.53201994 L42.0271934,11.0280867 L50.5236198,19.5243881 C51.1026114,20.1039128 51.1025681,21.0424621 50.5234362,21.6218589 C50.2438866,21.9014068 49.8678988,22.056338 49.4747743,22.056338 C49.081727,22.056338 48.7058122,21.9014649 48.4259438,21.6218572 L39.9296888,13.1255788 L31.4333579,21.6218589 Z M87.9930745,21.2361923 C87.6275745,21.9685373 86.737774,22.2650783 86.0028977,21.8996518 C85.2706185,21.5328392 84.9738702,20.6424535 85.3398677,19.9096494 L94.8844541,0.819864411 C95.1354887,0.317523695 95.6493371,1.16788749e-05 96.2111321,1.16788749e-05 C96.7729313,1.16788749e-05 97.2865914,0.317358965 97.5379242,0.819758921 L107.082764,19.9097176 C107.449041,20.6425434 107.152155,21.5329694 106.418742,21.9002139 C106.211765,22.0033124 105.986111,22.0563497 105.756604,22.0563497 C105.1957,22.0563497 104.681333,21.7404814 104.429312,21.2364373 L96.2111321,4.79998143 L87.9930745,21.2361923 Z" id="Combined-Shape" fill-rule="nonzero"></path>
                    <path d="M85.1830986,29.6619718 L85.1830986,30.4964419 L82.9010525,30.4964419 L82.9010525,31.5462361 L85.1013031,31.5462361 L85.1013031,32.3476613 L82.9010525,32.3476613 L82.9010525,33.3780905 L85.1830986,33.3780905 L85.1830986,34.2253521 L82.1408451,34.2253521 L82.1408451,29.6619718 L85.1830986,29.6619718 Z M36.9034141,29.6619718 C37.5952915,29.6619718 38.3126017,29.8530415 38.6491112,30.5170923 L37.9823207,30.8492854 C37.8300696,30.6029061 37.4110331,30.3699352 36.928674,30.3699352 C36.3065207,30.3699352 36.0082469,30.6216778 36.0082469,30.9413005 C36.0082469,31.3169032 36.4650002,31.4214887 36.998398,31.4826645 C37.9252265,31.5932838 38.7887324,31.8270927 38.7887324,32.8540083 C38.7887324,33.8137143 37.9125966,34.2253521 36.9222725,34.2253521 C36.0143024,34.2253521 35.3161965,33.9548377 34.9859155,33.1677648 L35.6843674,32.8168 C35.8809097,33.2907868 36.3952761,33.4999578 36.9349024,33.4999578 C37.4618988,33.4999578 37.9570608,33.3216262 37.9570608,32.8540083 C37.9570608,32.4477339 37.5188199,32.2819726 36.928674,32.2207968 C36.0208769,32.1162113 35.1828038,31.8824024 35.1828038,30.9166626 C35.1828038,30.0308704 36.0841995,29.667838 36.9034141,29.6619718 Z M69.6367084,29.6619718 L71.4929577,34.2253521 L70.6415928,34.2253521 L70.2928313,33.364766 L68.1292207,33.364766 L67.7744987,34.2253521 L66.9295775,34.2253521 L68.7851824,29.6619718 L69.6367084,29.6619718 Z M43.3521127,29.6619718 L43.3521127,34.2253521 L42.5915493,34.2253521 L42.5915493,29.6619718 L43.3521127,29.6619718 Z M98.8064167,29.6619718 C99.373588,29.6619718 99.9106599,29.8875006 100.340675,30.3314039 L99.8156432,30.862691 C99.5410061,30.5812911 99.1705388,30.4497894 98.8064167,30.4497894 C97.797353,30.4497894 97.3614804,31.2376071 97.3679884,31.9687018 C97.3738456,32.6936643 97.7734361,33.4504803 98.8064167,33.4504803 C99.1705388,33.4504803 99.5823318,33.2941091 99.8571317,33.0064066 L100.394366,33.574998 C99.9643508,34.0189013 99.4097074,34.2253521 98.8064167,34.2253521 C97.2542612,34.2253521 96.5974424,33.1065659 96.5915493,31.9687018 C96.585728,30.8248758 97.2962378,29.6619718 98.8064167,29.6619718 Z M76.7034588,29.6619718 C77.2542238,29.6619718 77.8049887,29.885503 78.2270448,30.3253 L77.7465427,30.8463658 C77.4710805,30.5677544 77.0606815,30.4126512 76.7034588,30.4126512 C75.8245345,30.4126512 75.2910159,31.1188946 75.2910159,32.0118364 C75.2910159,32.7248382 75.6836894,33.4626768 76.7034588,33.4626768 C77.0257098,33.4626768 77.3069209,33.3881664 77.6293315,33.1156375 L77.6293315,32.3462038 L76.5803392,32.3462038 L76.5803392,31.6151236 L78.3380282,31.6151236 L78.3380282,33.4439224 C77.9338571,33.9339 77.4241321,34.2253521 76.7034588,34.2253521 C75.1621475,34.2253521 74.5352113,33.1524703 74.5352113,32.0118364 C74.5352113,30.7906097 75.2560442,29.6619718 76.7034588,29.6619718 Z M0.811164086,29.6619718 L0.811164086,32.2246823 C0.811164086,33.0302101 1.2572537,33.4579671 1.93221108,33.4579671 C2.60733725,33.4579671 2.99114647,32.9915448 2.99114647,32.2246823 L2.99114647,29.6619718 L3.8028169,29.6619718 L3.8028169,32.2246823 C3.8028169,33.5480121 3.01612614,34.2253521 1.92613495,34.2253521 C0.885765527,34.2253521 0,33.5734406 0,32.2246823 L0,29.6619718 L0.811164086,29.6619718 Z M93.5492958,29.6619718 L93.5492958,34.2189742 L93.0136426,34.2189742 L93.0136426,34.2253521 L90.6090799,31.1508548 L90.6090799,34.2189742 L89.7464789,34.2189742 L89.7464789,29.6683497 L90.445606,29.6683497 L92.6866947,32.4898574 L92.6866947,29.6619718 L93.5492958,29.6619718 Z M49.3227891,29.6619718 C49.8735772,29.6619718 50.4243652,29.885503 50.8464391,30.3253 L50.3660765,30.8463658 C50.0906027,30.5677544 49.6803462,30.4126512 49.3227891,30.4126512 C48.4439876,30.4126512 47.9106063,31.1188946 47.9106063,32.0118364 C47.9106063,32.7248382 48.3032963,33.4626768 49.3227891,33.4626768 C49.6450536,33.4626768 49.9265959,33.3881664 50.2487007,33.1156375 L50.2487007,32.3462038 L49.1996643,32.3462038 L49.1996643,31.6151236 L50.9577465,31.6151236 L50.9577465,33.4439224 C50.5535584,33.9339 50.0436523,34.2253521 49.3227891,34.2253521 C47.7817324,34.2253521 47.1549296,33.1524703 47.1549296,32.0118364 C47.1549296,30.7906097 47.8753137,29.6619718 49.3227891,29.6619718 Z M58.5633803,29.6619718 L58.5633803,34.2189742 L58.0277271,34.2189742 L58.0277271,34.2253521 L55.6231644,31.1508548 L55.6231644,34.2189742 L54.7605634,34.2189742 L54.7605634,29.6683497 L55.4596905,29.6683497 L57.7011354,32.4898574 L57.7011354,29.6619718 L58.5633803,29.6619718 Z M104.490495,29.6619718 L105.684473,31.5461318 L106.933138,29.6619718 L108,29.6619718 L108,29.7014139 L106.127825,32.3411922 L106.127825,34.2253521 L105.241853,34.2253521 L105.241853,32.3411922 L103.43662,29.7014139 L103.43662,29.6619718 L104.490495,29.6619718 Z M8.48966712,29.6619718 L9.50727994,31.363246 L10.5247343,29.6619718 L11.3677272,29.6619718 L11.3677272,29.7015901 L9.98978244,31.9173683 L11.4084507,34.1990584 L11.4084507,34.2253521 L10.5478691,34.2253521 L9.50727994,32.5103981 L8.46653235,34.2253521 L7.6056338,34.2253521 L7.6056338,34.1990584 L9.01859761,31.9173683 L7.64667425,29.7015901 L7.64667425,29.6619718 L8.48966712,29.6619718 Z M22.2082978,29.6619718 C23.6683315,29.6619718 24.3192619,30.7766554 24.3376656,31.904131 C24.3557378,33.0584344 23.6988387,34.2253521 22.2082978,34.2253521 L20.5352113,34.2253521 L20.5352113,29.6619718 L22.2082978,29.6619718 Z M31.1830986,29.6619718 L31.1830986,30.4964419 L28.9012502,30.4964419 L28.9012502,31.5462361 L31.1017735,31.5462361 L31.1017735,32.3476613 L28.9012502,32.3476613 L28.9012502,33.3780905 L31.1830986,33.3780905 L31.1830986,34.2253521 L28.1408451,34.2253521 L28.1408451,29.6619718 L31.1830986,29.6619718 Z M22.2082978,30.4767533 L21.3320455,30.4767533 L21.3320455,33.3972456 L22.2082978,33.3972456 C23.1754085,33.3972456 23.5589036,32.6410943 23.540334,31.8979127 C23.5222618,31.1874218 23.1329637,30.4767533 22.2082978,30.4767533 Z M69.2109454,30.6200934 L68.4427034,32.5628078 L69.9796707,32.5628078 L69.2109454,30.6200934 Z" id="Combined-Shape"></path>
                </g>
            </g>
        </g>
    </g>
</svg>