<?xml version="1.0" encoding="UTF-8"?>
<svg width="34px" height="24px" viewBox="0 0 34 24" version="1.1" xmlns="http://www.w3.org/2000/svg" xmlns:xlink="http://www.w3.org/1999/xlink">
    <!-- Generator: Sketch 58 (84663) - https://sketch.com -->
    <title>flag</title>
    <desc>Created with Sketch.</desc>
    <defs>
        <rect id="path-1" x="0" y="0" width="34" height="24" rx="2"></rect>
    </defs>
    <g id="Symbols" stroke="none" stroke-width="1" fill="none" fill-rule="evenodd">
        <g id="atoms/list/a-list-country-left">
            <g id="atoms/flags/a-flags-uk">
                <g id="GB" fill-rule="evenodd">
                    <mask id="mask-2" fill="white">
                        <use xlink:href="#path-1"></use>
                    </mask>
                    <use id="Mask" fill="#FFFFFF" xlink:href="#path-1"></use>
                    <rect id="Mask-Copy" fill="#0A17A7" mask="url(#mask-2)" x="0" y="0" width="34" height="24"></rect>
                    <path d="M-1.55728403,26.2997355 L-3.3680039,23.6468152 L8.1039961,15.9992645 L-1.77635684e-15,16 L-1.77635684e-15,8 L8.1039961,7.99926452 L-3.3680039,0.353184756 L-1.55728403,-2.29973548 L12.9519961,7.37226452 L12.952381,-1.6 L21.047619,-1.6 L21.0469961,7.37226452 L35.557284,-2.29973548 L37.3680039,0.353184756 L25.8959961,7.99926452 L34,8 L34,16 L25.8949961,15.9992645 L37.3680039,23.6468152 L35.557284,26.2997355 L21.0469961,16.6272645 L21.047619,25.6 L12.952381,25.6 L12.9519961,16.6272645 L-1.55728403,26.2997355 Z" id="Rectangle-2" fill="#FFFFFF" mask="url(#mask-2)"></path>
                    <path d="M22.6682478,7.59863281 L38.047619,-2.4" id="Line" stroke="#DB1F35" stroke-width="0.666666667" stroke-linecap="round" mask="url(#mask-2)"></path>
                    <path d="M24.3012288,25.6204102 L38.0880359,16.4370117" id="Line-Copy-2" stroke="#DB1F35" stroke-width="0.666666667" stroke-linecap="round" mask="url(#mask-2)" transform="translate(31.194632, 21.028711) scale(1, -1) translate(-31.194632, -21.028711) "></path>
                    <path d="M9.72100539,7.57255859 L-4.65980166,-2.00517578" id="Line-Copy" stroke="#DB1F35" stroke-width="0.666666667" stroke-linecap="round" mask="url(#mask-2)"></path>
                    <path d="M11.2807617,26.7725586 L-4.65980166,16.3258789" id="Line-Copy-3" stroke="#DB1F35" stroke-width="0.666666667" stroke-linecap="round" mask="url(#mask-2)" transform="translate(3.310480, 21.549219) scale(1, -1) translate(-3.310480, -21.549219) "></path>
                    <polygon id="Rectangle-2-Copy-3" fill="#E6273E" mask="url(#mask-2)" points="0 14.4 14.5714286 14.4 14.5714286 24 19.4285714 24 19.4285714 14.4 34 14.4 34 9.6 19.4285714 9.6 19.4285714 0 14.5714286 0 14.5714286 9.6 0 9.6"></polygon>
                </g>
                <rect id="Rectangle" stroke="#979797" x="0.5" y="0.5" width="33" height="23"></rect>
            </g>
        </g>
    </g>
</svg>