<?xml version="1.0" standalone="no"?>
<!DOCTYPE svg PUBLIC "-//W3C//DTD SVG 20010904//EN"
 "http://www.w3.org/TR/2001/REC-SVG-20010904/DTD/svg10.dtd">
<svg version="1.0" xmlns="http://www.w3.org/2000/svg"
 width="300.000000pt" height="300.000000pt" viewBox="0 0 300.000000 300.000000"
 preserveAspectRatio="xMidYMid meet">
<metadata>
Created by potrace 1.11, written by Peter Selinger 2001-2013
</metadata>
<g transform="translate(0.000000,300.000000) scale(0.100000,-0.100000)"
fill="#000000" stroke="none">
<path d="M0 1500 l0 -1500 1500 0 1500 0 0 1500 0 1500 -1500 0 -1500 0 0
-1500z m2800 0 l0 -1300 -1300 0 -1300 0 0 1300 0 1300 1300 0 1300 0 0 -1300z"/>
<path d="M564 1971 c-2 -2 -4 -202 -4 -444 l0 -439 31 -29 c17 -16 36 -30 43
-30 6 -1 144 -2 306 -3 268 -1 298 1 332 17 29 15 40 28 47 55 5 21 9 223 8
457 l-2 419 -110 1 -110 0 -1 -362 c-1 -199 -4 -368 -6 -375 -4 -10 -39 -13
-149 -11 -79 0 -149 2 -154 2 -7 1 -10 128 -10 371 0 243 -3 370 -10 371 -29
4 -207 3 -211 0z"/>
<path d="M1514 1968 c-3 -4 64 -105 147 -225 84 -120 154 -226 156 -235 3 -10
-53 -101 -146 -236 -83 -121 -153 -226 -156 -234 -4 -11 20 -13 137 -13 l142
0 48 70 c27 39 67 96 89 128 23 32 44 56 47 52 4 -3 45 -61 92 -128 l85 -121
138 -1 c76 0 140 2 142 6 2 3 -68 110 -156 237 l-160 232 68 97 c37 54 100
145 139 203 40 58 82 118 94 133 12 15 20 30 17 33 -2 3 -67 5 -143 6 -127 1
-139 -1 -153 -20 -14 -18 -128 -185 -152 -222 -12 -19 -27 -2 -124 139 -38 55
-72 101 -75 101 -62 5 -273 3 -276 -2z"/>
</g>
</svg>
