<?xml version="1.0" encoding="UTF-8"?>
<svg width="80px" height="76px" viewBox="0 0 80 76" version="1.1" xmlns="http://www.w3.org/2000/svg" xmlns:xlink="http://www.w3.org/1999/xlink">
    <!-- Generator: Sketch 55.2 (78181) - https://sketchapp.com -->
    <title>Group 4</title>
    <desc>Created with Sketch.</desc>
    <g id="DESKTOP-FINAL" stroke="none" stroke-width="1" fill="none" fill-rule="evenodd">
        <g id="Desktop-process" transform="translate(-873.000000, -2370.000000)" fill="#666666" fill-rule="nonzero">
            <g id="benefit" transform="translate(152.000000, 1634.000000)">
                <g id="img-BUP" transform="translate(480.000000, 336.000000)">
                    <g id="Group-4" transform="translate(241.215000, 397.000000)">
                        <path d="M7.812,71.466 C8.748,72.06 9.36,73.032 9.36,74.31 C9.36,76.542 7.542,78 5.292,78 L-1.42108547e-14,78 L-1.42108547e-14,65.4 L4.932,65.4 C7.128,65.4 8.91,66.822 8.91,69 C8.91,70.044 8.496,70.872 7.812,71.466 Z M4.932,68.1 L2.88,68.1 L2.88,70.332 L4.932,70.332 C5.58,70.332 6.03,69.864 6.03,69.216 C6.03,68.568 5.598,68.1 4.932,68.1 Z M5.292,75.3 C6.012,75.3 6.48,74.796 6.48,74.094 C6.48,73.392 6.012,72.888 5.292,72.888 L2.88,72.888 L2.88,75.3 L5.292,75.3 Z M15.57,78.252 C12.798,78.252 10.71,76.632 10.71,73.932 L10.71,65.4 L13.59,65.4 L13.59,73.68 C13.59,74.634 14.04,75.444 15.57,75.444 C17.1,75.444 17.55,74.634 17.55,73.68 L17.55,65.4 L20.43,65.4 L20.43,73.932 C20.43,76.632 18.342,78.252 15.57,78.252 Z M26.91,78.252 C24.264,78.252 22.572,76.992 21.87,75.138 L24.354,73.698 C24.804,74.742 25.578,75.444 27,75.444 C28.368,75.444 28.71,74.904 28.71,74.418 C28.71,73.644 27.99,73.338 26.1,72.816 C24.228,72.294 22.392,71.394 22.392,68.982 C22.392,66.552 24.444,65.148 26.622,65.148 C28.692,65.148 30.312,66.138 31.23,67.992 L28.8,69.414 C28.368,68.514 27.774,67.956 26.622,67.956 C25.722,67.956 25.272,68.406 25.272,68.91 C25.272,69.486 25.578,69.882 27.54,70.476 C29.448,71.052 31.59,71.718 31.59,74.382 C31.59,76.812 29.646,78.252 26.91,78.252 Z M33.03,65.4 L35.91,65.4 L35.91,78 L33.03,78 L33.03,65.4 Z M45.09,65.4 L47.97,65.4 L47.97,78 L45.81,78 L40.95,71.16 L40.95,78 L38.07,78 L38.07,65.4 L40.23,65.4 L45.09,72.24 L45.09,65.4 Z M53.01,75.228 L58.05,75.228 L58.05,78 L50.13,78 L50.13,65.4 L57.96,65.4 L57.96,68.172 L53.01,68.172 L53.01,70.26 L57.51,70.26 L57.51,72.996 L53.01,72.996 L53.01,75.228 Z M64.08,78.252 C61.434,78.252 59.742,76.992 59.04,75.138 L61.524,73.698 C61.974,74.742 62.748,75.444 64.17,75.444 C65.538,75.444 65.88,74.904 65.88,74.418 C65.88,73.644 65.16,73.338 63.27,72.816 C61.398,72.294 59.562,71.394 59.562,68.982 C59.562,66.552 61.614,65.148 63.792,65.148 C65.862,65.148 67.482,66.138 68.4,67.992 L65.97,69.414 C65.538,68.514 64.944,67.956 63.792,67.956 C62.892,67.956 62.442,68.406 62.442,68.91 C62.442,69.486 62.748,69.882 64.71,70.476 C66.618,71.052 68.76,71.718 68.76,74.382 C68.76,76.812 66.816,78.252 64.08,78.252 Z M74.61,78.252 C71.964,78.252 70.272,76.992 69.57,75.138 L72.054,73.698 C72.504,74.742 73.278,75.444 74.7,75.444 C76.068,75.444 76.41,74.904 76.41,74.418 C76.41,73.644 75.69,73.338 73.8,72.816 C71.928,72.294 70.092,71.394 70.092,68.982 C70.092,66.552 72.144,65.148 74.322,65.148 C76.392,65.148 78.012,66.138 78.93,67.992 L76.5,69.414 C76.068,68.514 75.474,67.956 74.322,67.956 C73.422,67.956 72.972,68.406 72.972,68.91 C72.972,69.486 73.278,69.882 75.24,70.476 C77.148,71.052 79.29,71.718 79.29,74.382 C79.29,76.812 77.346,78.252 74.61,78.252 Z" id="BUSINESS"></path>
                        <g id="atoms/icons/56/a-ic-56-product" transform="translate(10.785000, 0.000000)">
                            <path d="M33,3 C35.1087236,3 36.8363302,4.63175558 36.9890285,6.70147531 L37,7 L37.0014059,11.171203 C37.8530244,11.4726869 38.527966,12.1478461 38.8291544,12.9996043 L47,13 C49.6509668,13 51.8200773,15.0630719 51.9893646,17.6712486 L52,18 L52,45 C52,47.6509668 49.9369281,49.8200773 47.3287514,49.9893646 L47,50 L5,50 C2.3490332,50 0.179922656,47.9369281 0.0106353594,45.3287514 L0,45 L0,18 C0,15.3490332 2.06307187,13.1799227 4.67124862,13.0106354 L5,13 L13.1710348,12.9990694 C13.4725514,12.1468999 14.1482059,11.471572 15.0005849,11.170499 L15,7 C15,4.89127641 16.6317556,3.16366976 18.7014753,3.01097147 L19,3 L33,3 Z M44,29 C44,30.6568542 42.6568542,32 41,32 L37,32 C35.3431458,32 34,30.6568542 34,29 L19,29 C19,30.6568542 17.6568542,32 16,32 L11,32 C9.34314575,32 8,30.6568542 8,29 L2,29 L2,45 C2,46.5593922 3.18977617,47.8408974 4.71107998,47.9862668 L5,48 L47,48 C48.5593922,48 49.8408974,46.8102238 49.9862668,45.28892 L50,45 L50,29 L44,29 Z M16,26 L11,26 C10.4477153,26 10,26.4477153 10,27 L10,29 C10,29.5522847 10.4477153,30 11,30 L16,30 C16.5522847,30 17,29.5522847 17,29 L17,27 C17,26.4477153 16.5522847,26 16,26 Z M41,26 L37,26 C36.4477153,26 36,26.4477153 36,27 L36,29 C36,29.5522847 36.4477153,30 37,30 L41,30 C41.5522847,30 42,29.5522847 42,29 L42,27 C42,26.4477153 41.5522847,26 41,26 Z M20,13 L16,13 C15.4477153,13 15,13.4477153 15,14 C15,14.5522847 15.4477153,15 16,15 L20,15 C20.5522847,15 21,14.5522847 21,14 C21,13.4477153 20.5522847,13 20,13 Z M36,13 L32,13 C31.4477153,13 31,13.4477153 31,14 C31,14.5522847 31.4477153,15 32,15 L36,15 C36.5522847,15 37,14.5522847 37,14 C37,13.4477153 36.5522847,13 36,13 Z M30,9 L22,9 C21.5090802,9 21.1007833,9.35375032 21.0161113,9.82024874 L21,10 L21.0014059,11.171203 C21.8530244,11.4726869 22.527966,12.1478461 22.8291544,12.9996043 L29.1710348,12.9990694 C29.4725514,12.1468999 30.1482059,11.471572 31.0005849,11.170499 L31,10 C31,9.50908022 30.6462497,9.10078326 30.1797513,9.01611134 L30,9 Z M33,5 L19,5 C17.9743283,5 17.1289857,5.77208038 17.0134555,6.76675775 L17,7 L17,11 L19,11 L19,10 C19,8.44060777 20.1897762,7.15910264 21.71108,7.01373316 L22,7 L30,7 C31.5593922,7 32.8408974,8.18977617 32.9862668,9.71107998 L33,10 L33,11 L35,11 L35,7 C35,5.97432832 34.2279196,5.12898568 33.2332423,5.01345546 L33,5 Z M50,27 L50,18 C50,16.4406078 48.8102238,15.1591026 47.28892,15.0137332 L47,15 L38.828797,15.0014059 C38.4165639,16.1658638 37.3056934,17 36,17 L32,17 C30.6943066,17 29.5834361,16.1658638 29.171203,15.0014059 L22.828797,15.0014059 C22.4165639,16.1658638 21.3056934,17 20,17 L16,17 C14.6943066,17 13.5834361,16.1658638 13.171203,15.0014059 L5,15 C3.44060777,15 2.15910264,16.1897762 2.01373316,17.71108 L2,18 L2,27 L8,27 C8,25.3431458 9.34314575,24 11,24 L16,24 C17.6568542,24 19,25.3431458 19,27 L34,27 C34,25.3431458 35.3431458,24 37,24 L41,24 C42.6568542,24 44,25.3431458 44,27 L50,27 Z" id="Shape"></path>
                        </g>
                    </g>
                </g>
            </g>
        </g>
    </g>
</svg>