<?xml version="1.0" encoding="UTF-8"?>
<svg width="79px" height="76px" viewBox="0 0 79 76" version="1.1" xmlns="http://www.w3.org/2000/svg" xmlns:xlink="http://www.w3.org/1999/xlink">
    <!-- Generator: Sketch 55.2 (78181) - https://sketchapp.com -->
    <title>Group 9</title>
    <desc>Created with Sketch.</desc>
    <g id="DESKTOP-FINAL" stroke="none" stroke-width="1" fill="none" fill-rule="evenodd">
        <g id="Desktop-process" transform="translate(-873.000000, -2184.000000)" fill="#FFFFFF" fill-rule="nonzero">
            <g id="benefit" transform="translate(152.000000, 1634.000000)">
                <g id="img-BUP" transform="translate(480.000000, 336.000000)">
                    <g id="Group-9" transform="translate(241.593000, 211.000000)">
                        <path d="M5.04,78.252 C2.394,78.252 0.702,76.992 2.13162821e-13,75.138 L2.484,73.698 C2.934,74.742 3.708,75.444 5.13,75.444 C6.498,75.444 6.84,74.904 6.84,74.418 C6.84,73.644 6.12,73.338 4.23,72.816 C2.358,72.294 0.522,71.394 0.522,68.982 C0.522,66.552 2.574,65.148 4.752,65.148 C6.822,65.148 8.442,66.138 9.36,67.992 L6.93,69.414 C6.498,68.514 5.904,67.956 4.752,67.956 C3.852,67.956 3.402,68.406 3.402,68.91 C3.402,69.486 3.708,69.882 5.67,70.476 C7.578,71.052 9.72,71.718 9.72,74.382 C9.72,76.812 7.776,78.252 5.04,78.252 Z M15.93,78.252 C13.158,78.252 11.07,76.632 11.07,73.932 L11.07,65.4 L13.95,65.4 L13.95,73.68 C13.95,74.634 14.4,75.444 15.93,75.444 C17.46,75.444 17.91,74.634 17.91,73.68 L17.91,65.4 L20.79,65.4 L20.79,73.932 C20.79,76.632 18.702,78.252 15.93,78.252 Z M28.872,78.252 C25.074,78.252 22.32,75.408 22.32,71.7 C22.32,67.992 25.074,65.148 28.872,65.148 C31.158,65.148 33.174,66.282 34.272,68.064 L31.788,69.504 C31.23,68.532 30.15,67.956 28.872,67.956 C26.64,67.956 25.2,69.45 25.2,71.7 C25.2,73.95 26.64,75.444 28.872,75.444 C30.15,75.444 31.248,74.868 31.788,73.896 L34.272,75.336 C33.192,77.118 31.176,78.252 28.872,78.252 Z M41.814,78.252 C38.016,78.252 35.262,75.408 35.262,71.7 C35.262,67.992 38.016,65.148 41.814,65.148 C44.1,65.148 46.116,66.282 47.214,68.064 L44.73,69.504 C44.172,68.532 43.092,67.956 41.814,67.956 C39.582,67.956 38.142,69.45 38.142,71.7 C38.142,73.95 39.582,75.444 41.814,75.444 C43.092,75.444 44.19,74.868 44.73,73.896 L47.214,75.336 C46.134,77.118 44.118,78.252 41.814,78.252 Z M51.624,75.228 L56.664,75.228 L56.664,78 L48.744,78 L48.744,65.4 L56.574,65.4 L56.574,68.172 L51.624,68.172 L51.624,70.26 L56.124,70.26 L56.124,72.996 L51.624,72.996 L51.624,75.228 Z M62.694,78.252 C60.048,78.252 58.356,76.992 57.654,75.138 L60.138,73.698 C60.588,74.742 61.362,75.444 62.784,75.444 C64.152,75.444 64.494,74.904 64.494,74.418 C64.494,73.644 63.774,73.338 61.884,72.816 C60.012,72.294 58.176,71.394 58.176,68.982 C58.176,66.552 60.228,65.148 62.406,65.148 C64.476,65.148 66.096,66.138 67.014,67.992 L64.584,69.414 C64.152,68.514 63.558,67.956 62.406,67.956 C61.506,67.956 61.056,68.406 61.056,68.91 C61.056,69.486 61.362,69.882 63.324,70.476 C65.232,71.052 67.374,71.718 67.374,74.382 C67.374,76.812 65.43,78.252 62.694,78.252 Z M73.224,78.252 C70.578,78.252 68.886,76.992 68.184,75.138 L70.668,73.698 C71.118,74.742 71.892,75.444 73.314,75.444 C74.682,75.444 75.024,74.904 75.024,74.418 C75.024,73.644 74.304,73.338 72.414,72.816 C70.542,72.294 68.706,71.394 68.706,68.982 C68.706,66.552 70.758,65.148 72.936,65.148 C75.006,65.148 76.626,66.138 77.544,67.992 L75.114,69.414 C74.682,68.514 74.088,67.956 72.936,67.956 C72.036,67.956 71.586,68.406 71.586,68.91 C71.586,69.486 71.892,69.882 73.854,70.476 C75.762,71.052 77.904,71.718 77.904,74.382 C77.904,76.812 75.96,78.252 73.224,78.252 Z" id="SUCCESS"></path>
                        <g id="atoms/icons/56/a-ic-56-success" transform="translate(10.407000, 0.000000)">
                            <path d="M55,53 L2,53 C1.44771525,53 1,52.5522847 1,52 C1,51.4477153 1.44771525,51 2,51 L7,51 L7,45 C7,43.4406078 8.18977617,42.1591026 9.71107998,42.0137332 L10,42 L15,42 C16.5593922,42 17.8408974,43.1897762 17.9862668,44.71108 L18,45 L18,51 L23,51 L23,35 C23,33.4406078 24.1897762,32.1591026 25.71108,32.0137332 L26,32 L31,32 C32.5593922,32 33.8408974,33.1897762 33.9862668,34.71108 L34,35 L34,51 L39,51 L39,20 C39,18.4406078 40.1897762,17.1591026 41.71108,17.0137332 L42,17 L47,17 C48.5593922,17 49.8408974,18.1897762 49.9862668,19.71108 L50,20 L50,51 L55,51 C55.5522847,51 56,51.4477153 56,52 C56,52.5522847 55.5522847,53 55,53 Z M47.1797513,19.0161113 L47,19 L42,19 C41.5090802,19 41.1007833,19.3537503 41.0161113,19.8202487 L41,20 L41,51 L48,51 L48,20 C48,19.5704452 47.7291599,19.2041485 47.3489324,19.0625625 L47.1797513,19.0161113 Z M31,34 L26,34 C25.5090802,34 25.1007833,34.3537503 25.0161113,34.8202487 L25,35 L25,51 L32,51 L32,35 C32,34.5090802 31.6462497,34.1007833 31.1797513,34.0161113 L31,34 Z M15,44 L10,44 C9.50908022,44 9.10078326,44.3537503 9.01611134,44.8202487 L9,45 L9,51 L16,51 L16,45 C16,44.5090802 15.6462497,44.1007833 15.1797513,44.0161113 L15,44 Z M38,3 L46.085545,3.00364589 L46.2562915,3.03321651 L46.3820731,3.07558447 L46.5340206,3.15437601 L46.6825729,3.2691775 L46.7648496,3.35575101 L46.8223146,3.43067955 L46.906513,3.5772085 L46.9667784,3.74372173 L46.9896666,3.85619178 L47,4 L47,12 C47,12.5522847 46.5522847,13 46,13 C45.5090802,13 45.1007833,12.6462497 45.0161113,12.1797513 L45,12 L45,6.412 L29.7071068,21.7071068 C29.3599741,22.0542395 28.8211253,22.0928098 28.431389,21.8228177 L28.2928932,21.7071068 L23,16.4142136 L6.70710678,32.7071068 C6.31658249,33.0976311 5.68341751,33.0976311 5.29289322,32.7071068 C4.94576052,32.3599741 4.90719021,31.8211253 5.17718232,31.431389 L5.29289322,31.2928932 L22.2928932,14.2928932 C22.6400259,13.9457605 23.1788747,13.9071902 23.568611,14.1771823 L23.7071068,14.2928932 L29,19.5857864 L43.584,5 L38,5 C37.5090802,5 37.1007833,4.64624968 37.0161113,4.17975126 L37,4 C37,3.44771525 37.4477153,3 38,3 Z" id="Shape"></path>
                        </g>
                    </g>
                </g>
            </g>
        </g>
    </g>
</svg>