<?xml version="1.0" encoding="UTF-8"?>
<svg width="83px" height="70px" viewBox="0 0 83 70" version="1.1" xmlns="http://www.w3.org/2000/svg" xmlns:xlink="http://www.w3.org/1999/xlink">
    <!-- Generator: Sketch 55.2 (78181) - https://sketchapp.com -->
    <title>Group 4</title>
    <desc>Created with Sketch.</desc>
    <g id="DESKTOP-FINAL" stroke="none" stroke-width="1" fill="none" fill-rule="evenodd">
        <g id="Desktop-process" transform="translate(-699.000000, -2092.000000)" fill="#666666" fill-rule="nonzero">
            <g id="benefit" transform="translate(152.000000, 1634.000000)">
                <g id="img-BUP" transform="translate(480.000000, 336.000000)">
                    <g id="Group-4" transform="translate(67.572000, 113.000000)">
                        <path d="M4.77,65.4 C7.254,65.4 9.18,67.326 9.18,69.72 C9.18,72.114 7.254,74.04 4.77,74.04 L2.88,74.04 L2.88,78 L-3.19744231e-13,78 L-3.19744231e-13,65.4 L4.77,65.4 Z M4.77,71.34 C5.652,71.34 6.3,70.638 6.3,69.72 C6.3,68.802 5.652,68.1 4.77,68.1 L2.88,68.1 L2.88,71.34 L4.77,71.34 Z M17.244,78 L14.868,73.86 L13.5,73.86 L13.5,78 L10.62,78 L10.62,65.4 L15.66,65.4 C18.054,65.4 19.98,67.326 19.98,69.72 C19.98,71.268 19.044,72.672 17.658,73.374 L20.34,78 L17.244,78 Z M13.5,68.1 L13.5,71.34 L15.66,71.34 C16.452,71.34 17.1,70.638 17.1,69.72 C17.1,68.802 16.452,68.1 15.66,68.1 L13.5,68.1 Z M27.702,78.252 C24.084,78.252 21.15,75.408 21.15,71.7 C21.15,67.992 24.084,65.148 27.702,65.148 C31.32,65.148 34.254,67.992 34.254,71.7 C34.254,75.408 31.32,78.252 27.702,78.252 Z M27.702,75.444 C29.754,75.444 31.374,73.95 31.374,71.7 C31.374,69.45 29.754,67.956 27.702,67.956 C25.65,67.956 24.03,69.45 24.03,71.7 C24.03,73.95 25.65,75.444 27.702,75.444 Z M40.914,65.4 C44.388,65.4 47.034,68.136 47.034,71.7 C47.034,75.264 44.388,78 40.914,78 L35.874,78 L35.874,65.4 L40.914,65.4 Z M40.914,75.228 C42.894,75.228 44.262,73.86 44.262,71.7 C44.262,69.54 42.894,68.172 40.914,68.172 L38.754,68.172 L38.754,75.228 L40.914,75.228 Z M53.424,78.252 C50.652,78.252 48.564,76.632 48.564,73.932 L48.564,65.4 L51.444,65.4 L51.444,73.68 C51.444,74.634 51.894,75.444 53.424,75.444 C54.954,75.444 55.404,74.634 55.404,73.68 L55.404,65.4 L58.284,65.4 L58.284,73.932 C58.284,76.632 56.196,78.252 53.424,78.252 Z M66.366,78.252 C62.568,78.252 59.814,75.408 59.814,71.7 C59.814,67.992 62.568,65.148 66.366,65.148 C68.652,65.148 70.668,66.282 71.766,68.064 L69.282,69.504 C68.724,68.532 67.644,67.956 66.366,67.956 C64.134,67.956 62.694,69.45 62.694,71.7 C62.694,73.95 64.134,75.444 66.366,75.444 C67.644,75.444 68.742,74.868 69.282,73.896 L71.766,75.336 C70.686,77.118 68.67,78.252 66.366,78.252 Z M81.756,65.4 L81.756,68.172 L78.516,68.172 L78.516,78 L75.636,78 L75.636,68.172 L72.396,68.172 L72.396,65.4 L81.756,65.4 Z" id="PRODUCT"></path>
                        <g id="atoms/icons/56/a-ic-56-product" transform="translate(12.428000, 0.000000)">
                            <path d="M47,9 C48.6568542,9 50,10.3431458 50,12 L50,39 L55,39 L55,44 C55,45.5976809 53.75108,46.9036609 52.1762728,46.9949073 L52,47 L4,47 C2.40231912,47 1.09633912,45.75108 1.00509269,44.1762728 L1,44 L1,39 L5,39 L5,12 C5,10.3431458 6.34314575,9 8,9 L47,9 Z M53,41 L35,41 C35,42.5976809 33.75108,43.9036609 32.1762728,43.9949073 L32,44 L24,44 C22.4023191,44 21.0963391,42.75108 21.0050927,41.1762728 L21,41 L3,41 L3,44 C3,44.5128358 3.38604019,44.9355072 3.88337887,44.9932723 L4,45 L52,45 C52.5128358,45 52.9355072,44.6139598 52.9932723,44.1166211 L53,44 L53,41 Z M33,41 L23,41 C23,41.5128358 23.3860402,41.9355072 23.8833789,41.9932723 L24,42 L32,42 C32.5128358,42 32.9355072,41.6139598 32.9932723,41.1166211 L33,41 Z M47,11 L8,11 C7.44771525,11 7,11.4477153 7,12 L7,39 L48,39 L48,12 C48,11.4477153 47.5522847,11 47,11 Z M45,13 C45.5522847,13 46,13.4477153 46,14 L46,36 C46,36.5522847 45.5522847,37 45,37 L10,37 C9.44771525,37 9,36.5522847 9,36 L9,14 C9,13.4477153 9.44771525,13 10,13 L45,13 Z M44,15 L11,15 L11,35 L44,35 L44,15 Z" id="Shape"></path>
                        </g>
                    </g>
                </g>
            </g>
        </g>
    </g>
</svg>