<?xml version="1.0" encoding="UTF-8"?>
<svg width="44px" height="77px" viewBox="0 0 44 77" version="1.1" xmlns="http://www.w3.org/2000/svg" xmlns:xlink="http://www.w3.org/1999/xlink">
    <!-- Generator: Sketch 55.2 (78181) - https://sketchapp.com -->
    <title>Group 6</title>
    <desc>Created with Sketch.</desc>
    <g id="DESKTOP-FINAL" stroke="none" stroke-width="1" fill="none" fill-rule="evenodd">
        <g id="Desktop-process" transform="translate(-1066.000000, -2085.000000)">
            <g id="benefit" transform="translate(152.000000, 1634.000000)">
                <g id="img-BUP" transform="translate(480.000000, 336.000000)">
                    <g id="Group-6" transform="translate(428.000000, 113.000000)">
                        <path d="M12.93,78.252 C10.158,78.252 8.07,76.632 8.07,73.932 L8.07,65.4 L10.95,65.4 L10.95,73.68 C10.95,74.634 11.4,75.444 12.93,75.444 C14.46,75.444 14.91,74.634 14.91,73.68 L14.91,65.4 L17.79,65.4 L17.79,73.932 C17.79,76.632 15.702,78.252 12.93,78.252 Z M24.27,78.252 C21.624,78.252 19.932,76.992 19.23,75.138 L21.714,73.698 C22.164,74.742 22.938,75.444 24.36,75.444 C25.728,75.444 26.07,74.904 26.07,74.418 C26.07,73.644 25.35,73.338 23.46,72.816 C21.588,72.294 19.752,71.394 19.752,68.982 C19.752,66.552 21.804,65.148 23.982,65.148 C26.052,65.148 27.672,66.138 28.59,67.992 L26.16,69.414 C25.728,68.514 25.134,67.956 23.982,67.956 C23.082,67.956 22.632,68.406 22.632,68.91 C22.632,69.486 22.938,69.882 24.9,70.476 C26.808,71.052 28.95,71.718 28.95,74.382 C28.95,76.812 27.006,78.252 24.27,78.252 Z M33.27,75.228 L38.31,75.228 L38.31,78 L30.39,78 L30.39,65.4 L38.22,65.4 L38.22,68.172 L33.27,68.172 L33.27,70.26 L37.77,70.26 L37.77,72.996 L33.27,72.996 L33.27,75.228 Z M46.554,78 L44.178,73.86 L42.81,73.86 L42.81,78 L39.93,78 L39.93,65.4 L44.97,65.4 C47.364,65.4 49.29,67.326 49.29,69.72 C49.29,71.268 48.354,72.672 46.968,73.374 L49.65,78 L46.554,78 Z M42.81,68.1 L42.81,71.34 L44.97,71.34 C45.762,71.34 46.41,70.638 46.41,69.72 C46.41,68.802 45.762,68.1 44.97,68.1 L42.81,68.1 Z" id="USER" fill="#666666" fill-rule="nonzero"></path>
                        <g id="atoms/icons/56/a-ic-56-user" stroke="#666666" stroke-width="2">
                            <path d="M7,52 L7,41.8814021 C7,35.6663672 12.3040111,30.5 19.1710526,30.5 L35.3421053,30.5 C42.2071655,30.5 48,35.6663672 48,41.8814021 L48,52" id="Shape" stroke-linecap="round" stroke-linejoin="round"></path>
                            <path d="M27.9848846,26 L27.0151154,26 C22.0384098,26 18,19.7871052 18,14.8938468 L18,11.8604518 C18,6.96526003 22.0384098,3 27.0151154,3 L27.9848846,3 C32.9635573,3 37,6.96526003 37,11.8604518 L37,14.8938468 C37,19.7871052 32.9635573,26 27.9848846,26 Z" id="Stroke"></path>
                            <path d="M15,43 L15,52" id="Path" fill="#FFFFFF" fill-rule="evenodd" stroke-linecap="round" stroke-linejoin="round"></path>
                        </g>
                    </g>
                </g>
            </g>
        </g>
    </g>
</svg>