<?xml version="1.0" encoding="UTF-8"?>
<svg width="48px" height="48px" viewBox="0 0 48 48" version="1.1" xmlns="http://www.w3.org/2000/svg" xmlns:xlink="http://www.w3.org/1999/xlink">
    <!-- Generator: Sketch 58 (84663) - https://sketch.com -->
    <title>atoms/icons/48/value-pyramid/a-ic-48-value-aesthetics</title>
    <desc>Created with Sketch.</desc>
    <g id="atoms/icons/48/value-pyramid/a-ic-48-value-aesthetics" stroke="none" stroke-width="1" fill="none" fill-rule="evenodd">
        <path d="M37.9904761,4.57728524 L38.1267156,4.69851514 L39.2784242,5.85154127 C40.1408314,6.7144324 40.2302578,8.05858424 39.5463653,9.02124346 C41.7893598,9.19009667 42.9453724,10.4447749 42.9986417,12.7540832 L43.00027,12.9910943 L42.9978741,37.9452446 L42.9931537,38.1481409 C42.8962648,40.2277008 41.3181403,41.8407225 39.2103804,41.9426245 L38.9978742,41.9477389 L35.9978742,41.9477389 L35.9978742,35.9555401 L27.601,35.975 L29.4382351,37.81214 C29.7366176,38.1105941 29.7614828,38.5789784 29.5127705,38.9058145 L29.4381569,38.9912081 L24.6736525,43.7557125 C24.5173085,43.9120565 24.3053061,44 24.0841575,44 C23.8999322,44 23.7219498,43.9389824 23.5772628,43.8281212 L23.4946626,43.7557125 L15.741,36.002 L13.9531534,36.006017 L10.7617193,35.9997215 C7.50777587,35.960034 6.07241272,34.4981333 6.00267828,31.2532114 L6,31.0000791 L5.999,26.26 L3.24413112,23.5052593 C2.94574864,23.2067335 2.92088343,22.7383432 3.1695355,22.4115669 L3.24413112,22.3261912 L5.999,19.57 L6,13.000111 C6,10.604602 7.48433813,9.0939751 9.78236931,9.00423412 L10.0001731,9.00000001 L30.345,9.002 L34.6442462,4.69851514 C35.5743978,3.80949587 37.0140099,3.76908591 37.9904761,4.57728524 Z M8.59820869,19.3301716 L5.01269415,22.9156861 L24.0841575,41.9871495 L27.6696721,38.4017131 L25.395,36.1274774 L23.6012945,37.9207511 L22.4221041,36.7415607 L24.215,34.9474774 L22.058,32.7904774 L20.2644642,34.5837364 L19.0852738,33.404546 L20.878,31.6104774 L18.723,29.4554774 L16.9309286,31.248375 L15.7517382,30.0691847 L17.544,28.2754774 L15.388,26.1194774 L13.5956923,27.9130259 L12.4165019,26.7338356 L14.209,24.9404774 L12.052,22.7834774 L10.2580629,24.5776868 L9.07887252,23.3984964 L10.873,21.6044774 L8.59820869,19.3301716 Z M38.9978742,35.9477389 L37.9978742,35.9500967 L37.9978742,39.9477389 L38.9978742,39.9477389 C40.1129071,39.9477389 40.9215548,39.1727803 40.9927645,38.0999997 L40.9978742,37.9447708 L40.9917344,37.8029853 C40.9109654,36.8677469 40.0458321,36.0351016 39.1409689,35.9541752 L38.9978742,35.9477389 Z M26.631,22 L32,22 C32.5522847,22 33,22.4477153 33,23 C33,23.5522847 32.5522847,24 32,24 L21,24 L21.0004095,23.9839264 C20.9455148,23.9947878 20.8896063,24.0001905 20.8335083,23.9999949 C20.373278,24.000146 20.0000781,23.6266503 20,23.1658623 C20,23.106103 20.0064236,23.046587 20.0190855,22.9883341 L20.042734,22.9020296 L21.7710782,17.7116521 C21.7976952,17.6319011 21.8363885,17.5555969 21.887261,17.4855134 L21.972717,17.3854007 L28.348,11.001 L10.0001756,11 C8.72982551,11 8.06221518,11.5910558 8.00414802,12.8201767 L8,13.000111 L7.999,17.57 L8.00863556,17.5616086 C8.30716135,17.2632261 8.77555161,17.2383609 9.10232794,17.4870129 L9.18770364,17.5616086 L25.605,33.979 L36.894048,33.9530637 L36.9978742,33.9477389 L37.0473501,33.9489415 L37.0962042,33.9525121 L38.8590157,33.9479613 L39.2338704,33.9555287 C39.7823736,33.9916917 40.31425,34.1524372 40.7970543,34.4099366 L41.0008715,34.5261361 L40.9995823,12.817113 C40.9792092,11.4640516 40.5502512,11.0342167 39.1767908,11.0019948 L37.617,11.001 L26.631,22 Z M7.999,28.26 L8,31.0000791 C8,33.3344942 8.56597548,33.9835142 10.7949813,34.0003591 L13.2686684,34.0060191 L13.744,34.005 L7.999,28.26 Z M35,22 C35.5522847,22 36,22.4477153 36,23 C36,23.5522847 35.5522847,24 35,24 C34.4477153,24 34,23.5522847 34,23 C34,22.4477153 34.4477153,22 35,22 Z M38,22 C38.5522847,22 39,22.4477153 39,23 C39,23.5522847 38.5522847,24 38,24 C37.4477153,24 37,23.5522847 37,23 C37,22.4477153 37.4477153,22 38,22 Z M22.927,19.521 L22.1535748,21.8466208 L24.474,21.07 L22.927,19.521 Z M32.929,8.775 L23.7402015,17.9752501 L26.0176814,20.2554901 L35.206,11.054 L32.929,8.775 Z M35.9134918,5.80356976 L35.8234546,5.87821394 L34.108,7.595 L36.385,9.874 L38.1009345,8.15767175 C38.3835315,7.87487455 38.4093512,7.43221325 38.1783351,7.12023231 L38.1013252,7.03084898 L38.1009345,7.03045789 L36.9484447,5.87821394 C36.6623676,5.60451859 36.2267568,5.57963719 35.9134918,5.80356976 Z" id="Combined-Shape" fill="#5A7149" fill-rule="nonzero"></path>
    </g>
</svg>