<?xml version="1.0" encoding="UTF-8"?>
<svg width="48px" height="48px" viewBox="0 0 48 48" version="1.1" xmlns="http://www.w3.org/2000/svg" xmlns:xlink="http://www.w3.org/1999/xlink">
    <!-- Generator: Sketch 58 (84663) - https://sketch.com -->
    <title>atoms/icons/48/value-pyramid/a-ic-48-value-functionality</title>
    <desc>Created with Sketch.</desc>
    <g id="atoms/icons/48/value-pyramid/a-ic-48-value-functionality" stroke="none" stroke-width="1" fill="none" fill-rule="evenodd">
        <path d="M19.5540168,2.95482418 C16.2654435,2.95482418 13.589618,5.63064968 13.589618,8.91922292 C13.589618,9.48240943 13.6704807,10.0410299 13.8279699,10.5800765 L13.9316248,10.9010356 L14.0042014,11.1059101 L9.44857689,13.839355 L9.3036576,13.7195095 C8.68491774,13.2078234 7.91054296,12.9231786 7.09357372,12.9231786 C5.17921863,12.9231786 3.62126359,14.4811337 3.62126359,16.3954887 C3.62126359,18.3098438 5.17921863,19.8677989 7.09357372,19.8677989 C9.0079288,19.8677989 10.5658838,18.3098438 10.5658838,16.3954887 C10.5658838,16.2398452 10.555482,16.0851874 10.5349262,15.9319052 L10.4965079,15.7030623 L10.459364,15.5190765 L15.012406,12.7874621 L15.1590211,12.9478914 C15.345048,13.1514459 15.5452302,13.3420356 15.7583485,13.5184253 L15.9757335,13.6900359 L16.0817066,13.9024266 L16.0817066,20.7240192 L15.7270856,20.5983382 C15.3573393,20.4672966 14.9678346,20.3994444 14.5698395,20.3994444 C12.7214967,20.3994444 11.2053984,21.8518068 11.1030377,23.6750384 L11.0975294,23.8717546 L11.0975294,31.7756992 C11.0975294,33.3693425 11.71764,34.8663631 12.8667625,36.0181621 L12.9479965,36.1075711 C13.1637514,36.3317796 13.7159383,36.8602507 14.0912307,37.2418182 L14.1888117,37.3419009 L14.3583113,37.5231576 C15.3940445,38.6866822 16.0024809,39.9730645 16.0744896,41.592509 L16.0817066,41.920901 L16.0817066,43.9746027 C16.0817066,44.4773636 16.4600482,44.8916167 16.9476,44.9482306 L17.0619281,44.9548242 L34.5065484,44.9548242 C35.0093094,44.9548242 35.4235624,44.5764827 35.4801763,44.0889308 L35.4867699,43.9746027 L35.4867699,41.1774928 C35.4867699,40.1044888 35.6879326,39.083449 36.025119,38.1347108 C36.2037504,37.6320971 36.5679196,36.855389 36.5652901,36.8910354 L36.5598965,36.9057103 L36.7519143,36.5082821 C37.4937943,34.8911332 37.9114933,33.1218883 37.9713648,31.3433471 L37.9788585,30.8986008 L37.9788585,21.379666 C37.9788585,19.4653109 36.4209035,17.9073558 34.5065484,17.9073558 C34.152763,17.9073558 33.8056598,17.9611358 33.4733402,18.065226 L33.226999,18.1526726 L32.9505194,18.2626337 L32.8722901,17.9755578 C32.4640044,16.4772839 31.0955827,15.4152672 29.5223712,15.4152672 C28.7359239,15.4152672 27.9897903,15.6788913 27.3847906,16.1529785 L27.2076255,16.3014654 L27.0302826,16.4602916 L26.8529397,16.3014654 C26.2195984,15.7342524 25.403286,15.4152672 24.538194,15.4152672 C24.2197979,15.4152672 23.9068357,15.4586926 23.6050765,15.543156 L23.3809479,15.6141609 L23.0263269,15.739842 L23.0263269,13.9024266 L23.1323288,13.6900142 C24.0140998,13.0265622 24.6945119,12.129941 25.0990599,11.1087084 L25.2024956,10.8271825 L25.2721197,10.6219181 L36.059042,11.9700728 L36.0992319,12.1536967 C36.4452737,13.7347287 37.8536486,14.8836216 39.4907256,14.8836216 C41.4050807,14.8836216 42.9630357,13.3256666 42.9630357,11.4113115 C42.9630357,9.49695644 41.4050807,7.9390014 39.4907256,7.9390014 C38.2400439,7.9390014 37.1063015,8.61035698 36.490185,9.66696978 L36.3869135,9.85737184 L36.3026118,10.0249525 L25.5156555,8.67645652 L25.4990731,8.45992319 C25.2623273,5.36848526 22.6707549,2.95482418 19.5540168,2.95482418 Z M19.5317501,9.90440824 L20.0018442,9.96723034 C20.6292356,10.1621869 21.0658838,10.7449908 21.0658838,11.4113115 L21.0658838,23.8717546 C21.0658838,24.4131895 21.5046705,24.8519761 22.0461054,24.8519761 C22.5875403,24.8519761 23.0263269,24.4131895 23.0263269,23.8717546 L23.0263269,18.8875773 C23.0263269,18.0538207 23.7044373,17.3757103 24.538194,17.3757103 C25.3719506,17.3757103 26.0500611,18.0538207 26.0500611,18.8875773 L26.0500611,23.8717546 C26.0500611,24.4131895 26.4888477,24.8519761 27.0302826,24.8519761 C27.5717175,24.8519761 28.0105041,24.4131895 28.0105041,23.8717546 L28.0105041,18.8875773 C28.0105041,18.0538207 28.6886145,17.3757103 29.5223712,17.3757103 C30.3561279,17.3757103 31.0342383,18.0538207 31.0342383,18.8875773 L31.0342383,26.3638432 C31.0342383,26.9052781 31.4730249,27.3440647 32.0144598,27.3440647 C32.5558947,27.3440647 32.9946813,26.9052781 32.9946813,26.3638432 L32.9946813,21.379666 C32.9946813,20.5459093 33.6727917,19.8677989 34.5065484,19.8677989 C35.3403051,19.8677989 36.0184155,20.5459093 36.0184155,21.379666 L36.0184155,30.8986008 C36.0184155,32.6716258 35.5993222,34.4467347 34.8178071,36.0062371 C34.8744774,35.853197 34.496222,36.6418818 34.2542689,37.2573908 L34.1661112,37.4917156 C33.7650394,38.6193272 33.5263269,39.8521812 33.5263269,41.1774928 L33.5263269,42.9943811 L18.0421497,42.9943811 L18.0421497,41.920901 C18.0421497,39.7853959 17.3399032,38.0613984 16.1171107,36.561026 C15.6830993,36.028492 14.6661372,35.0419637 14.3357345,34.7143902 L14.0622796,34.4281681 C13.4131118,33.6958786 13.0579725,32.7624945 13.0579725,31.7756992 L13.0579725,23.8717546 C13.0579725,23.0379979 13.7360829,22.3598875 14.5698395,22.3598875 C15.4035962,22.3598875 16.0817066,23.0379979 16.0817066,23.8717546 L16.0817066,28.8559318 C16.0817066,29.3973667 16.5204933,29.8361533 17.0619281,29.8361533 C17.603363,29.8361533 18.0421497,29.3973667 18.0421497,28.8559318 L18.0421497,11.4113115 C18.0421497,10.6027311 18.6812476,9.93819459 19.5317501,9.90440824 Z M7.09357372,14.8836216 C7.92733039,14.8836216 8.6054408,15.5617321 8.6054408,16.3954887 C8.6054408,17.2292454 7.92733039,17.9073558 7.09357372,17.9073558 C6.25981705,17.9073558 5.58170663,17.2292454 5.58170663,16.3954887 C5.58170663,15.5617321 6.25981705,14.8836216 7.09357372,14.8836216 Z M39.4907256,9.89944443 C40.3244823,9.89944443 41.0025927,10.5775549 41.0025927,11.4113115 C41.0025927,12.2450682 40.3244823,12.9231786 39.4907256,12.9231786 C38.6569689,12.9231786 37.9788585,12.2450682 37.9788585,11.4113115 C37.9788585,10.5775549 38.6569689,9.89944443 39.4907256,9.89944443 Z M19.5540168,4.91526722 C21.7619916,4.91526722 23.5579725,6.71124809 23.5579725,8.91922292 C23.5579725,9.3729012 23.4792386,9.82265863 23.327215,10.251217 L23.0770007,10.9565774 L22.8262308,10.2514143 C22.3626576,8.94784979 21.1692785,8.04345143 19.7856187,7.94783304 L19.57671,7.93960733 L19.3534799,7.94477219 C17.9581151,8.02523227 16.7478865,8.94009484 16.2818176,10.2513724 L16.0310992,10.9567646 L15.7808185,10.251217 C15.6287949,9.82265863 15.5500611,9.3729012 15.5500611,8.91922292 C15.5500611,6.71124809 17.3460419,4.91526722 19.5540168,4.91526722 Z" id="Shape" fill="#5A7149" fill-rule="nonzero"></path>
    </g>
</svg>