<?xml version="1.0" encoding="UTF-8"?>
<svg width="562px" height="562px" viewBox="0 0 562 562" version="1.1" xmlns="http://www.w3.org/2000/svg" xmlns:xlink="http://www.w3.org/1999/xlink">
    <!-- Generator: Sketch 58 (84663) - https://sketch.com -->
    <title>img-BUP</title>
    <desc>Created with Sketch.</desc>
    <g id="DESKTOP-FINAL" stroke="none" stroke-width="1" fill="none" fill-rule="evenodd">
        <g id="Desktop-process" transform="translate(-631.000000, -2032.000000)">
            <g id="benefit" transform="translate(152.000000, 1634.000000)">
                <g id="img-BUP" transform="translate(480.000000, 399.000000)">
                    <circle id="Oval" stroke="#6CC727" cx="184" cy="184" r="184"></circle>
                    <circle id="Oval" stroke="#6CC727" cx="376" cy="184" r="184"></circle>
                    <circle id="Oval" stroke="#6CC727" cx="280" cy="376" r="184"></circle>
                    <path d="M280,192 C310.948249,192 340.111929,199.640647 365.707586,213.138486 C357.095902,267.242926 324.907099,313.483381 280.003304,341.000091 C235.094266,313.484006 202.904358,267.243416 194.295157,213.143729 C219.888071,199.640647 249.051751,192 280,192 Z" id="Path" stroke="#6CC727" fill="#6CC727"></path>
                    <text id="USER" font-family="Gilroy-ExtraBold, Gilroy" font-size="18" font-weight="600" line-spacing="24" fill="#666666">
                        <tspan x="435.08" y="190">USER</tspan>
                    </text>
                    <text id="SUCCESS" font-family="Gilroy-ExtraBold, Gilroy" font-size="18" font-weight="600" line-spacing="24" fill="#FFFFFF">
                        <tspan x="241.143" y="288">SUCCESS</tspan>
                    </text>
                    <g id="atoms/icons/56/a-ic-56-success" transform="translate(252.000000, 211.000000)" fill="#FFFFFF" fill-rule="nonzero">
                        <path d="M55,53 L2,53 C1.44771525,53 1,52.5522847 1,52 C1,51.4477153 1.44771525,51 2,51 L7,51 L7,45 C7,43.4406078 8.18977617,42.1591026 9.71107998,42.0137332 L10,42 L15,42 C16.5593922,42 17.8408974,43.1897762 17.9862668,44.71108 L18,45 L18,51 L23,51 L23,35 C23,33.4406078 24.1897762,32.1591026 25.71108,32.0137332 L26,32 L31,32 C32.5593922,32 33.8408974,33.1897762 33.9862668,34.71108 L34,35 L34,51 L39,51 L39,20 C39,18.4406078 40.1897762,17.1591026 41.71108,17.0137332 L42,17 L47,17 C48.5593922,17 49.8408974,18.1897762 49.9862668,19.71108 L50,20 L50,51 L55,51 C55.5522847,51 56,51.4477153 56,52 C56,52.5522847 55.5522847,53 55,53 Z M47.1797513,19.0161113 L47,19 L42,19 C41.5090802,19 41.1007833,19.3537503 41.0161113,19.8202487 L41,20 L41,51 L48,51 L48,20 C48,19.5704452 47.7291599,19.2041485 47.3489324,19.0625625 L47.1797513,19.0161113 Z M31,34 L26,34 C25.5090802,34 25.1007833,34.3537503 25.0161113,34.8202487 L25,35 L25,51 L32,51 L32,35 C32,34.5090802 31.6462497,34.1007833 31.1797513,34.0161113 L31,34 Z M15,44 L10,44 C9.50908022,44 9.10078326,44.3537503 9.01611134,44.8202487 L9,45 L9,51 L16,51 L16,45 C16,44.5090802 15.6462497,44.1007833 15.1797513,44.0161113 L15,44 Z M38,3 L46.085545,3.00364589 L46.2562915,3.03321651 L46.3820731,3.07558447 L46.5340206,3.15437601 L46.6825729,3.2691775 L46.7648496,3.35575101 L46.8223146,3.43067955 L46.906513,3.5772085 L46.9667784,3.74372173 L46.9896666,3.85619178 L47,4 L47,12 C47,12.5522847 46.5522847,13 46,13 C45.5090802,13 45.1007833,12.6462497 45.0161113,12.1797513 L45,12 L45,6.412 L29.7071068,21.7071068 C29.3599741,22.0542395 28.8211253,22.0928098 28.431389,21.8228177 L28.2928932,21.7071068 L23,16.4142136 L6.70710678,32.7071068 C6.31658249,33.0976311 5.68341751,33.0976311 5.29289322,32.7071068 C4.94576052,32.3599741 4.90719021,31.8211253 5.17718232,31.431389 L5.29289322,31.2928932 L22.2928932,14.2928932 C22.6400259,13.9457605 23.1788747,13.9071902 23.568611,14.1771823 L23.7071068,14.2928932 L29,19.5857864 L43.584,5 L38,5 C37.5090802,5 37.1007833,4.64624968 37.0161113,4.17975126 L37,4 C37,3.44771525 37.4477153,3 38,3 Z" id="Shape"></path>
                    </g>
                    <text id="BUSINESS" font-family="Gilroy-ExtraBold, Gilroy" font-size="18" font-weight="600" line-spacing="24" fill="#666666">
                        <tspan x="240.135" y="474">BUSINESS</tspan>
                    </text>
                    <g id="atoms/icons/56/a-ic-56-product" transform="translate(252.000000, 397.000000)" fill-rule="nonzero">
                        <path d="M33,3 C35.1087236,3 36.8363302,4.63175558 36.9890285,6.70147531 L37,7 L37.0014059,11.171203 C37.8530244,11.4726869 38.527966,12.1478461 38.8291544,12.9996043 L47,13 C49.6509668,13 51.8200773,15.0630719 51.9893646,17.6712486 L52,18 L52,45 C52,47.6509668 49.9369281,49.8200773 47.3287514,49.9893646 L47,50 L5,50 C2.3490332,50 0.179922656,47.9369281 0.0106353594,45.3287514 L0,45 L0,18 C0,15.3490332 2.06307187,13.1799227 4.67124862,13.0106354 L5,13 L13.1710348,12.9990694 C13.4725514,12.1468999 14.1482059,11.471572 15.0005849,11.170499 L15,7 C15,4.89127641 16.6317556,3.16366976 18.7014753,3.01097147 L19,3 L33,3 Z M44,29 C44,30.6568542 42.6568542,32 41,32 L37,32 C35.3431458,32 34,30.6568542 34,29 L19,29 C19,30.6568542 17.6568542,32 16,32 L11,32 C9.34314575,32 8,30.6568542 8,29 L2,29 L2,45 C2,46.5593922 3.18977617,47.8408974 4.71107998,47.9862668 L5,48 L47,48 C48.5593922,48 49.8408974,46.8102238 49.9862668,45.28892 L50,45 L50,29 L44,29 Z M16,26 L11,26 C10.4477153,26 10,26.4477153 10,27 L10,29 C10,29.5522847 10.4477153,30 11,30 L16,30 C16.5522847,30 17,29.5522847 17,29 L17,27 C17,26.4477153 16.5522847,26 16,26 Z M41,26 L37,26 C36.4477153,26 36,26.4477153 36,27 L36,29 C36,29.5522847 36.4477153,30 37,30 L41,30 C41.5522847,30 42,29.5522847 42,29 L42,27 C42,26.4477153 41.5522847,26 41,26 Z M20,13 L16,13 C15.4477153,13 15,13.4477153 15,14 C15,14.5522847 15.4477153,15 16,15 L20,15 C20.5522847,15 21,14.5522847 21,14 C21,13.4477153 20.5522847,13 20,13 Z M36,13 L32,13 C31.4477153,13 31,13.4477153 31,14 C31,14.5522847 31.4477153,15 32,15 L36,15 C36.5522847,15 37,14.5522847 37,14 C37,13.4477153 36.5522847,13 36,13 Z M30,9 L22,9 C21.5090802,9 21.1007833,9.35375032 21.0161113,9.82024874 L21,10 L21.0014059,11.171203 C21.8530244,11.4726869 22.527966,12.1478461 22.8291544,12.9996043 L29.1710348,12.9990694 C29.4725514,12.1468999 30.1482059,11.471572 31.0005849,11.170499 L31,10 C31,9.50908022 30.6462497,9.10078326 30.1797513,9.01611134 L30,9 Z M33,5 L19,5 C17.9743283,5 17.1289857,5.77208038 17.0134555,6.76675775 L17,7 L17,11 L19,11 L19,10 C19,8.44060777 20.1897762,7.15910264 21.71108,7.01373316 L22,7 L30,7 C31.5593922,7 32.8408974,8.18977617 32.9862668,9.71107998 L33,10 L33,11 L35,11 L35,7 C35,5.97432832 34.2279196,5.12898568 33.2332423,5.01345546 L33,5 Z M50,27 L50,18 C50,16.4406078 48.8102238,15.1591026 47.28892,15.0137332 L47,15 L38.828797,15.0014059 C38.4165639,16.1658638 37.3056934,17 36,17 L32,17 C30.6943066,17 29.5834361,16.1658638 29.171203,15.0014059 L22.828797,15.0014059 C22.4165639,16.1658638 21.3056934,17 20,17 L16,17 C14.6943066,17 13.5834361,16.1658638 13.171203,15.0014059 L5,15 C3.44060777,15 2.15910264,16.1897762 2.01373316,17.71108 L2,18 L2,27 L8,27 C8,25.3431458 9.34314575,24 11,24 L16,24 C17.6568542,24 19,25.3431458 19,27 L34,27 C34,25.3431458 35.3431458,24 37,24 L41,24 C42.6568542,24 44,25.3431458 44,27 L50,27 Z" id="Shape" fill="#666666"></path>
                        <path d="M45,32 C38.924549,32 34,36.924549 34,43 C34,49.075451 38.924549,54 45,54 C51.075451,54 56,49.075451 56,43 C56,36.924549 51.075451,32 45,32 Z" id="Path" fill="#6CC727"></path>
                        <path d="M41.5813017,43.4325098 C41.1318931,43.0926203 40.5073486,43.2028342 40.1863425,43.6786796 C39.8653364,44.154525 39.9694272,44.8158089 40.4188357,45.1556984 L43.9188043,47.8027393 C44.3423683,48.1230826 44.9271912,48.0458115 45.2634167,47.6250792 L50.7633672,40.742773 C51.1201081,40.296369 51.0675271,39.6282793 50.6459242,39.2505529 C50.2243214,38.8728265 49.5933492,38.9285006 49.2366084,39.3749046 L44.3316817,45.5126338 L41.5813017,43.4325098 Z" id="Path-5" fill="#FFFFFF"></path>
                    </g>
                    <text id="PRODUCT" font-family="Gilroy-ExtraBold, Gilroy" font-size="18" font-weight="600" line-spacing="24" fill="#666666">
                        <tspan x="66.492" y="190">PRODUCT</tspan>
                    </text>
                    <g id="atoms/icons/56/a-ic-56-product" transform="translate(80.000000, 113.000000)" fill-rule="nonzero">
                        <path d="M47,9 C48.6568542,9 50,10.3431458 50,12 L50,39 L55,39 L55,44 C55,45.5976809 53.75108,46.9036609 52.1762728,46.9949073 L52,47 L4,47 C2.40231912,47 1.09633912,45.75108 1.00509269,44.1762728 L1,44 L1,39 L5,39 L5,12 C5,10.3431458 6.34314575,9 8,9 L47,9 Z M53,41 L35,41 C35,42.5976809 33.75108,43.9036609 32.1762728,43.9949073 L32,44 L24,44 C22.4023191,44 21.0963391,42.75108 21.0050927,41.1762728 L21,41 L3,41 L3,44 C3,44.5128358 3.38604019,44.9355072 3.88337887,44.9932723 L4,45 L52,45 C52.5128358,45 52.9355072,44.6139598 52.9932723,44.1166211 L53,44 L53,41 Z M33,41 L23,41 C23,41.5128358 23.3860402,41.9355072 23.8833789,41.9932723 L24,42 L32,42 C32.5128358,42 32.9355072,41.6139598 32.9932723,41.1166211 L33,41 Z M47,11 L8,11 C7.44771525,11 7,11.4477153 7,12 L7,39 L48,39 L48,12 C48,11.4477153 47.5522847,11 47,11 Z M45,13 C45.5522847,13 46,13.4477153 46,14 L46,36 C46,36.5522847 45.5522847,37 45,37 L10,37 C9.44771525,37 9,36.5522847 9,36 L9,14 C9,13.4477153 9.44771525,13 10,13 L45,13 Z M44,15 L11,15 L11,35 L44,35 L44,15 Z" id="Shape" fill="#666666"></path>
                        <path d="M45,32 C38.924549,32 34,36.924549 34,43 C34,49.075451 38.924549,54 45,54 C51.075451,54 56,49.075451 56,43 C56,36.924549 51.075451,32 45,32 Z" id="Path" fill="#6CC727"></path>
                        <path d="M41.5813017,43.4325098 C41.1318931,43.0926203 40.5073486,43.2028342 40.1863425,43.6786796 C39.8653364,44.154525 39.9694272,44.8158089 40.4188357,45.1556984 L43.9188043,47.8027393 C44.3423683,48.1230826 44.9271912,48.0458115 45.2634167,47.6250792 L50.7633672,40.742773 C51.1201081,40.296369 51.0675271,39.6282793 50.6459242,39.2505529 C50.2243214,38.8728265 49.5933492,38.9285006 49.2366084,39.3749046 L44.3316817,45.5126338 L41.5813017,43.4325098 Z" id="Path-5" fill="#FFFFFF"></path>
                    </g>
                    <g id="atoms/icons/56/a-ic-56-user" transform="translate(428.000000, 113.000000)">
                        <path d="M7,52 L7,41.8814021 C7,35.6663672 12.3040111,30.5 19.1710526,30.5 L35.3421053,30.5 C42.2071655,30.5 48,35.6663672 48,41.8814021 L48,52" id="Shape" stroke="#666666" stroke-width="2" stroke-linecap="round" stroke-linejoin="round"></path>
                        <path d="M45,32 C38.924549,32 34,36.924549 34,43 C34,49.075451 38.924549,54 45,54 C51.075451,54 56,49.075451 56,43 C56,36.924549 51.075451,32 45,32 Z" id="Path" fill="#6CC727" fill-rule="nonzero"></path>
                        <path d="M41.5813017,43.4325098 C41.1318931,43.0926203 40.5073486,43.2028342 40.1863425,43.6786796 C39.8653364,44.154525 39.9694272,44.8158089 40.4188357,45.1556984 L43.9188043,47.8027393 C44.3423683,48.1230826 44.9271912,48.0458115 45.2634167,47.6250792 L50.7633672,40.742773 C51.1201081,40.296369 51.0675271,39.6282793 50.6459242,39.2505529 C50.2243214,38.8728265 49.5933492,38.9285006 49.2366084,39.3749046 L44.3316817,45.5126338 L41.5813017,43.4325098 Z" id="Path-5" fill="#FFFFFF" fill-rule="nonzero"></path>
                        <path d="M27.9848846,26 L27.0151154,26 C22.0384098,26 18,19.7871052 18,14.8938468 L18,11.8604518 C18,6.96526003 22.0384098,3 27.0151154,3 L27.9848846,3 C32.9635573,3 37,6.96526003 37,11.8604518 L37,14.8938468 C37,19.7871052 32.9635573,26 27.9848846,26 Z" id="Stroke" stroke="#666666" stroke-width="2"></path>
                        <path d="M15,43 L15,52" id="Path" stroke="#666666" stroke-width="2" fill="#FFFFFF" fill-rule="evenodd" stroke-linecap="round" stroke-linejoin="round"></path>
                    </g>
                </g>
            </g>
        </g>
    </g>
</svg>