<?xml version="1.0" encoding="UTF-8"?>
<svg width="48px" height="48px" viewBox="0 0 48 48" version="1.1" xmlns="http://www.w3.org/2000/svg" xmlns:xlink="http://www.w3.org/1999/xlink">
    <!-- Generator: Sketch 58 (84663) - https://sketch.com -->
    <title>atoms/icons/48/value-pyramid/a-ic-48-value-mission</title>
    <desc>Created with Sketch.</desc>
    <g id="atoms/icons/48/value-pyramid/a-ic-48-value-mission" stroke="none" stroke-width="1" fill="none" fill-rule="evenodd">
        <path d="M21.0003073,10.2419538 L21.0001579,12.2720353 C13.3197256,13.6827411 7.5,20.4117357 7.5,28.5 C7.5,37.6126984 14.8873016,45 24,45 C33.1126984,45 40.5,37.6126984 40.5,28.5 C40.5,24.028103 38.7210022,19.9717133 35.8321157,16.9999399 L38.4926398,17.0004082 C41.0013519,20.1578661 42.5,24.153919 42.5,28.5 C42.5,38.7172679 34.2172679,47 24,47 C13.7827321,47 5.5,38.7172679 5.5,28.5 C5.5,19.3040742 12.2095745,11.6752534 21.0003073,10.2419538 Z M27.0005803,16.3624662 C32.454933,17.7063473 36.5,22.6307856 36.5,28.5 C36.5,35.4035594 30.9035594,41 24,41 C17.0964406,41 11.5,35.4035594 11.5,28.5 C11.5,22.6304254 15.5455636,17.7057427 21.0004241,16.3622187 L21.000048,18.4348037 C16.6627899,19.7256122 13.5,23.7434515 13.5,28.5 C13.5,34.2989899 18.2010101,39 24,39 C29.7989899,39 34.5,34.2989899 34.5,28.5 C34.5,23.8429029 31.4680847,19.8939476 27.2704478,18.5193279 L27.0009484,18.4351003 L27.0005803,16.3624662 Z M24,1 C24.5128358,1 24.9355072,1.38604019 24.9932723,1.88337887 L25,2 L25,3 L39,3 C39.8003923,3 40.2615308,3.88376008 39.8462193,4.5335763 L39.7808688,4.62469505 L36.2806248,9 L39.7808688,13.375305 C40.2808699,14.0003063 39.8788402,14.9124756 39.1119759,14.9941087 L39,15 L25,15 L25,24.08 L24.9979641,24.1110468 C27.0029754,24.5650237 28.5,26.3576875 28.5,28.5 C28.5,30.9852814 26.4852814,33 24,33 C21.5147186,33 19.5,30.9852814 19.5,28.5 C19.5,26.3580425 20.9965284,24.5656179 23.001039,24.1112726 L23,24.08 L23,2 C23,1.44771525 23.4477153,1 24,1 Z M24,26 C22.6192881,26 21.5,27.1192881 21.5,28.5 C21.5,29.8807119 22.6192881,31 24,31 C25.3807119,31 26.5,29.8807119 26.5,28.5 C26.5,27.1192881 25.3807119,26 24,26 Z M36.9193752,5 L25,5 L25,13 L36.9193752,13 L34.2191312,9.62469505 C33.9535176,9.29267809 33.9293709,8.83360813 34.1466911,8.47849062 L34.2191312,8.37530495 L36.9193752,5 Z" id="Combined-Shape" fill="#5A7149" fill-rule="nonzero"></path>
    </g>
</svg>