<?xml version="1.0" encoding="UTF-8"?>
<svg width="48px" height="48px" viewBox="0 0 48 48" version="1.1" xmlns="http://www.w3.org/2000/svg" xmlns:xlink="http://www.w3.org/1999/xlink">
    <!-- Generator: Sketch 58 (84663) - https://sketch.com -->
    <title>atoms/icons/48/value-pyramid/a-ic-48-value-status</title>
    <desc>Created with Sketch.</desc>
    <g id="atoms/icons/48/value-pyramid/a-ic-48-value-status" stroke="none" stroke-width="1" fill="none" fill-rule="evenodd">
        <path d="M24.5380792,1 C31.8840195,1 37.8603961,6.94999219 37.8603961,14.2634531 L37.8603961,14.2634531 L37.8603961,15.4410352 C38.2483354,15.2659297 38.6783263,15.1675508 39.1312379,15.1675508 L39.1312379,15.1675508 L42.879152,15.1675508 C44.583504,15.1675508 45.9698522,16.5493477 45.9698522,18.2477539 C45.9698522,19.9447227 44.5834137,21.3253516 42.8790617,21.3253516 L42.8790617,21.3253516 L42.0735846,21.3253516 L42.0735846,32.0154102 C42.0735846,32.5158398 41.6661536,32.9214844 41.1636103,32.9214844 L41.1636103,32.9214844 L37.7498528,32.9214844 C37.3402561,34.5824258 35.8319943,35.8186758 34.0383955,35.8186758 L34.0383955,35.8186758 L27.9279232,35.8186758 L27.9279232,40.1445625 C28.9867023,40.4439219 29.9622807,40.8850547 30.8034927,41.4536758 C32.5976329,42.6664766 33.5856644,44.3143906 33.5856644,46.0939258 C33.5856644,46.5943555 33.1782334,47 32.67569,47 L32.67569,47 L16.4003781,47 C15.8978348,47 15.4904038,46.5943555 15.4904038,46.0939258 C15.4904038,44.3143906 16.4784352,42.6664766 18.2725755,41.4536758 C19.1137874,40.8849648 20.0893658,40.4439219 21.148145,40.1445625 L21.148145,40.1445625 L21.148145,35.8186758 L15.0376726,35.8186758 C13.2451567,35.8186758 11.7379778,34.5824258 11.3286518,32.9214844 L11.3286518,32.9214844 L7.91245787,32.9214844 C7.40991451,32.9214844 7.00248351,32.5158398 7.00248351,32.0154102 L7.00248351,32.0154102 L7.00248351,21.3252617 L6.19700641,21.3252617 C4.4926544,21.3252617 3.10621588,19.9446328 3.10621588,18.2476641 C3.10621588,16.5492578 4.4926544,15.1674609 6.19700641,15.1674609 L6.19700641,15.1674609 L9.94492042,15.1674609 C10.3987345,15.1674609 10.8296277,15.2661094 11.2182889,15.4416641 L11.2182889,15.4416641 L11.2182889,14.2634531 C11.2182889,6.94999219 17.1934924,1 24.5380792,1 Z M24.5379889,41.4985078 C23.7469502,41.4985078 22.9773883,41.5811641 22.2491562,41.7378516 C22.2452759,41.7386602 22.2414858,41.7395586 22.2376055,41.7403672 C21.1351505,41.9789023 20.1289809,42.3891289 19.2948979,42.9528984 C18.353069,43.5895312 17.7226564,44.3618281 17.4553672,45.1878516 L17.4553672,45.1878516 L31.6207911,45.1878516 C31.353502,44.3618281 30.7229991,43.5895312 29.78108,42.9528984 C28.9470872,42.3891289 27.9408274,41.9789922 26.8383724,41.7403672 C26.8344921,41.7396484 26.830702,41.7386602 26.8268217,41.7378516 C26.0986798,41.5810742 25.3290277,41.4985078 24.5379889,41.4985078 Z M26.1079745,35.8187656 L22.9681839,35.8187656 L22.9681839,39.7827617 C23.481917,39.7200508 24.0063885,39.6863594 24.5380792,39.6863594 C25.0697699,39.6863594 25.5942414,39.7200508 26.1079745,39.7827617 L26.1079745,39.7827617 L26.1079745,35.8187656 Z M34.0384858,30.0243828 L15.0377628,30.0243828 C13.9353078,30.0243828 13.0383279,30.9176094 13.0383279,32.0155 C13.0383279,33.1133906 13.9353078,34.0066172 15.0377628,34.0066172 L15.0377628,34.0066172 L34.0383955,34.0066172 C35.1422944,34.0066172 36.0404474,33.1133906 36.0404474,32.0155 C36.0404474,30.9176094 35.1423847,30.0243828 34.0384858,30.0243828 L34.0384858,30.0243828 Z M11.2183792,21.051418 C10.829718,21.226793 10.3988247,21.3253516 9.94501066,21.3253516 L9.94501066,21.3253516 L8.82252246,21.3253516 L8.82252246,31.1095156 L11.328742,31.1095156 C11.738068,29.4485742 13.2453371,28.2123242 15.0377628,28.2123242 L15.0377628,28.2123242 L21.1482352,28.2123242 L21.1482352,25.0651875 L14.6568622,25.0651875 C12.7608417,25.0651875 11.2183792,23.5292187 11.2183792,21.641332 L11.2183792,21.641332 Z M37.8603961,21.0520469 L37.8603961,21.6412422 C37.8603961,23.5291289 36.3179336,25.0650977 34.4219131,25.0650977 L34.4219131,25.0650977 L27.9279232,25.0650977 L27.9279232,28.2122344 L34.0383955,28.2122344 C35.8319943,28.2122344 37.3402561,29.4484844 37.7498528,31.1094258 L37.7498528,31.1094258 L40.2537261,31.1094258 L40.2537261,21.3253516 L39.1312379,21.3253516 C38.6783263,21.3253516 38.2483354,21.2270625 37.8603961,21.0520469 L37.8603961,21.0520469 Z M26.1079745,25.0651875 L22.9681839,25.0651875 L22.9681839,28.2123242 L26.1079745,28.2123242 L26.1079745,25.0651875 Z M30.3874889,4.40723437 L30.3874889,23.2530391 L34.4219131,23.2530391 C35.314381,23.2530391 36.0404474,22.5299766 36.0404474,21.6412422 L36.0404474,21.6412422 L36.0404474,14.2634531 C36.0404474,10.0741289 33.7685797,6.40365234 30.3874889,4.40723437 L30.3874889,4.40723437 Z M25.4480535,2.84790625 L25.4480535,9.5028125 C25.4480535,10.0032422 25.0406225,10.4088867 24.5380792,10.4088867 C24.0355358,10.4088867 23.6281048,10.0032422 23.6281048,9.5028125 L23.6281048,9.5028125 L23.6281048,2.84790625 C22.5398174,2.93316797 21.4939424,3.17026562 20.5112351,3.53727734 L20.5112351,3.53727734 L20.5112351,23.2530391 L23.6281048,23.2530391 L23.6281048,17.5705117 C23.6281048,17.070082 24.0355358,16.6644375 24.5380792,16.6644375 C25.0406225,16.6644375 25.4480535,17.070082 25.4480535,17.5705117 L25.4480535,17.5705117 L25.4480535,23.2530391 L28.56745,23.2530391 L28.56745,3.53790625 C27.5840207,3.17053516 26.5372434,2.93316797 25.4480535,2.84790625 L25.4480535,2.84790625 Z M18.6912864,4.40651562 C15.3101956,6.40275391 13.0383279,10.0735898 13.0383279,14.2634531 L13.0383279,14.2634531 L13.0383279,21.6412422 C13.0383279,22.5299766 13.7643943,23.2530391 14.6568622,23.2530391 L14.6568622,23.2530391 L18.6912864,23.2530391 Z M9.94492042,16.9796992 L6.19700641,16.9796992 C5.49629728,16.9796992 4.92616459,17.5485 4.92616459,18.2477539 C4.92616459,18.9455703 5.49629728,19.5132031 6.19700641,19.5132031 L6.19700641,19.5132031 L9.94492042,19.5132031 C10.6469831,19.5132031 11.2182889,18.9455703 11.2182889,18.2477539 C11.2182889,17.5485 10.6469831,16.9796992 9.94492042,16.9796992 L9.94492042,16.9796992 Z M42.879152,16.9796992 L39.1312379,16.9796992 C38.4305288,16.9796992 37.8603961,17.5485 37.8603961,18.2477539 C37.8603961,18.9454805 38.4305288,19.5132031 39.1312379,19.5132031 L39.1312379,19.5132031 L42.879152,19.5132031 C43.5798611,19.5132031 44.1499938,18.9455703 44.1499938,18.2477539 C44.1499938,17.5485 43.5798611,16.9796992 42.879152,16.9796992 L42.879152,16.9796992 Z M24.5380792,12.6216484 C25.0406225,12.6216484 25.4480535,13.027293 25.4480535,13.5277227 L25.4480535,13.5277227 L25.4480535,13.5456016 C25.4480535,14.0460313 25.0406225,14.4516758 24.5380792,14.4516758 C24.0355358,14.4516758 23.6281048,14.0460313 23.6281048,13.5456016 L23.6281048,13.5456016 L23.6281048,13.5277227 C23.6281048,13.027293 24.0355358,12.6216484 24.5380792,12.6216484 Z" id="Combined-Shape" fill="#5A7149" fill-rule="nonzero"></path>
    </g>
</svg>