<?xml version="1.0" encoding="UTF-8"?>
<svg width="48px" height="48px" viewBox="0 0 48 48" version="1.1" xmlns="http://www.w3.org/2000/svg" xmlns:xlink="http://www.w3.org/1999/xlink">
    <!-- Generator: Sketch 58 (84663) - https://sketch.com -->
    <title>atoms/icons/48/value-pyramid/a-ic-48-value-usability</title>
    <desc>Created with Sketch.</desc>
    <g id="atoms/icons/48/value-pyramid/a-ic-48-value-usability" stroke="none" stroke-width="1" fill="none" fill-rule="evenodd">
        <path d="M44.0125089,16.4760491 L38.3896304,7.17440768 C37.9538555,6.45347344 37.2149461,6.02298907 36.4131487,6.02298907 L11.6044673,6.02298907 C10.8038812,6.02298907 10.0656784,6.45239209 9.62970168,7.17148805 L3.9893599,16.4743189 C3.41297019,17.4248232 3.50200271,18.6798349 4.20588458,19.5260973 L22.240725,41.2157615 C22.6870989,41.7525423 23.3278909,42.06051 23.998966,42.06051 C24.6700411,42.06051 25.3110349,41.7526505 25.7574088,41.2158697 L43.7942681,19.5249078 C44.4971406,18.6796186 44.5868797,17.4259045 44.0125089,16.4760491 Z M35.2740976,8.18557555 L30.5452793,16.0188554 L25.8136346,8.18557555 L35.2740976,8.18557555 Z M28.6900312,16.9284848 L19.3079007,16.9284848 L23.998966,9.16235657 L28.6900312,16.9284848 Z M22.1842973,8.18579182 L17.4656744,15.9975529 L12.7486665,8.18579182 L22.1842973,8.18579182 L22.1842973,8.18579182 Z M10.8821127,9.07628132 L15.6234481,16.9284848 L6.12129522,16.9284848 L10.8821127,9.07628132 Z M6.54768229,19.0911794 L16.7071819,19.0911794 L22.0790128,37.7698321 L6.54768229,19.0911794 Z M23.998966,37.1002618 L18.819635,19.0911794 L29.1782969,19.0911794 L23.998966,37.1002618 Z M25.9188181,37.7704809 L31.290851,19.0912875 L41.4512591,19.0912875 L25.9188181,37.7704809 Z M32.4005274,16.9284848 L37.1375221,9.08168806 L41.8807754,16.9284848 L32.4005274,16.9284848 Z" id="Shape" fill="#5A7149" fill-rule="nonzero"></path>
    </g>
</svg>