<?xml version="1.0" encoding="UTF-8"?>
<svg width="80px" height="80px" viewBox="0 0 80 80" version="1.1" xmlns="http://www.w3.org/2000/svg" xmlns:xlink="http://www.w3.org/1999/xlink">
    <!-- Generator: Sketch 58 (84663) - https://sketch.com -->
    <title>atoms/icons/80/a-ic-80-investors</title>
    <desc>Created with Sketch.</desc>
    <g id="atoms/icons/80/a-ic-80-investors" stroke="none" stroke-width="1" fill="none" fill-rule="evenodd">
        <path d="M49,9 C51.1421954,9 52.8910789,10.6839685 52.9951047,12.8003597 L53,13 L53.0008723,17.1710142 C53.852904,17.4724621 54.5281591,18.1479243 54.8293257,19.0000889 L70,19 C72.6887547,19 74.8818181,21.1223067 74.9953805,23.7831104 L75,24 L75,64 C75,66.7614237 72.7614237,69 70,69 L10,69 C7.23857625,69 5,66.7614237 5,64 L5,24 C5,21.3112453 7.12230671,19.1181819 9.78311038,19.0046195 L10,19 L25.1706743,19.0000889 C25.4719592,18.1475895 26.1476267,17.4719313 27.0001322,17.170659 L27,13 C27,10.8578046 28.6839685,9.10892112 30.8003597,9.00489531 L31,9 L49,9 Z M11,42 L7,42 L7,64 C7,65.6568542 8.34314575,67 10,67 L70,67 C71.6568542,67 73,65.6568542 73,64 L73,42 L69,42 C69,43.6568542 67.6568542,45 66,45 L63,45 C61.3431458,45 60,43.6568542 60,42 L54.7000727,42.0006257 C54.8967537,42.9697616 55,43.9728236 55,45 C55,53.2842712 48.2842712,60 40,60 C31.7157288,60 25,53.2842712 25,45 C25,43.9728236 25.1032463,42.9697616 25.2999273,42.0006257 L20,42 C20,43.6568542 18.6568542,45 17,45 L14,45 C12.3431458,45 11,43.6568542 11,42 Z M40,32 C32.8202983,32 27,37.8202983 27,45 C27,52.1797017 32.8202983,58 40,58 C47.1797017,58 53,52.1797017 53,45 C53,37.8202983 47.1797017,32 40,32 Z M41.3554864,35.5 L41.3554864,37.2695232 C42.8365471,37.5497628 44.021082,38.3834023 44.6494076,39.6666307 L44.7489339,39.8846472 L44.9266425,40.3033347 L43.1661363,41.2557952 L42.9539143,40.7436191 C42.6731464,40.0660146 42.20217,39.6010604 41.540631,39.3545663 L41.3554864,39.2927613 L41.3554864,43.6924772 L41.6158036,43.7881599 C44.0826956,44.7143769 45.1184174,45.6895201 45.1184174,47.73 C45.1184174,49.750402 43.7000919,51.2592396 41.5775432,51.6973339 L41.3554864,51.7388115 L41.3554864,53.5 L39.4438484,53.5 L39.4438484,51.7827509 C37.4336963,51.5699164 35.907604,50.5890009 35.2326855,49.0184218 L35.1495099,48.8102342 L35,48.4063207 L36.7932943,47.4192484 L36.984419,47.9857078 C37.3014938,48.9254611 38.0572025,49.5396363 39.2208846,49.7667764 L39.4438484,49.8048146 L39.4438484,45.0998709 C36.8002216,44.1498291 35.7585036,43.2300527 35.7585036,41.1188889 C35.7585036,39.150923 37.1974906,37.6726542 39.2244618,37.2875234 L39.4438484,37.2504699 L39.4438484,35.5 L41.3554864,35.5 Z M41.3554864,45.7680345 L41.3554864,49.7225626 C42.4622407,49.4410855 43.0710036,48.7098129 43.0710036,47.73 C43.0710036,46.8112799 42.5914662,46.27691 41.3554864,45.7680345 Z M17,39 L14,39 C13.4477153,39 13,39.4477153 13,40 L13,42 C13,42.5522847 13.4477153,43 14,43 L17,43 C17.5522847,43 18,42.5522847 18,42 L18,40 C18,39.4477153 17.5522847,39 17,39 Z M66,39 L63,39 C62.4477153,39 62,39.4477153 62,40 L62,42 C62,42.5522847 62.4477153,43 63,43 L66,43 C66.5522847,43 67,42.5522847 67,42 L67,40 C67,39.4477153 66.5522847,39 66,39 Z M39.4438484,39.2494764 L39.2669972,39.2992343 C38.3461132,39.5894294 37.7865209,40.271991 37.7865209,41.1188889 C37.7865209,42.0019294 38.2291923,42.4916217 39.4438484,42.999068 L39.4438484,39.2494764 Z M25,21 L10,21 C8.40231912,21 7.09633912,22.24892 7.00509269,23.8237272 L7,24 L7,40 L11,40 C11,38.3431458 12.3431458,37 14,37 L17,37 C18.6568542,37 20,38.3431458 20,40 L25.8535595,40 C27.9127663,34.1739962 33.4689386,30 40,30 C46.5310614,30 52.0872337,34.1739962 54.1464405,40 L60,40 C60,38.3431458 61.3431458,37 63,37 L66,37 C67.6568542,37 69,38.3431458 69,40 L73,40 L73,24 C73,22.4023191 71.75108,21.0963391 70.1762728,21.0050927 L70,21 L55,21 C55,22.6568542 53.6568542,24 52,24 L48,24 C46.3431458,24 45,22.6568542 45,21 L35,21 C35,22.6568542 33.6568542,24 32,24 L28,24 C26.3431458,24 25,22.6568542 25,21 Z M52,19 L48,19 C47.4477153,19 47,19.4477153 47,20 L47,21 C47,21.5522847 47.4477153,22 48,22 L52,22 C52.5522847,22 53,21.5522847 53,21 L53,20 C53,19.4477153 52.5522847,19 52,19 Z M32,19 L28,19 C27.4477153,19 27,19.4477153 27,20 L27,21 C27,21.5522847 27.4477153,22 28,22 L32,22 C32.5522847,22 33,21.5522847 33,21 L33,20 C33,19.4477153 32.5522847,19 32,19 Z M47.0001322,15 L33,15 L33.0008723,17.1710142 C33.852904,17.4724621 34.5281591,18.1479243 34.8293257,19.0000889 L45.1706743,19.0000889 C45.4719592,18.1475895 46.1476267,17.4719313 47.0001322,17.170659 L47.0001322,15 Z M49,11 L31,11 C29.9456382,11 29.0818349,11.8158778 29.0054857,12.8507377 L29,13 L29,17 L31,17 L31,15 C31,13.9456382 31.8158778,13.0818349 32.8507377,13.0054857 L33,13 L47,13 C48.0543618,13 48.9181651,13.8158778 48.9945143,14.8507377 L49,15 L49,17 L51,17 L51,13 C51,11.9456382 50.1841222,11.0818349 49.1492623,11.0054857 L49,11 Z" id="Shape" fill="#6CC727" fill-rule="nonzero"></path>
    </g>
</svg>