<?xml version="1.0" encoding="UTF-8"?>
<svg width="80px" height="80px" viewBox="0 0 80 80" version="1.1" xmlns="http://www.w3.org/2000/svg" xmlns:xlink="http://www.w3.org/1999/xlink">
    <!-- Generator: Sketch 58 (84663) - https://sketch.com -->
    <title>atoms/icons/80/a-ic-80-long-term</title>
    <desc>Created with Sketch.</desc>
    <g id="atoms/icons/80/a-ic-80-long-term" stroke="none" stroke-width="1" fill="none" fill-rule="evenodd">
        <path d="M65.8833789,48.0067277 L66,48 C66.5128358,48 66.9355072,48.3860402 66.9932723,48.8833789 L67,49 L67,50 L73,50 C74.1045695,50 75,50.8954305 75,52 L75,74 C75,75.1045695 74.1045695,76 73,76 L48,76 C46.8954305,76 46,75.1045695 46,74 L46,52 C46,50.8954305 46.8954305,50 48,50 L54,50 L54,49 C54,48.4871642 54.3860402,48.0644928 54.8833789,48.0067277 L55,48 C55.5128358,48 55.9355072,48.3860402 55.9932723,48.8833789 L56,49 L56,50 L65,50 L65,49 C65,48.4871642 65.3860402,48.0644928 65.8833789,48.0067277 L66,48 L65.8833789,48.0067277 Z M73,58 L48,58 L48,74 L73,74 L73,58 Z M39,6 C56.7610504,6 71.2449058,20.0313396 71.9714155,37.6138681 L76.2928932,33.2928932 C76.6834175,32.9023689 77.3165825,32.9023689 77.7071068,33.2928932 C78.0675907,33.6533772 78.0953203,34.2206082 77.7902954,34.6128994 L77.7071068,34.7071068 L71,41.4142136 L64.2928932,34.7071068 C63.9023689,34.3165825 63.9023689,33.6834175 64.2928932,33.2928932 C64.6533772,32.9324093 65.2206082,32.9046797 65.6128994,33.2097046 L65.7071068,33.2928932 L69.9668174,37.5528033 C69.2261333,21.4347937 56.1768201,8.52865162 40.0003351,8.01583432 L40,12 C40,12.5522847 39.5522847,13 39,13 C38.4871642,13 38.0644928,12.6139598 38.0067277,12.1166211 L38,12 L38.0006623,8.01580272 C21.6741735,8.53285705 8.53287879,21.6741389 8.01580397,38.0006226 L12,38 C12.5522847,38 13,38.4477153 13,39 C13,39.5128358 12.6139598,39.9355072 12.1166211,39.9932723 L12,40 L8.01582745,40.0001185 C8.53840847,56.4881795 21.936327,69.7274971 38.4873583,69.9958469 L39,70 L39,72 C20.7746033,72 6,57.2253967 6,39 C6,20.7746033 20.7746033,6 39,6 Z M52,67 C52.5522847,67 53,67.4477153 53,68 L53,69 C53,69.5522847 52.5522847,70 52,70 L51,70 C50.4477153,70 50,69.5522847 50,69 L50,68 C50,67.4477153 50.4477153,67 51,67 L52,67 Z M58,67 C58.5522847,67 59,67.4477153 59,68 L59,69 C59,69.5522847 58.5522847,70 58,70 L57,70 C56.4477153,70 56,69.5522847 56,69 L56,68 C56,67.4477153 56.4477153,67 57,67 L58,67 Z M64,67 C64.5522847,67 65,67.4477153 65,68 L65,69 C65,69.5522847 64.5522847,70 64,70 L63,70 C62.4477153,70 62,69.5522847 62,69 L62,68 C62,67.4477153 62.4477153,67 63,67 L64,67 Z M70,67 C70.5522847,67 71,67.4477153 71,68 L71,69 C71,69.5522847 70.5522847,70 70,70 L69,70 C68.4477153,70 68,69.5522847 68,69 L68,68 C68,67.4477153 68.4477153,67 69,67 L70,67 Z M52,61 C52.5522847,61 53,61.4477153 53,62 L53,63 C53,63.5522847 52.5522847,64 52,64 L51,64 C50.4477153,64 50,63.5522847 50,63 L50,62 C50,61.4477153 50.4477153,61 51,61 L52,61 Z M58,61 C58.5522847,61 59,61.4477153 59,62 L59,63 C59,63.5522847 58.5522847,64 58,64 L57,64 C56.4477153,64 56,63.5522847 56,63 L56,62 C56,61.4477153 56.4477153,61 57,61 L58,61 Z M64,61 C64.5522847,61 65,61.4477153 65,62 L65,63 C65,63.5522847 64.5522847,64 64,64 L63,64 C62.4477153,64 62,63.5522847 62,63 L62,62 C62,61.4477153 62.4477153,61 63,61 L64,61 Z M70,61 C70.5522847,61 71,61.4477153 71,62 L71,63 C71,63.5522847 70.5522847,64 70,64 L69,64 C68.4477153,64 68,63.5522847 68,63 L68,62 C68,61.4477153 68.4477153,61 69,61 L70,61 Z M54,52 L48,52 L48,56 L73,56 L73,52 L67,52 L67,53 C67,53.5128358 66.6139598,53.9355072 66.1166211,53.9932723 L66,54 C65.4871642,54 65.0644928,53.6139598 65.0067277,53.1166211 L65,53 L65,52 L56,52 L56,53 C56,53.5128358 55.6139598,53.9355072 55.1166211,53.9932723 L55,54 C54.4871642,54 54.0644928,53.6139598 54.0067277,53.1166211 L54,53 L54,52 Z M54.2071068,23.7928932 C54.5675907,24.1533772 54.5953203,24.7206082 54.2902954,25.1128994 L54.2071068,25.2071068 L42.4461664,36.968008 C42.798065,37.5635268 43,38.2581812 43,39 C43,41.209139 41.209139,43 39,43 C36.790861,43 35,41.209139 35,39 C35,38.2581812 35.201935,37.5635268 35.5538336,36.968008 L30.2928932,31.7071068 C29.9023689,31.3165825 29.9023689,30.6834175 30.2928932,30.2928932 C30.6533772,29.9324093 31.2206082,29.9046797 31.6128994,30.2097046 L31.7071068,30.2928932 L36.968008,35.5538336 C37.5635268,35.201935 38.2581812,35 39,35 C39.7418188,35 40.4364732,35.201935 41.031992,35.5538336 L52.7928932,23.7928932 C53.1834175,23.4023689 53.8165825,23.4023689 54.2071068,23.7928932 Z M39,37 C37.8954305,37 37,37.8954305 37,39 C37,40.1045695 37.8954305,41 39,41 C40.1045695,41 41,40.1045695 41,39 C41,38.5723537 40.8657806,38.176056 40.6371694,37.8509344 C40.532145,37.8043373 40.434493,37.7373265 40.3485832,37.6514168 C40.2626735,37.565507 40.1956627,37.467855 40.1475508,37.363627 C39.823944,37.1342194 39.4276463,37 39,37 Z" id="Shape" fill="#6CC727" fill-rule="nonzero"></path>
    </g>
</svg>