<?xml version="1.0" encoding="UTF-8"?>
<svg width="80px" height="80px" viewBox="0 0 80 80" version="1.1" xmlns="http://www.w3.org/2000/svg" xmlns:xlink="http://www.w3.org/1999/xlink">
    <!-- Generator: Sketch 58 (84663) - https://sketch.com -->
    <title>atoms/icons/80/a-ic-80-mvp</title>
    <desc>Created with Sketch.</desc>
    <g id="atoms/icons/80/a-ic-80-mvp" stroke="none" stroke-width="1" fill="none" fill-rule="evenodd">
        <path d="M76.7071068,5.79289322 C77.7208763,6.80666274 77.8945685,11.6700434 76.9838699,16.6788854 C76.3475134,20.1788463 74.2923327,24.9008452 70.8204414,30.8833656 L70.1735778,31.9849952 C72.0614304,35.1378826 71.9438779,38.1020665 69.7592566,40.6507914 C67.7736838,42.967293 65.7872273,45.4503636 63.8,48.1 C63.3020148,48.7639802 62.2586199,48.5673399 62.0364821,47.7676439 L59.7569986,39.5615034 C58.5224634,39.5857628 57.2647848,39.297362 55.9855522,38.7049641 L48.8305006,51.941548 C51.7232427,50.4553703 54.8216618,50.6776121 58.0240974,52.6483417 C61.1463678,54.5697388 62.9431488,57.5758917 63.6073386,61.0628879 C63.7907151,62.0256146 63.8909067,62.9932969 63.8920384,63.8598389 L63.8864122,64.2247125 L64.0315374,64.199737 C65.8664555,63.9100131 67.7205696,64.5540738 69.2592566,66.3492086 C71.4392123,68.8924902 72.3865728,71.1661555 71.9805807,73.1961161 C71.8948862,73.6245883 71.5428826,73.9430139 71.1176446,73.9931093 L71,74 L4.5,74 C4.08622825,74 3.71518979,73.7451711 3.56665439,73.3589791 C1.76638978,68.6782911 2.50224947,64.4470979 5.75670585,60.8310353 C8.66795427,57.5963148 11.973057,56.3513762 15.542995,57.1738247 C15.8524111,52.5055406 17.8313606,48.967461 21.4631245,46.6563385 C25.2289846,44.2598821 29.4824298,44.427061 34.0884237,47.0784496 L34.418021,47.2720583 L50.3089174,34.1840918 C49.0451098,32.6507687 48.2922999,31.0893701 48.0698214,29.5 L40,29.5 C39.2013046,29.5 38.7249132,28.6098545 39.1679497,27.9452998 L39.7822229,27.031412 L40.3788471,26.1590693 C42.5341806,23.0365921 44.33472,20.7510664 45.7928932,19.2928932 C47.5565275,17.529259 49.8208376,17.0298669 52.4494553,17.7674734 L52.7430162,17.8545188 L53.2432482,17.3725967 C57.7244992,13.0801484 61.6433332,9.99863375 65.0143571,8.12584272 C69.7056114,5.51959034 75.4620254,4.54781181 76.7071068,5.79289322 Z M51.6787036,35.6476311 L35.1357073,49.2719302 C34.8002553,49.5481848 34.324787,49.5761714 33.9592424,49.3411785 C29.5986848,46.5379629 25.8461492,46.23776 22.5368755,48.3436615 C19.1716891,50.4851438 17.5,53.8285219 17.5,58.5 C17.5,59.1939645 16.8104402,59.676951 16.1582569,59.4397934 C12.8932657,58.2525239 9.98206732,59.1258834 7.24329415,62.1689647 C4.72473403,64.9673649 4.0137491,68.0896281 5.09680948,71.6636117 L5.20360197,72 L70.0597918,72 C69.9605279,70.817591 69.2086283,69.3633237 67.7407434,67.6507914 C66.6632634,66.3937313 65.5059403,65.9917138 64.3434626,66.175263 C64.0251007,66.2255306 63.7267964,66.320339 63.4888543,66.4326605 L63.353655,66.5019387 L63.2700544,66.6143413 C63.0675002,66.8613427 62.8123274,67 62.5,67 C62.0075672,67 61.4959724,66.7024698 61.454001,66.0355911 C61.4347831,65.7302387 61.5196847,65.5225074 61.6621059,65.3344856 L61.737894,65.2417564 L61.7633881,65.2133396 C61.7976213,65.0340572 61.8271146,64.8017955 61.8463842,64.5368393 C61.9123307,63.6300748 61.8522573,62.5374906 61.6426614,61.4371121 C61.0763404,58.4639269 59.5740867,55.9505409 56.9759026,54.3516583 C53.0815315,51.9551223 49.6228356,52.6756839 46.2633863,56.6459422 C45.5118908,57.5340733 44.1407308,56.6434113 44.571156,55.6265306 L44.6202935,55.524483 L54.2440985,37.7203125 C53.6147338,37.3012558 52.9804724,36.8116816 52.3414954,36.2525767 C52.1116118,36.0514286 51.8906659,35.84978 51.6787036,35.6476311 Z M36,57 C41.5874617,57 45.289,58.7040147 46.8956818,62.1269608 L47.0043744,62.3685601 L47.2354721,62.2462826 C48.6385517,61.5479359 50.3374434,61.4849681 52.2747211,62.0384761 C54.8382962,62.7709261 56.442466,64.1186236 56.9293671,66.0753994 L56.9805807,66.3038839 L55.0194193,66.6961161 C54.7688889,65.4434639 53.7297714,64.5342361 51.7252789,63.9615239 C49.7179343,63.3879969 48.2613905,63.6528231 47.2071068,64.7071068 C46.6574766,65.256737 45.7183791,64.996622 45.5298575,64.2425356 C44.6579813,60.7550308 41.5866774,59 36,59 C30.502964,59 26.5693611,61.3455056 24.0630985,66.1180509 L23.8944272,66.4472136 L22.1055728,65.5527864 C24.9419648,59.8800023 29.6219686,57 36,57 Z M72.7063212,7.45001471 C70.5967894,7.8061388 68.2579757,8.6117502 65.9856429,9.87415728 C62.5603596,11.7770925 58.4589644,15.0582086 53.6993269,19.714802 C53.4218525,19.9862692 53.0123441,20.0726295 52.6488766,19.9363292 C50.3295249,19.0665723 48.5782079,19.3360057 47.2071068,20.7071068 C45.943532,21.9706816 44.3585542,23.9596808 42.4620898,26.6664453 L41.8838157,27.5 L49,27.5 C49.5522847,27.5 50,27.9477153 50,28.5 C50,30.505074 51.1898945,32.5873895 53.6585046,34.7474233 C56.1248088,36.9054395 58.3527159,37.7966023 60.3585786,37.5100505 C60.8560631,37.4389813 61.3290174,37.7481544 61.4635179,38.2323561 L63.4237123,45.2890558 C65.0288656,43.2030802 66.6345236,41.2231317 68.2407434,39.3492086 C69.9318845,37.3762107 69.9318845,35.2006024 68.1679497,32.5547002 C67.9535874,32.2331568 67.9436817,31.8168799 68.1425071,31.4855042 L68.7674438,30.4329579 C72.3284005,24.3699189 74.4105254,19.6519403 75.0161301,16.3211146 C75.4598172,13.8808354 75.6314052,11.572197 75.5631371,9.66069153 C75.5349732,8.87210156 75.4659506,8.19306815 75.3693506,7.68777581 C75.3498941,7.58600322 75.3297618,7.49386043 75.3095355,7.41254722 L75.2791984,7.29884956 L75.1563609,7.28488356 L74.859881,7.26728542 L74.859881,7.26728542 C74.2875454,7.25006952 73.5399204,7.30928929 72.7063212,7.45001471 Z M64.5,16 C66.9852814,16 69,18.0147186 69,20.5 C69,22.9852814 66.9852814,25 64.5,25 C62.0147186,25 60,22.9852814 60,20.5 C60,18.0147186 62.0147186,16 64.5,16 Z M64.5,18 C63.1192881,18 62,19.1192881 62,20.5 C62,21.8807119 63.1192881,23 64.5,23 C65.8807119,23 67,21.8807119 67,20.5 C67,19.1192881 65.8807119,18 64.5,18 Z" id="Shape" fill="#6CC727" fill-rule="nonzero"></path>
    </g>
</svg>