<?xml version="1.0" encoding="UTF-8"?>
<svg width="80px" height="80px" viewBox="0 0 80 80" version="1.1" xmlns="http://www.w3.org/2000/svg" xmlns:xlink="http://www.w3.org/1999/xlink">
    <!-- Generator: Sketch 58 (84663) - https://sketch.com -->
    <title>atoms/icons/80/a-ic-80-complete-concept</title>
    <desc>Created with Sketch.</desc>
    <g id="atoms/icons/80/a-ic-80-complete-concept" stroke="none" stroke-width="1" fill="none" fill-rule="evenodd">
        <path d="M72,12 C74.1421954,12 75.8910789,13.6839685 75.9951047,15.8003597 L76,16 L76,55 L78,55 C78.5522847,55 79,55.4477153 79,56 L79,59 C79,61.209139 77.209139,63 75,63 L27,63 L27,70 C27,72.209139 25.209139,74 23,74 L5,74 C2.790861,74 1,72.209139 1,70 L1,31 C1,28.790861 2.790861,27 5,27 L8,27 L8,16 C8,13.8578046 9.68396847,12.1089211 11.8003597,12.0048953 L12,12 L72,12 Z M7,29 L5,29 C3.8954305,29 3,29.8954305 3,31 L3,70 C3,71.1045695 3.8954305,72 5,72 L23,72 C24.1045695,72 25,71.1045695 25,70 L25,31 C25,29.8954305 24.1045695,29 23,29 L21,29 C21,30.6568542 19.6568542,32 18,32 L10,32 C8.34314575,32 7,30.6568542 7,29 Z M9,68 L19,68 C19.5522847,68 20,68.4477153 20,69 C20,69.5128358 19.6139598,69.9355072 19.1166211,69.9932723 L19,70 L9,70 C8.44771525,70 8,69.5522847 8,69 C8,68.4871642 8.38604019,68.0644928 8.88337887,68.0067277 L9,68 L19,68 L9,68 Z M37,57 L27,57 L27,61 L75,61 C76.1045695,61 77,60.1045695 77,59 L77,57 L48,57 C48,58.0543618 47.1841222,58.9181651 46.1492623,58.9945143 L46,59 L39,59 C37.9456382,59 37.0818349,58.1841222 37.0054857,57.1492623 L37,57 Z M72,14 L12,14 C10.9456382,14 10.0818349,14.8158778 10.0054857,15.8507377 L10,16 L10,27 L12,27 L12,18 C12,16.9456382 12.8158778,16.0818349 13.8507377,16.0054857 L14,16 L70,16 C71.0543618,16 71.9181651,16.8158778 71.9945143,17.8507377 L72,18 L72,51 C72,52.0543618 71.1841222,52.9181651 70.1492623,52.9945143 L70,53 L27,53 L27,55 L74,55 L74,16 C74,14.9456382 73.1841222,14.0818349 72.1492623,14.0054857 L72,14 Z M70,18 L14,18 L14,27 L23,27 C25.209139,27 27,28.790861 27,31 L27,51 L70,51 L70,18 Z M19,29 L9,29 C9,29.5522847 9.44771525,30 10,30 L18,30 C18.5522847,30 19,29.5522847 19,29 Z" id="Shape" fill="#6CC727" fill-rule="nonzero"></path>
    </g>
</svg>