<?xml version="1.0" encoding="UTF-8"?>
<svg width="24px" height="24px" viewBox="0 0 24 24" version="1.1" xmlns="http://www.w3.org/2000/svg" xmlns:xlink="http://www.w3.org/1999/xlink">
    <!-- Generator: Sketch 58 (84663) - https://sketch.com -->
    <title>atoms/icons/24/social/a-ic-24-social-behance-gray</title>
    <desc>Created with Sketch.</desc>
    <g id="atoms/icons/24/social/a-ic-24-social-behance-gray" stroke="none" stroke-width="1" fill="none" fill-rule="evenodd">
        <rect id="Rectangle" fill="#CCCCCC" fill-rule="nonzero" x="16.04025" y="6.3465" width="5.1795" height="1.2615"></rect>
        <path d="M7.27725,5.07375 C11.5575,5.07375 11.70375,7.45275 11.70375,8.50275 C11.70375,10.3875 10.44225,11.09475 9.816,11.391 C10.66875,11.63625 12.345,12.4635 12.345,14.90475 C12.345,18.81075 8.08125,18.927 7.461,18.927 L0.7485,18.927 L0.7485,5.07375 L7.27725,5.07375 Z M6.88275,10.67025 C7.42275,10.67025 8.74575,10.50675 8.74575,9.02175 C8.74575,7.2855 6.92025,7.43325 6.65025,7.43325 L3.79725,7.43325 L3.79725,10.67025 L6.88275,10.67025 Z M7.0515,16.56675 C7.35225,16.56675 9.303,16.56675 9.303,14.73525 C9.303,12.8445 7.76925,12.75225 7.113,12.75225 L3.798,12.75225 L3.798,16.56675 L7.0515,16.56675 Z" id="Shape" fill="#CCCCCC" fill-rule="nonzero"></path>
        <path d="M18.83325,16.61025 C20.0805,16.61025 20.7525,15.6885 20.8395,15.402 L23.0775,15.402 C22.7175,16.51575 21.84525,18.51075 18.7485,18.51075 C17.5995,18.51075 14.00925,18.02325 14.00925,13.65 C14.00925,12.177 14.83275,8.75475 18.7485,8.75475 C22.251,8.75475 23.37225,11.724 23.23725,14.256 L16.56,14.256 C16.56,14.98725 16.74075,16.61025 18.83325,16.61025 Z M20.10975,11.18925 C19.80825,10.85475 19.296,10.674 18.672,10.674 C18.26625,10.674 17.93025,10.74225 17.661,10.88175 C17.39775,11.019 17.1825,11.19 17.0175,11.39175 C16.85325,11.5965 16.7415,11.8125 16.677,12.0435 C16.61175,12.2685 16.57275,12.47325 16.56075,12.65325 L20.6955,12.65325 C20.63475,12.00525 20.41275,11.526 20.10975,11.18925 Z" id="Shape" fill="#CCCCCC" fill-rule="nonzero"></path>
    </g>
</svg>