<?xml version="1.0" encoding="UTF-8"?>
<svg width="24px" height="24px" viewBox="0 0 24 24" version="1.1" xmlns="http://www.w3.org/2000/svg" xmlns:xlink="http://www.w3.org/1999/xlink">
    <!-- Generator: Sketch 58 (84663) - https://sketch.com -->
    <title>atoms/icons/24/social/a-ic-24-social-twitter-gray</title>
    <desc>Created with Sketch.</desc>
    <g id="atoms/icons/24/social/a-ic-24-social-twitter-gray" stroke="none" stroke-width="1" fill="none" fill-rule="evenodd">
        <path d="M21,6.41775 C20.33775,6.71175 19.626,6.90975 18.879,6.999 C19.64175,6.54225 20.22675,5.8185 20.50275,4.956 C19.7895,5.379 18.999,5.6865 18.1575,5.85225 C17.484,5.1345 16.524,4.686 15.462,4.686 C13.42275,4.686 11.769,6.33975 11.769,8.379 C11.769,8.6685 11.802,8.9505 11.86425,9.2205 C8.79525,9.06675 6.07425,7.596 4.2525,5.36175 C3.93525,5.907 3.753,6.5415 3.753,7.21875 C3.753,8.49975 4.40475,9.63 5.3955,10.29225 C4.79025,10.27275 4.221,10.107 3.723,9.83025 C3.723,9.846 3.723,9.861 3.723,9.87675 C3.723,11.66625 4.99575,13.15875 6.6855,13.49775 C6.37575,13.5825 6.0495,13.6275 5.712,13.6275 C5.47425,13.6275 5.2425,13.60425 5.0175,13.5615 C5.48775,15.0285 6.85125,16.0965 8.4675,16.1265 C7.20375,17.11725 5.6115,17.7075 3.88125,17.7075 C3.5835,17.7075 3.2895,17.69025 3,17.65575 C4.63425,18.7035 6.57525,19.31475 8.661,19.31475 C15.45375,19.31475 19.16775,13.6875 19.16775,8.80725 C19.16775,8.6475 19.164,8.48775 19.15725,8.3295 C19.87875,7.80825 20.505,7.158 21,6.41775 Z" id="Path" fill="#CCCCCC" fill-rule="nonzero"></path>
    </g>
</svg>